SplineFontDB: 3.0
FontName: ArchivoBlack-Normal
FullName: Archivo Black-Normal
FamilyName: Archivo Black
Weight: Regular
Copyright: Copyright (c) 2012-2013, Omnibus-Type (www.omnibus-type.com omnibus.type@gmail.com)
Version: 001.004
ItalicAngle: 0
UnderlinePosition: -215
UnderlineWidth: 102
Ascent: 1638
Descent: 410
InvalidEm: 0
sfntRevision: 0x00010106
LayerCount: 2
Layer: 0 1 "Back" 1
Layer: 1 1 "Fore" 0
XUID: [1021 809 -2065993493 7942728]
FSType: 8
OS2Version: 3
OS2_WeightWidthSlopeOnly: 0
OS2_UseTypoMetrics: 1
CreationTime: 1388141386
ModificationTime: 1422397478
PfmFamily: 81
TTFWeight: 400
TTFWidth: 5
LineGap: 0
VLineGap: 0
Panose: 2 11 10 3 2 1 2 2 11 4
OS2TypoAscent: 1466
OS2TypoAOffset: 0
OS2TypoDescent: -434
OS2TypoDOffset: 0
OS2TypoLinegap: 557
OS2WinAscent: 2023
OS2WinAOffset: 0
OS2WinDescent: 434
OS2WinDOffset: 0
HheadAscent: 2023
HheadAOffset: 0
HheadDescent: -434
HheadDOffset: 0
OS2SubXSize: 1331
OS2SubYSize: 1229
OS2SubXOff: 0
OS2SubYOff: 154
OS2SupXSize: 1331
OS2SupYSize: 1229
OS2SupXOff: 0
OS2SupYOff: 717
OS2StrikeYSize: 102
OS2StrikeYPos: 647
OS2CapHeight: 0
OS2XHeight: 0
OS2Vendor: 'UKWN'
OS2CodePages: 20000093.00000000
OS2UnicodeRanges: 00000007.00000000.00000000.00000000
Lookup: 1 0 0 "" { } []
Lookup: 258 0 0 "'kern' Horizontal Kerning lookup 0" { "'kern' Horizontal Kerning lookup 0 subtable"  } ['kern' ('DFLT' <'dflt' > 'grek' <'dflt' > 'latn' <'dflt' > ) ]
MarkAttachClasses: 1
DEI: 91125

StartChar: .notdef
Encoding: 65536 -1 0
Width: 1536
Flags: MW
LayerCount: 2
Back
Fore
SplineSet
164 102 m 1,0,-1
 860 102 l 1,1,-1
 512 625 l 1,2,-1
 164 102 l 1,0,-1
573 717 m 1,3,-1
 922 195 l 1,4,-1
 922 1239 l 1,5,-1
 573 717 l 1,3,-1
102 1239 m 1,6,-1
 102 195 l 1,7,-1
 451 717 l 1,8,-1
 102 1239 l 1,6,-1
512 809 m 1,9,-1
 860 1331 l 1,10,-1
 164 1331 l 1,11,-1
 512 809 l 1,9,-1
1024 0 m 1,12,-1
 0 0 l 1,13,-1
 0 1434 l 1,14,-1
 1024 1434 l 1,15,-1
 1024 0 l 1,12,-1
EndSplineSet
Validated: 1
EndChar

StartChar: A
Encoding: 65 65 1
Width: 1593
Flags: MW
LayerCount: 2
Back
Fore
SplineSet
637 514 m 1,0,-1
 942 514 l 1,1,-1
 795 1016 l 1,2,-1
 786 1016 l 1,3,-1
 637 514 l 1,0,-1
1096 0 m 1,4,-1
 1036 199 l 1,5,-1
 543 199 l 1,6,-1
 483 0 l 1,7,-1
 20 0 l 1,8,-1
 535 1409 l 1,9,-1
 1061 1409 l 1,10,-1
 1575 0 l 1,11,-1
 1096 0 l 1,4,-1
EndSplineSet
Validated: 1
EndChar

StartChar: Aacute
Encoding: 193 193 2
Width: 1593
Flags: MW
LayerCount: 2
Back
Fore
SplineSet
942 514 m 1,0,-1
 795 1016 l 1,1,-1
 786 1016 l 1,2,-1
 637 514 l 1,3,-1
 942 514 l 1,0,-1
1036 199 m 1,4,-1
 543 199 l 1,5,-1
 483 0 l 1,6,-1
 20 0 l 1,7,-1
 535 1409 l 1,8,-1
 1061 1409 l 1,9,-1
 1575 0 l 1,10,-1
 1096 0 l 1,11,-1
 1036 199 l 1,4,-1
600 1540 m 1,12,-1
 788 1812 l 1,13,-1
 1184 1812 l 1,14,-1
 1188 1804 l 1,15,-1
 860 1540 l 1,16,-1
 600 1540 l 1,12,-1
EndSplineSet
Validated: 1
EndChar

StartChar: Abreve
Encoding: 258 258 3
Width: 1593
Flags: MW
LayerCount: 2
Back
Fore
SplineSet
637 514 m 1,0,-1
 942 514 l 1,1,-1
 795 1016 l 1,2,-1
 786 1016 l 1,3,-1
 637 514 l 1,0,-1
1096 0 m 1,4,-1
 1036 199 l 1,5,-1
 543 199 l 1,6,-1
 483 0 l 1,7,-1
 20 0 l 1,8,-1
 535 1409 l 1,9,-1
 1061 1409 l 1,10,-1
 1575 0 l 1,11,-1
 1096 0 l 1,4,-1
1176 1812 m 1,12,13
 1176 1702 1176 1702 1068.5 1610 c 128,-1,14
 961 1518 961 1518 797 1518 c 0,15,16
 711 1518 711 1518 638 1544.5 c 128,-1,17
 565 1571 565 1571 518.5 1613.5 c 128,-1,18
 472 1656 472 1656 446 1708 c 128,-1,19
 420 1760 420 1760 420 1812 c 1,20,-1
 616 1812 l 1,21,22
 623 1776 623 1776 675 1743 c 128,-1,23
 727 1710 727 1710 797 1710 c 128,-1,24
 867 1710 867 1710 920.5 1743 c 128,-1,25
 974 1776 974 1776 981 1812 c 1,26,-1
 1176 1812 l 1,12,13
EndSplineSet
Validated: 1
EndChar

StartChar: Acircumflex
Encoding: 194 194 4
Width: 1593
Flags: MW
LayerCount: 2
Back
Fore
SplineSet
637 514 m 1,0,-1
 942 514 l 1,1,-1
 795 1016 l 1,2,-1
 786 1016 l 1,3,-1
 637 514 l 1,0,-1
1096 0 m 1,4,-1
 1036 199 l 1,5,-1
 543 199 l 1,6,-1
 483 0 l 1,7,-1
 20 0 l 1,8,-1
 535 1409 l 1,9,-1
 1061 1409 l 1,10,-1
 1575 0 l 1,11,-1
 1096 0 l 1,4,-1
946 1516 m 1,12,-1
 795 1673 l 1,13,-1
 643 1516 l 1,14,-1
 381 1516 l 1,15,-1
 666 1812 l 1,16,-1
 928 1812 l 1,17,-1
 1212 1516 l 1,18,-1
 946 1516 l 1,12,-1
EndSplineSet
Validated: 1
EndChar

StartChar: Adieresis
Encoding: 196 196 5
Width: 1593
Flags: MW
LayerCount: 2
Back
Fore
SplineSet
637 514 m 1,0,-1
 942 514 l 1,1,-1
 795 1016 l 1,2,-1
 786 1016 l 1,3,-1
 637 514 l 1,0,-1
1096 0 m 1,4,-1
 1036 199 l 1,5,-1
 543 199 l 1,6,-1
 483 0 l 1,7,-1
 20 0 l 1,8,-1
 535 1409 l 1,9,-1
 1061 1409 l 1,10,-1
 1575 0 l 1,11,-1
 1096 0 l 1,4,-1
866 1528 m 1,12,-1
 866 1812 l 1,13,-1
 1178 1812 l 1,14,-1
 1178 1528 l 1,15,-1
 866 1528 l 1,12,-1
416 1528 m 1,16,-1
 416 1812 l 1,17,-1
 727 1812 l 1,18,-1
 727 1528 l 1,19,-1
 416 1528 l 1,16,-1
EndSplineSet
Validated: 1
EndChar

StartChar: Agrave
Encoding: 192 192 6
Width: 1593
Flags: MW
LayerCount: 2
Back
Fore
SplineSet
942 514 m 1,0,-1
 795 1016 l 1,1,-1
 786 1016 l 1,2,-1
 637 514 l 1,3,-1
 942 514 l 1,0,-1
1036 199 m 1,4,-1
 543 199 l 1,5,-1
 483 0 l 1,6,-1
 20 0 l 1,7,-1
 535 1409 l 1,8,-1
 1061 1409 l 1,9,-1
 1575 0 l 1,10,-1
 1096 0 l 1,11,-1
 1036 199 l 1,4,-1
406 1804 m 1,12,-1
 410 1812 l 1,13,-1
 805 1812 l 1,14,-1
 993 1540 l 1,15,-1
 733 1540 l 1,16,-1
 406 1804 l 1,12,-1
EndSplineSet
Validated: 1
EndChar

StartChar: Amacron
Encoding: 256 256 7
Width: 1593
Flags: MW
LayerCount: 2
Back
Fore
SplineSet
637 514 m 1,0,-1
 942 514 l 1,1,-1
 795 1016 l 1,2,-1
 786 1016 l 1,3,-1
 637 514 l 1,0,-1
1096 0 m 1,4,-1
 1036 199 l 1,5,-1
 543 199 l 1,6,-1
 483 0 l 1,7,-1
 20 0 l 1,8,-1
 535 1409 l 1,9,-1
 1061 1409 l 1,10,-1
 1575 0 l 1,11,-1
 1096 0 l 1,4,-1
473 1567 m 1,12,-1
 473 1772 l 1,13,-1
 1120 1772 l 1,14,-1
 1120 1567 l 1,15,-1
 473 1567 l 1,12,-1
EndSplineSet
Validated: 1
EndChar

StartChar: Aogonek
Encoding: 260 260 8
Width: 1593
Flags: MW
LayerCount: 2
Back
Fore
SplineSet
637 514 m 1,0,-1
 942 514 l 1,1,-1
 795 1016 l 1,2,-1
 786 1016 l 1,3,-1
 637 514 l 1,0,-1
1309 0 m 1,4,5
 1276 -68 1276 -68 1276 -141 c 0,6,7
 1276 -186 1276 -186 1305.5 -216 c 128,-1,8
 1335 -246 1335 -246 1399 -246 c 2,9,-1
 1485 -246 l 1,10,-1
 1485 -401 l 1,11,12
 1387 -432 1387 -432 1288 -432 c 0,13,14
 1178 -432 1178 -432 1103 -374.5 c 128,-1,15
 1028 -317 1028 -317 1028 -199 c 0,16,17
 1028 -102 1028 -102 1110 0 c 1,18,-1
 1096 0 l 1,19,-1
 1036 199 l 1,20,-1
 543 199 l 1,21,-1
 483 0 l 1,22,-1
 20 0 l 1,23,-1
 535 1409 l 1,24,-1
 1061 1409 l 1,25,-1
 1575 0 l 1,26,-1
 1309 0 l 1,4,5
EndSplineSet
Validated: 1
EndChar

StartChar: Aring
Encoding: 197 197 9
Width: 1593
Flags: MW
LayerCount: 2
Back
Fore
SplineSet
637 514 m 1,0,-1
 942 514 l 1,1,-1
 795 1016 l 1,2,-1
 786 1016 l 1,3,-1
 637 514 l 1,0,-1
1096 0 m 1,4,-1
 1036 199 l 1,5,-1
 543 199 l 1,6,-1
 483 0 l 1,7,-1
 20 0 l 1,8,-1
 535 1409 l 1,9,-1
 1061 1409 l 1,10,-1
 1575 0 l 1,11,-1
 1096 0 l 1,4,-1
797 1812 m 0,12,13
 760 1812 760 1812 737.5 1789 c 128,-1,14
 715 1766 715 1766 715 1729 c 0,15,16
 715 1694 715 1694 738.5 1671.5 c 128,-1,17
 762 1649 762 1649 797 1649 c 0,18,19
 834 1649 834 1649 856.5 1672.5 c 128,-1,20
 879 1696 879 1696 879 1733 c 0,21,22
 879 1768 879 1768 856 1790 c 128,-1,23
 833 1812 833 1812 797 1812 c 0,12,13
797 1954 m 0,24,25
 888 1954 888 1954 954 1889 c 128,-1,26
 1020 1824 1020 1824 1020 1731 c 0,27,28
 1020 1640 1020 1640 954.5 1574.5 c 128,-1,29
 889 1509 889 1509 797 1509 c 0,30,31
 706 1509 706 1509 639.5 1574 c 128,-1,32
 573 1639 573 1639 573 1731 c 128,-1,33
 573 1823 573 1823 639 1888.5 c 128,-1,34
 705 1954 705 1954 797 1954 c 0,24,25
EndSplineSet
Validated: 1
EndChar

StartChar: Aringacute
Encoding: 506 506 10
Width: 1593
Flags: MW
LayerCount: 2
Back
Fore
SplineSet
637 514 m 1,0,-1
 942 514 l 1,1,-1
 795 1016 l 1,2,-1
 786 1016 l 1,3,-1
 637 514 l 1,0,-1
799 1573 m 0,4,5
 762 1573 762 1573 739.5 1549.5 c 128,-1,6
 717 1526 717 1526 717 1489 c 0,7,8
 717 1454 717 1454 740.5 1431.5 c 128,-1,9
 764 1409 764 1409 799 1409 c 0,10,11
 836 1409 836 1409 858.5 1432.5 c 128,-1,12
 881 1456 881 1456 881 1493 c 0,13,14
 881 1528 881 1528 857.5 1550.5 c 128,-1,15
 834 1573 834 1573 799 1573 c 0,4,5
1096 0 m 1,16,-1
 1036 199 l 1,17,-1
 543 199 l 1,18,-1
 483 0 l 1,19,-1
 20 0 l 1,20,-1
 535 1409 l 1,21,-1
 590 1409 l 1,22,23
 575 1446 575 1446 575 1491 c 0,24,25
 575 1587 575 1587 638.5 1640.5 c 128,-1,26
 702 1694 702 1694 799 1694 c 0,27,28
 895 1694 895 1694 958.5 1641 c 128,-1,29
 1022 1588 1022 1588 1022 1491 c 0,30,31
 1022 1449 1022 1449 1006 1409 c 1,32,-1
 1061 1409 l 1,33,-1
 1575 0 l 1,34,-1
 1096 0 l 1,16,-1
918 1745 m 1,35,-1
 657 1745 l 1,36,-1
 815 1960 l 1,37,-1
 1188 1960 l 1,38,-1
 1192 1952 l 1,39,-1
 918 1745 l 1,35,-1
EndSplineSet
Validated: 1
EndChar

StartChar: Atilde
Encoding: 195 195 11
Width: 1593
Flags: MW
LayerCount: 2
Back
Fore
SplineSet
637 514 m 1,0,-1
 942 514 l 1,1,-1
 795 1016 l 1,2,-1
 786 1016 l 1,3,-1
 637 514 l 1,0,-1
1096 0 m 1,4,-1
 1036 199 l 1,5,-1
 543 199 l 1,6,-1
 483 0 l 1,7,-1
 20 0 l 1,8,-1
 535 1409 l 1,9,-1
 1061 1409 l 1,10,-1
 1575 0 l 1,11,-1
 1096 0 l 1,4,-1
1251 1812 m 1,12,13
 1251 1697 1251 1697 1170 1608.5 c 128,-1,14
 1089 1520 1089 1520 965 1520 c 0,15,16
 897 1520 897 1520 780 1561 c 128,-1,17
 663 1602 663 1602 610 1602 c 0,18,19
 573 1602 573 1602 546 1579.5 c 128,-1,20
 519 1557 519 1557 508 1520 c 1,21,-1
 342 1520 l 1,22,23
 342 1635 342 1635 423.5 1723.5 c 128,-1,24
 505 1812 505 1812 629 1812 c 0,25,26
 697 1812 697 1812 813.5 1771.5 c 128,-1,27
 930 1731 930 1731 983 1731 c 0,28,29
 1020 1731 1020 1731 1047 1753.5 c 128,-1,30
 1074 1776 1074 1776 1085 1812 c 1,31,-1
 1251 1812 l 1,12,13
EndSplineSet
Validated: 1
EndChar

StartChar: AE
Encoding: 198 198 12
Width: 2048
Flags: MW
LayerCount: 2
Back
Fore
SplineSet
911 514 m 1,0,-1
 801 1016 l 1,1,-1
 793 1016 l 1,2,-1
 614 514 l 1,3,-1
 911 514 l 1,0,-1
502 199 m 1,4,-1
 432 0 l 1,5,-1
 -31 0 l 1,6,-1
 565 1409 l 1,7,-1
 1956 1409 l 1,8,-1
 1956 1071 l 1,9,-1
 1208 1071 l 1,10,-1
 1253 877 l 1,11,-1
 1841 877 l 1,12,-1
 1841 553 l 1,13,-1
 1329 553 l 1,14,-1
 1378 338 l 1,15,-1
 1970 338 l 1,16,-1
 1970 0 l 1,17,-1
 1026 0 l 1,18,-1
 981 199 l 1,19,-1
 502 199 l 1,4,-1
EndSplineSet
Validated: 1
EndChar

StartChar: AEacute
Encoding: 508 508 13
Width: 2048
Flags: MW
LayerCount: 2
Back
Fore
SplineSet
911 514 m 1,0,-1
 801 1016 l 1,1,-1
 793 1016 l 1,2,-1
 614 514 l 1,3,-1
 911 514 l 1,0,-1
502 199 m 1,4,-1
 432 0 l 1,5,-1
 -31 0 l 1,6,-1
 565 1409 l 1,7,-1
 1956 1409 l 1,8,-1
 1956 1071 l 1,9,-1
 1208 1071 l 1,10,-1
 1253 877 l 1,11,-1
 1841 877 l 1,12,-1
 1841 553 l 1,13,-1
 1329 553 l 1,14,-1
 1378 338 l 1,15,-1
 1970 338 l 1,16,-1
 1970 0 l 1,17,-1
 1026 0 l 1,18,-1
 981 199 l 1,19,-1
 502 199 l 1,4,-1
965 1540 m 1,20,-1
 1153 1812 l 1,21,-1
 1548 1812 l 1,22,-1
 1552 1804 l 1,23,-1
 1225 1540 l 1,24,-1
 965 1540 l 1,20,-1
EndSplineSet
Validated: 1
EndChar

StartChar: B
Encoding: 66 66 14
Width: 1593
Flags: MW
LayerCount: 2
Back
Fore
SplineSet
604 328 m 1,0,-1
 948 328 l 2,1,2
 992 328 992 328 1022.5 359.5 c 128,-1,3
 1053 391 1053 391 1053 438 c 2,4,-1
 1053 459 l 2,5,6
 1053 505 1053 505 1022.5 537 c 128,-1,7
 992 569 992 569 948 569 c 2,8,-1
 604 569 l 1,9,-1
 604 328 l 1,0,-1
604 860 m 1,10,-1
 915 860 l 2,11,12
 959 860 959 860 989.5 892.5 c 128,-1,13
 1020 925 1020 925 1020 971 c 2,14,-1
 1020 991 l 2,15,16
 1020 1035 1020 1035 989 1067.5 c 128,-1,17
 958 1100 958 1100 915 1100 c 2,18,-1
 604 1100 l 1,19,-1
 604 860 l 1,10,-1
1090 1409 m 2,20,21
 1252 1409 1252 1409 1365.5 1311 c 128,-1,22
 1479 1213 1479 1213 1479 1063 c 0,23,24
 1479 804 1479 804 1243 735 c 1,25,-1
 1243 727 l 1,26,27
 1511 666 1511 666 1511 375 c 0,28,29
 1511 209 1511 209 1393.5 104.5 c 128,-1,30
 1276 0 1276 0 1102 0 c 2,31,-1
 152 0 l 1,32,-1
 152 1409 l 1,33,-1
 1090 1409 l 2,20,21
EndSplineSet
Validated: 1
EndChar

StartChar: C
Encoding: 67 67 15
Width: 1593
Flags: MW
LayerCount: 2
Back
Fore
SplineSet
1501 571 m 1,0,1
 1501 282 1501 282 1324 128.5 c 128,-1,2
 1147 -25 1147 -25 823 -25 c 0,3,4
 462 -25 462 -25 277 159.5 c 128,-1,5
 92 344 92 344 92 705 c 128,-1,6
 92 1066 92 1066 277 1250 c 128,-1,7
 462 1434 462 1434 823 1434 c 0,8,9
 1136 1434 1136 1434 1318.5 1276.5 c 128,-1,10
 1501 1119 1501 1119 1501 829 c 1,11,-1
 1069 829 l 1,12,13
 1069 953 1069 953 1004.5 1024.5 c 128,-1,14
 940 1096 940 1096 821 1096 c 0,15,16
 555 1096 555 1096 555 770 c 2,17,-1
 555 639 l 2,18,19
 555 487 555 487 619.5 400 c 128,-1,20
 684 313 684 313 817 313 c 0,21,22
 948 313 948 313 1015.5 380.5 c 128,-1,23
 1083 448 1083 448 1083 571 c 1,24,-1
 1501 571 l 1,0,1
EndSplineSet
Validated: 1
EndChar

StartChar: Cacute
Encoding: 262 262 16
Width: 1593
Flags: MW
LayerCount: 2
Back
Fore
SplineSet
1501 571 m 1,0,1
 1501 282 1501 282 1324 128.5 c 128,-1,2
 1147 -25 1147 -25 823 -25 c 0,3,4
 462 -25 462 -25 277 159.5 c 128,-1,5
 92 344 92 344 92 705 c 128,-1,6
 92 1066 92 1066 277 1250 c 128,-1,7
 462 1434 462 1434 823 1434 c 0,8,9
 1136 1434 1136 1434 1318.5 1276.5 c 128,-1,10
 1501 1119 1501 1119 1501 829 c 1,11,-1
 1069 829 l 1,12,13
 1069 953 1069 953 1004.5 1024.5 c 128,-1,14
 940 1096 940 1096 821 1096 c 0,15,16
 555 1096 555 1096 555 770 c 2,17,-1
 555 639 l 2,18,19
 555 487 555 487 619.5 400 c 128,-1,20
 684 313 684 313 817 313 c 0,21,22
 948 313 948 313 1015.5 380.5 c 128,-1,23
 1083 448 1083 448 1083 571 c 1,24,-1
 1501 571 l 1,0,1
621 1540 m 1,25,-1
 811 1812 l 1,26,-1
 1204 1812 l 1,27,-1
 1208 1804 l 1,28,-1
 883 1540 l 1,29,-1
 621 1540 l 1,25,-1
EndSplineSet
Validated: 1
EndChar

StartChar: Ccaron
Encoding: 268 268 17
Width: 1593
Flags: MW
LayerCount: 2
Back
Fore
SplineSet
1501 571 m 1,0,1
 1501 282 1501 282 1324 128.5 c 128,-1,2
 1147 -25 1147 -25 823 -25 c 0,3,4
 462 -25 462 -25 277 159.5 c 128,-1,5
 92 344 92 344 92 705 c 128,-1,6
 92 1066 92 1066 277 1250 c 128,-1,7
 462 1434 462 1434 823 1434 c 0,8,9
 1136 1434 1136 1434 1318.5 1276.5 c 128,-1,10
 1501 1119 1501 1119 1501 829 c 1,11,-1
 1069 829 l 1,12,13
 1069 953 1069 953 1004.5 1024.5 c 128,-1,14
 940 1096 940 1096 821 1096 c 0,15,16
 555 1096 555 1096 555 770 c 2,17,-1
 555 639 l 2,18,19
 555 487 555 487 619.5 400 c 128,-1,20
 684 313 684 313 817 313 c 0,21,22
 948 313 948 313 1015.5 380.5 c 128,-1,23
 1083 448 1083 448 1083 571 c 1,24,-1
 1501 571 l 1,0,1
666 1516 m 1,25,-1
 381 1812 l 1,26,-1
 643 1812 l 1,27,-1
 795 1655 l 1,28,-1
 946 1812 l 1,29,-1
 1212 1812 l 1,30,-1
 928 1516 l 1,31,-1
 666 1516 l 1,25,-1
EndSplineSet
Validated: 1
EndChar

StartChar: Ccedilla
Encoding: 199 199 18
Width: 1593
Flags: MW
LayerCount: 2
Back
Fore
SplineSet
735 -23 m 1,0,1
 417 -1 417 -1 254.5 183 c 128,-1,2
 92 367 92 367 92 705 c 0,3,4
 92 1066 92 1066 277 1250 c 128,-1,5
 462 1434 462 1434 823 1434 c 0,6,7
 1136 1434 1136 1434 1318.5 1276.5 c 128,-1,8
 1501 1119 1501 1119 1501 829 c 1,9,-1
 1069 829 l 1,10,11
 1069 953 1069 953 1004.5 1024.5 c 128,-1,12
 940 1096 940 1096 821 1096 c 0,13,14
 555 1096 555 1096 555 770 c 2,15,-1
 555 639 l 2,16,17
 555 487 555 487 619.5 400 c 128,-1,18
 684 313 684 313 817 313 c 0,19,20
 948 313 948 313 1015.5 380.5 c 128,-1,21
 1083 448 1083 448 1083 571 c 1,22,-1
 1501 571 l 1,23,24
 1501 291 1501 291 1334.5 137.5 c 128,-1,25
 1168 -16 1168 -16 862 -25 c 1,26,-1
 856 -59 l 1,27,28
 941 -67 941 -67 994 -110.5 c 128,-1,29
 1047 -154 1047 -154 1047 -242 c 0,30,31
 1047 -297 1047 -297 1023 -337 c 128,-1,32
 999 -377 999 -377 960 -396 c 128,-1,33
 921 -415 921 -415 883 -423.5 c 128,-1,34
 845 -432 845 -432 805 -432 c 0,35,36
 644 -432 644 -432 547 -399 c 1,37,-1
 547 -289 l 1,38,39
 680 -305 680 -305 786 -305 c 0,40,41
 868 -305 868 -305 868 -242 c 0,42,43
 868 -209 868 -209 850.5 -192.5 c 128,-1,44
 833 -176 833 -176 791 -176 c 2,45,-1
 713 -176 l 1,46,-1
 735 -23 l 1,0,1
EndSplineSet
Validated: 1
EndChar

StartChar: Ccircumflex
Encoding: 264 264 19
Width: 1593
Flags: MW
LayerCount: 2
Back
Fore
SplineSet
1501 571 m 1,0,1
 1501 282 1501 282 1324 128.5 c 128,-1,2
 1147 -25 1147 -25 823 -25 c 0,3,4
 462 -25 462 -25 277 159.5 c 128,-1,5
 92 344 92 344 92 705 c 128,-1,6
 92 1066 92 1066 277 1250 c 128,-1,7
 462 1434 462 1434 823 1434 c 0,8,9
 1136 1434 1136 1434 1318.5 1276.5 c 128,-1,10
 1501 1119 1501 1119 1501 829 c 1,11,-1
 1069 829 l 1,12,13
 1069 953 1069 953 1004.5 1024.5 c 128,-1,14
 940 1096 940 1096 821 1096 c 0,15,16
 555 1096 555 1096 555 770 c 2,17,-1
 555 639 l 2,18,19
 555 487 555 487 619.5 400 c 128,-1,20
 684 313 684 313 817 313 c 0,21,22
 948 313 948 313 1015.5 380.5 c 128,-1,23
 1083 448 1083 448 1083 571 c 1,24,-1
 1501 571 l 1,0,1
946 1516 m 1,25,-1
 795 1673 l 1,26,-1
 643 1516 l 1,27,-1
 381 1516 l 1,28,-1
 666 1812 l 1,29,-1
 928 1812 l 1,30,-1
 1212 1516 l 1,31,-1
 946 1516 l 1,25,-1
EndSplineSet
Validated: 1
EndChar

StartChar: Cdotaccent
Encoding: 266 266 20
Width: 1593
Flags: MW
LayerCount: 2
Back
Fore
SplineSet
1501 571 m 1,0,1
 1501 282 1501 282 1324 128.5 c 128,-1,2
 1147 -25 1147 -25 823 -25 c 0,3,4
 462 -25 462 -25 277 159.5 c 128,-1,5
 92 344 92 344 92 705 c 128,-1,6
 92 1066 92 1066 277 1250 c 128,-1,7
 462 1434 462 1434 823 1434 c 0,8,9
 1136 1434 1136 1434 1318.5 1276.5 c 128,-1,10
 1501 1119 1501 1119 1501 829 c 1,11,-1
 1069 829 l 1,12,13
 1069 953 1069 953 1004.5 1024.5 c 128,-1,14
 940 1096 940 1096 821 1096 c 0,15,16
 555 1096 555 1096 555 770 c 2,17,-1
 555 639 l 2,18,19
 555 487 555 487 619.5 400 c 128,-1,20
 684 313 684 313 817 313 c 0,21,22
 948 313 948 313 1015.5 380.5 c 128,-1,23
 1083 448 1083 448 1083 571 c 1,24,-1
 1501 571 l 1,0,1
641 1528 m 1,25,-1
 641 1812 l 1,26,-1
 952 1812 l 1,27,-1
 952 1528 l 1,28,-1
 641 1528 l 1,25,-1
EndSplineSet
Validated: 1
EndChar

StartChar: D
Encoding: 68 68 21
Width: 1593
Flags: MW
LayerCount: 2
Back
Fore
SplineSet
604 338 m 1,0,-1
 754 338 l 2,1,2
 1038 338 1038 338 1038 643 c 2,3,-1
 1038 766 l 2,4,5
 1038 1071 1038 1071 754 1071 c 2,6,-1
 604 1071 l 1,7,-1
 604 338 l 1,0,-1
762 1409 m 2,8,9
 1501 1409 1501 1409 1501 705 c 0,10,11
 1501 0 1501 0 762 0 c 2,12,-1
 152 0 l 1,13,-1
 152 1409 l 1,14,-1
 762 1409 l 2,8,9
EndSplineSet
Validated: 1
EndChar

StartChar: Eth
Encoding: 208 208 22
Width: 1593
Flags: MW
LayerCount: 2
Back
Fore
SplineSet
604 338 m 1,0,-1
 754 338 l 2,1,2
 1038 338 1038 338 1038 643 c 2,3,-1
 1038 766 l 2,4,5
 1038 1071 1038 1071 754 1071 c 2,6,-1
 604 1071 l 1,7,-1
 604 823 l 1,8,-1
 803 823 l 1,9,-1
 803 623 l 1,10,-1
 604 623 l 1,11,-1
 604 338 l 1,0,-1
152 823 m 1,12,-1
 152 1409 l 1,13,-1
 762 1409 l 2,14,15
 1501 1409 1501 1409 1501 705 c 0,16,17
 1501 0 1501 0 762 0 c 2,18,-1
 152 0 l 1,19,-1
 152 623 l 1,20,-1
 2 623 l 1,21,-1
 2 823 l 1,22,-1
 152 823 l 1,12,-1
EndSplineSet
Validated: 1
EndChar

StartChar: Dcaron
Encoding: 270 270 23
Width: 1593
Flags: MW
LayerCount: 2
Back
Fore
SplineSet
604 338 m 1,0,-1
 754 338 l 2,1,2
 1038 338 1038 338 1038 643 c 2,3,-1
 1038 766 l 2,4,5
 1038 1071 1038 1071 754 1071 c 2,6,-1
 604 1071 l 1,7,-1
 604 338 l 1,0,-1
762 1409 m 2,8,9
 1501 1409 1501 1409 1501 705 c 0,10,11
 1501 0 1501 0 762 0 c 2,12,-1
 152 0 l 1,13,-1
 152 1409 l 1,14,-1
 762 1409 l 2,8,9
592 1516 m 1,15,-1
 305 1812 l 1,16,-1
 567 1812 l 1,17,-1
 721 1655 l 1,18,-1
 872 1812 l 1,19,-1
 1139 1812 l 1,20,-1
 854 1516 l 1,21,-1
 592 1516 l 1,15,-1
EndSplineSet
Validated: 1
EndChar

StartChar: Dcroat
Encoding: 272 272 24
Width: 1593
Flags: MW
LayerCount: 2
Back
Fore
SplineSet
604 338 m 1,0,-1
 754 338 l 2,1,2
 1038 338 1038 338 1038 643 c 2,3,-1
 1038 766 l 2,4,5
 1038 1071 1038 1071 754 1071 c 2,6,-1
 604 1071 l 1,7,-1
 604 823 l 1,8,-1
 803 823 l 1,9,-1
 803 623 l 1,10,-1
 604 623 l 1,11,-1
 604 338 l 1,0,-1
152 823 m 1,12,-1
 152 1409 l 1,13,-1
 762 1409 l 2,14,15
 1501 1409 1501 1409 1501 705 c 0,16,17
 1501 0 1501 0 762 0 c 2,18,-1
 152 0 l 1,19,-1
 152 623 l 1,20,-1
 2 623 l 1,21,-1
 2 823 l 1,22,-1
 152 823 l 1,12,-1
EndSplineSet
Validated: 1
EndChar

StartChar: E
Encoding: 69 69 25
Width: 1478
Flags: MW
LayerCount: 2
Back
Fore
SplineSet
152 1409 m 1,0,-1
 1370 1409 l 1,1,-1
 1370 1071 l 1,2,-1
 604 1071 l 1,3,-1
 604 877 l 1,4,-1
 1260 877 l 1,5,-1
 1260 553 l 1,6,-1
 604 553 l 1,7,-1
 604 338 l 1,8,-1
 1384 338 l 1,9,-1
 1384 0 l 1,10,-1
 152 0 l 1,11,-1
 152 1409 l 1,0,-1
EndSplineSet
Validated: 1
EndChar

StartChar: Eacute
Encoding: 201 201 26
Width: 1478
Flags: MW
LayerCount: 2
Back
Fore
SplineSet
152 1409 m 1,0,-1
 1370 1409 l 1,1,-1
 1370 1071 l 1,2,-1
 604 1071 l 1,3,-1
 604 877 l 1,4,-1
 1260 877 l 1,5,-1
 1260 553 l 1,6,-1
 604 553 l 1,7,-1
 604 338 l 1,8,-1
 1384 338 l 1,9,-1
 1384 0 l 1,10,-1
 152 0 l 1,11,-1
 152 1409 l 1,0,-1
594 1540 m 1,12,-1
 782 1812 l 1,13,-1
 1178 1812 l 1,14,-1
 1182 1804 l 1,15,-1
 854 1540 l 1,16,-1
 594 1540 l 1,12,-1
EndSplineSet
Validated: 1
EndChar

StartChar: Ebreve
Encoding: 276 276 27
Width: 1478
Flags: MW
LayerCount: 2
Back
Fore
SplineSet
152 1409 m 1,0,-1
 1370 1409 l 1,1,-1
 1370 1071 l 1,2,-1
 604 1071 l 1,3,-1
 604 877 l 1,4,-1
 1260 877 l 1,5,-1
 1260 553 l 1,6,-1
 604 553 l 1,7,-1
 604 338 l 1,8,-1
 1384 338 l 1,9,-1
 1384 0 l 1,10,-1
 152 0 l 1,11,-1
 152 1409 l 1,0,-1
1167 1812 m 1,12,13
 1167 1760 1167 1760 1140 1708 c 128,-1,14
 1113 1656 1113 1656 1065.5 1613.5 c 128,-1,15
 1018 1571 1018 1571 945 1544.5 c 128,-1,16
 872 1518 872 1518 788 1518 c 0,17,18
 621 1518 621 1518 516.5 1609.5 c 128,-1,19
 412 1701 412 1701 412 1812 c 1,20,-1
 608 1812 l 1,21,22
 615 1776 615 1776 666.5 1743 c 128,-1,23
 718 1710 718 1710 788 1710 c 0,24,25
 859 1710 859 1710 912.5 1743 c 128,-1,26
 966 1776 966 1776 973 1812 c 1,27,-1
 1167 1812 l 1,12,13
EndSplineSet
Validated: 1
EndChar

StartChar: Ecaron
Encoding: 282 282 28
Width: 1478
Flags: MW
LayerCount: 2
Back
Fore
SplineSet
152 1409 m 1,0,-1
 1370 1409 l 1,1,-1
 1370 1071 l 1,2,-1
 604 1071 l 1,3,-1
 604 877 l 1,4,-1
 1260 877 l 1,5,-1
 1260 553 l 1,6,-1
 604 553 l 1,7,-1
 604 338 l 1,8,-1
 1384 338 l 1,9,-1
 1384 0 l 1,10,-1
 152 0 l 1,11,-1
 152 1409 l 1,0,-1
659 1516 m 1,12,-1
 375 1812 l 1,13,-1
 637 1812 l 1,14,-1
 788 1655 l 1,15,-1
 940 1812 l 1,16,-1
 1206 1812 l 1,17,-1
 922 1516 l 1,18,-1
 659 1516 l 1,12,-1
EndSplineSet
Validated: 1
EndChar

StartChar: Ecircumflex
Encoding: 202 202 29
Width: 1478
Flags: MW
LayerCount: 2
Back
Fore
SplineSet
152 1409 m 1,0,-1
 1370 1409 l 1,1,-1
 1370 1071 l 1,2,-1
 604 1071 l 1,3,-1
 604 877 l 1,4,-1
 1260 877 l 1,5,-1
 1260 553 l 1,6,-1
 604 553 l 1,7,-1
 604 338 l 1,8,-1
 1384 338 l 1,9,-1
 1384 0 l 1,10,-1
 152 0 l 1,11,-1
 152 1409 l 1,0,-1
940 1516 m 1,12,-1
 788 1673 l 1,13,-1
 637 1516 l 1,14,-1
 375 1516 l 1,15,-1
 659 1812 l 1,16,-1
 922 1812 l 1,17,-1
 1206 1516 l 1,18,-1
 940 1516 l 1,12,-1
EndSplineSet
Validated: 1
EndChar

StartChar: Edieresis
Encoding: 203 203 30
Width: 1478
Flags: MW
LayerCount: 2
Back
Fore
SplineSet
152 1409 m 1,0,-1
 1370 1409 l 1,1,-1
 1370 1071 l 1,2,-1
 604 1071 l 1,3,-1
 604 877 l 1,4,-1
 1260 877 l 1,5,-1
 1260 553 l 1,6,-1
 604 553 l 1,7,-1
 604 338 l 1,8,-1
 1384 338 l 1,9,-1
 1384 0 l 1,10,-1
 152 0 l 1,11,-1
 152 1409 l 1,0,-1
860 1528 m 1,12,-1
 860 1812 l 1,13,-1
 1171 1812 l 1,14,-1
 1171 1528 l 1,15,-1
 860 1528 l 1,12,-1
410 1528 m 1,16,-1
 410 1812 l 1,17,-1
 721 1812 l 1,18,-1
 721 1528 l 1,19,-1
 410 1528 l 1,16,-1
EndSplineSet
Validated: 1
EndChar

StartChar: Edotaccent
Encoding: 278 278 31
Width: 1478
Flags: MW
LayerCount: 2
Back
Fore
SplineSet
152 1409 m 1,0,-1
 1370 1409 l 1,1,-1
 1370 1071 l 1,2,-1
 604 1071 l 1,3,-1
 604 877 l 1,4,-1
 1260 877 l 1,5,-1
 1260 553 l 1,6,-1
 604 553 l 1,7,-1
 604 338 l 1,8,-1
 1384 338 l 1,9,-1
 1384 0 l 1,10,-1
 152 0 l 1,11,-1
 152 1409 l 1,0,-1
635 1528 m 1,12,-1
 635 1812 l 1,13,-1
 946 1812 l 1,14,-1
 946 1528 l 1,15,-1
 635 1528 l 1,12,-1
EndSplineSet
Validated: 1
EndChar

StartChar: Egrave
Encoding: 200 200 32
Width: 1478
Flags: MW
LayerCount: 2
Back
Fore
SplineSet
152 1409 m 1,0,-1
 1370 1409 l 1,1,-1
 1370 1071 l 1,2,-1
 604 1071 l 1,3,-1
 604 877 l 1,4,-1
 1260 877 l 1,5,-1
 1260 553 l 1,6,-1
 604 553 l 1,7,-1
 604 338 l 1,8,-1
 1384 338 l 1,9,-1
 1384 0 l 1,10,-1
 152 0 l 1,11,-1
 152 1409 l 1,0,-1
399 1804 m 1,12,-1
 403 1812 l 1,13,-1
 799 1812 l 1,14,-1
 987 1540 l 1,15,-1
 727 1540 l 1,16,-1
 399 1804 l 1,12,-1
EndSplineSet
Validated: 1
EndChar

StartChar: Emacron
Encoding: 274 274 33
Width: 1478
Flags: MW
LayerCount: 2
Back
Fore
SplineSet
152 1409 m 1,0,-1
 1370 1409 l 1,1,-1
 1370 1071 l 1,2,-1
 604 1071 l 1,3,-1
 604 877 l 1,4,-1
 1260 877 l 1,5,-1
 1260 553 l 1,6,-1
 604 553 l 1,7,-1
 604 338 l 1,8,-1
 1384 338 l 1,9,-1
 1384 0 l 1,10,-1
 152 0 l 1,11,-1
 152 1409 l 1,0,-1
467 1567 m 1,12,-1
 467 1772 l 1,13,-1
 1114 1772 l 1,14,-1
 1114 1567 l 1,15,-1
 467 1567 l 1,12,-1
EndSplineSet
Validated: 1
EndChar

StartChar: Eogonek
Encoding: 280 280 34
Width: 1478
Flags: MW
LayerCount: 2
Back
Fore
SplineSet
604 1071 m 1,0,-1
 604 877 l 1,1,-1
 1260 877 l 1,2,-1
 1260 553 l 1,3,-1
 604 553 l 1,4,-1
 604 338 l 1,5,-1
 1384 338 l 1,6,-1
 1384 0 l 1,7,-1
 1284 0 l 1,8,9
 1251 -78 1251 -78 1251 -141 c 0,10,11
 1251 -186 1251 -186 1280.5 -216 c 128,-1,12
 1310 -246 1310 -246 1374 -246 c 2,13,-1
 1460 -246 l 1,14,-1
 1460 -401 l 1,15,16
 1362 -432 1362 -432 1264 -432 c 0,17,18
 1213 -432 1213 -432 1168 -419 c 128,-1,19
 1123 -406 1123 -406 1086 -379 c 128,-1,20
 1049 -352 1049 -352 1027.5 -306 c 128,-1,21
 1006 -260 1006 -260 1006 -199 c 0,22,23
 1006 -101 1006 -101 1087 0 c 1,24,-1
 152 0 l 1,25,-1
 152 1409 l 1,26,-1
 1370 1409 l 1,27,-1
 1370 1071 l 1,28,-1
 604 1071 l 1,0,-1
EndSplineSet
Validated: 1
EndChar

StartChar: F
Encoding: 70 70 35
Width: 1366
Flags: MW
LayerCount: 2
Back
Fore
SplineSet
152 1409 m 1,0,-1
 1290 1409 l 1,1,-1
 1290 1071 l 1,2,-1
 604 1071 l 1,3,-1
 604 829 l 1,4,-1
 1194 829 l 1,5,-1
 1194 506 l 1,6,-1
 604 506 l 1,7,-1
 604 0 l 1,8,-1
 152 0 l 1,9,-1
 152 1409 l 1,0,-1
EndSplineSet
Validated: 1
EndChar

StartChar: G
Encoding: 71 71 36
Width: 1705
Flags: MW
LayerCount: 2
Back
Fore
SplineSet
1298 139 m 1,0,1
 1107 -25 1107 -25 795 -25 c 0,2,3
 444 -25 444 -25 268 159 c 128,-1,4
 92 343 92 343 92 705 c 0,5,6
 92 1062 92 1062 291.5 1248 c 128,-1,7
 491 1434 491 1434 860 1434 c 0,8,9
 1010 1434 1010 1434 1139 1399.5 c 128,-1,10
 1268 1365 1268 1365 1366.5 1299.5 c 128,-1,11
 1465 1234 1465 1234 1521 1131 c 128,-1,12
 1577 1028 1577 1028 1577 899 c 1,13,-1
 1145 899 l 1,14,15
 1145 987 1145 987 1067.5 1041.5 c 128,-1,16
 990 1096 990 1096 879 1096 c 0,17,18
 720 1096 720 1096 637.5 1011 c 128,-1,19
 555 926 555 926 555 770 c 2,20,-1
 555 639 l 2,21,22
 555 483 555 483 637.5 398 c 128,-1,23
 720 313 720 313 879 313 c 0,24,25
 989 313 989 313 1067 365 c 128,-1,26
 1145 417 1145 417 1145 500 c 1,27,-1
 825 500 l 1,28,-1
 825 786 l 1,29,-1
 1577 786 l 1,30,-1
 1577 0 l 1,31,-1
 1343 0 l 1,32,-1
 1298 139 l 1,0,1
EndSplineSet
Validated: 1
EndChar

StartChar: Gbreve
Encoding: 286 286 37
Width: 1705
Flags: MW
LayerCount: 2
Back
Fore
SplineSet
1298 139 m 1,0,1
 1107 -25 1107 -25 795 -25 c 0,2,3
 444 -25 444 -25 268 159 c 128,-1,4
 92 343 92 343 92 705 c 0,5,6
 92 1062 92 1062 291.5 1248 c 128,-1,7
 491 1434 491 1434 860 1434 c 0,8,9
 1010 1434 1010 1434 1139 1399.5 c 128,-1,10
 1268 1365 1268 1365 1366.5 1299.5 c 128,-1,11
 1465 1234 1465 1234 1521 1131 c 128,-1,12
 1577 1028 1577 1028 1577 899 c 1,13,-1
 1145 899 l 1,14,15
 1145 987 1145 987 1067.5 1041.5 c 128,-1,16
 990 1096 990 1096 879 1096 c 0,17,18
 720 1096 720 1096 637.5 1011 c 128,-1,19
 555 926 555 926 555 770 c 2,20,-1
 555 639 l 2,21,22
 555 483 555 483 637.5 398 c 128,-1,23
 720 313 720 313 879 313 c 0,24,25
 989 313 989 313 1067 365 c 128,-1,26
 1145 417 1145 417 1145 500 c 1,27,-1
 825 500 l 1,28,-1
 825 786 l 1,29,-1
 1577 786 l 1,30,-1
 1577 0 l 1,31,-1
 1343 0 l 1,32,-1
 1298 139 l 1,0,1
1231 1812 m 1,33,34
 1231 1760 1231 1760 1204 1708 c 128,-1,35
 1177 1656 1177 1656 1129.5 1613.5 c 128,-1,36
 1082 1571 1082 1571 1009 1544.5 c 128,-1,37
 936 1518 936 1518 852 1518 c 0,38,39
 685 1518 685 1518 580 1609.5 c 128,-1,40
 475 1701 475 1701 475 1812 c 1,41,-1
 672 1812 l 1,42,43
 679 1776 679 1776 730.5 1743 c 128,-1,44
 782 1710 782 1710 852 1710 c 0,45,46
 923 1710 923 1710 976 1743 c 128,-1,47
 1029 1776 1029 1776 1036 1812 c 1,48,-1
 1231 1812 l 1,33,34
EndSplineSet
Validated: 1
EndChar

StartChar: Gcircumflex
Encoding: 284 284 38
Width: 1705
Flags: MW
LayerCount: 2
Back
Fore
SplineSet
1298 139 m 1,0,1
 1107 -25 1107 -25 795 -25 c 0,2,3
 444 -25 444 -25 268 159 c 128,-1,4
 92 343 92 343 92 705 c 0,5,6
 92 1062 92 1062 291.5 1248 c 128,-1,7
 491 1434 491 1434 860 1434 c 0,8,9
 1010 1434 1010 1434 1139 1399.5 c 128,-1,10
 1268 1365 1268 1365 1366.5 1299.5 c 128,-1,11
 1465 1234 1465 1234 1521 1131 c 128,-1,12
 1577 1028 1577 1028 1577 899 c 1,13,-1
 1145 899 l 1,14,15
 1145 987 1145 987 1067.5 1041.5 c 128,-1,16
 990 1096 990 1096 879 1096 c 0,17,18
 720 1096 720 1096 637.5 1011 c 128,-1,19
 555 926 555 926 555 770 c 2,20,-1
 555 639 l 2,21,22
 555 483 555 483 637.5 398 c 128,-1,23
 720 313 720 313 879 313 c 0,24,25
 989 313 989 313 1067 365 c 128,-1,26
 1145 417 1145 417 1145 500 c 1,27,-1
 825 500 l 1,28,-1
 825 786 l 1,29,-1
 1577 786 l 1,30,-1
 1577 0 l 1,31,-1
 1343 0 l 1,32,-1
 1298 139 l 1,0,1
1004 1516 m 1,33,-1
 852 1673 l 1,34,-1
 698 1516 l 1,35,-1
 436 1516 l 1,36,-1
 723 1812 l 1,37,-1
 983 1812 l 1,38,-1
 1270 1516 l 1,39,-1
 1004 1516 l 1,33,-1
EndSplineSet
Validated: 1
EndChar

StartChar: Gcommaaccent
Encoding: 290 290 39
Width: 1705
Flags: MW
LayerCount: 2
Back
Fore
SplineSet
874 -547 m 1,0,-1
 737 -547 l 1,1,-1
 821 -358 l 1,2,-1
 721 -358 l 1,3,-1
 721 -121 l 1,4,-1
 985 -121 l 1,5,-1
 985 -344 l 1,6,-1
 874 -547 l 1,0,-1
1298 139 m 1,7,8
 1107 -25 1107 -25 795 -25 c 0,9,10
 444 -25 444 -25 268 159 c 128,-1,11
 92 343 92 343 92 705 c 0,12,13
 92 1062 92 1062 291.5 1248 c 128,-1,14
 491 1434 491 1434 860 1434 c 0,15,16
 1010 1434 1010 1434 1139 1399.5 c 128,-1,17
 1268 1365 1268 1365 1366.5 1299.5 c 128,-1,18
 1465 1234 1465 1234 1521 1131 c 128,-1,19
 1577 1028 1577 1028 1577 899 c 1,20,-1
 1145 899 l 1,21,22
 1145 987 1145 987 1067.5 1041.5 c 128,-1,23
 990 1096 990 1096 879 1096 c 0,24,25
 720 1096 720 1096 637.5 1011 c 128,-1,26
 555 926 555 926 555 770 c 2,27,-1
 555 639 l 2,28,29
 555 483 555 483 637.5 398 c 128,-1,30
 720 313 720 313 879 313 c 0,31,32
 989 313 989 313 1067 365 c 128,-1,33
 1145 417 1145 417 1145 500 c 1,34,-1
 825 500 l 1,35,-1
 825 786 l 1,36,-1
 1577 786 l 1,37,-1
 1577 0 l 1,38,-1
 1343 0 l 1,39,-1
 1298 139 l 1,7,8
EndSplineSet
Validated: 1
EndChar

StartChar: Gdotaccent
Encoding: 288 288 40
Width: 1705
Flags: MW
LayerCount: 2
Back
Fore
SplineSet
1298 139 m 1,0,1
 1107 -25 1107 -25 795 -25 c 0,2,3
 444 -25 444 -25 268 159 c 128,-1,4
 92 343 92 343 92 705 c 0,5,6
 92 1062 92 1062 291.5 1248 c 128,-1,7
 491 1434 491 1434 860 1434 c 0,8,9
 1010 1434 1010 1434 1139 1399.5 c 128,-1,10
 1268 1365 1268 1365 1366.5 1299.5 c 128,-1,11
 1465 1234 1465 1234 1521 1131 c 128,-1,12
 1577 1028 1577 1028 1577 899 c 1,13,-1
 1145 899 l 1,14,15
 1145 987 1145 987 1067.5 1041.5 c 128,-1,16
 990 1096 990 1096 879 1096 c 0,17,18
 720 1096 720 1096 637.5 1011 c 128,-1,19
 555 926 555 926 555 770 c 2,20,-1
 555 639 l 2,21,22
 555 483 555 483 637.5 398 c 128,-1,23
 720 313 720 313 879 313 c 0,24,25
 989 313 989 313 1067 365 c 128,-1,26
 1145 417 1145 417 1145 500 c 1,27,-1
 825 500 l 1,28,-1
 825 786 l 1,29,-1
 1577 786 l 1,30,-1
 1577 0 l 1,31,-1
 1343 0 l 1,32,-1
 1298 139 l 1,0,1
696 1528 m 1,33,-1
 696 1812 l 1,34,-1
 1010 1812 l 1,35,-1
 1010 1528 l 1,36,-1
 696 1528 l 1,33,-1
EndSplineSet
Validated: 1
EndChar

StartChar: H
Encoding: 72 72 41
Width: 1705
Flags: MW
LayerCount: 2
Back
Fore
SplineSet
1102 0 m 1,0,-1
 1102 535 l 1,1,-1
 604 535 l 1,2,-1
 604 0 l 1,3,-1
 152 0 l 1,4,-1
 152 1409 l 1,5,-1
 604 1409 l 1,6,-1
 604 895 l 1,7,-1
 1102 895 l 1,8,-1
 1102 1409 l 1,9,-1
 1554 1409 l 1,10,-1
 1554 0 l 1,11,-1
 1102 0 l 1,0,-1
EndSplineSet
Validated: 1
EndChar

StartChar: Hbar
Encoding: 294 294 42
Width: 1705
Flags: MW
LayerCount: 2
Back
Fore
SplineSet
1102 1028 m 1,0,-1
 604 1028 l 1,1,-1
 604 874 l 1,2,-1
 1102 874 l 1,3,-1
 1102 1028 l 1,0,-1
1554 0 m 1,4,-1
 1102 0 l 1,5,-1
 1102 514 l 1,6,-1
 604 514 l 1,7,-1
 604 0 l 1,8,-1
 152 0 l 1,9,-1
 152 1028 l 1,10,-1
 2 1028 l 1,11,-1
 2 1229 l 1,12,-1
 152 1229 l 1,13,-1
 152 1409 l 1,14,-1
 604 1409 l 1,15,-1
 604 1229 l 1,16,-1
 1102 1229 l 1,17,-1
 1102 1409 l 1,18,-1
 1554 1409 l 1,19,-1
 1554 1229 l 1,20,-1
 1702 1229 l 1,21,-1
 1702 1028 l 1,22,-1
 1554 1028 l 1,23,-1
 1554 0 l 1,4,-1
EndSplineSet
Validated: 1
EndChar

StartChar: Hcircumflex
Encoding: 292 292 43
Width: 1705
Flags: MW
LayerCount: 2
Back
Fore
SplineSet
1102 0 m 1,0,-1
 1102 535 l 1,1,-1
 604 535 l 1,2,-1
 604 0 l 1,3,-1
 152 0 l 1,4,-1
 152 1409 l 1,5,-1
 604 1409 l 1,6,-1
 604 895 l 1,7,-1
 1102 895 l 1,8,-1
 1102 1409 l 1,9,-1
 1554 1409 l 1,10,-1
 1554 0 l 1,11,-1
 1102 0 l 1,0,-1
1004 1516 m 1,12,-1
 852 1673 l 1,13,-1
 698 1516 l 1,14,-1
 436 1516 l 1,15,-1
 723 1812 l 1,16,-1
 983 1812 l 1,17,-1
 1270 1516 l 1,18,-1
 1004 1516 l 1,12,-1
EndSplineSet
Validated: 1
EndChar

StartChar: I
Encoding: 73 73 44
Width: 796
Flags: MW
LayerCount: 2
Back
Fore
SplineSet
172 0 m 1,0,-1
 172 1409 l 1,1,-1
 625 1409 l 1,2,-1
 625 0 l 1,3,-1
 172 0 l 1,0,-1
EndSplineSet
Validated: 1
EndChar

StartChar: IJ
Encoding: 306 306 45
Width: 2105
Flags: MW
LayerCount: 2
Back
Fore
SplineSet
1954 489 m 2,0,1
 1954 226 1954 226 1803 100.5 c 128,-1,2
 1652 -25 1652 -25 1370 -25 c 128,-1,3
 1088 -25 1088 -25 937 100.5 c 128,-1,4
 786 226 786 226 786 489 c 2,5,-1
 786 508 l 1,6,-1
 1210 508 l 1,7,-1
 1210 492 l 2,8,9
 1210 396 1210 396 1246 354.5 c 128,-1,10
 1282 313 1282 313 1356 313 c 128,-1,11
 1430 313 1430 313 1465.5 354.5 c 128,-1,12
 1501 396 1501 396 1501 492 c 2,13,-1
 1501 1409 l 1,14,-1
 1954 1409 l 1,15,-1
 1954 489 l 2,0,1
172 0 m 1,16,-1
 172 1409 l 1,17,-1
 625 1409 l 1,18,-1
 625 0 l 1,19,-1
 172 0 l 1,16,-1
EndSplineSet
Validated: 1
EndChar

StartChar: Iacute
Encoding: 205 205 46
Width: 796
Flags: MW
LayerCount: 2
Back
Fore
SplineSet
172 1409 m 1,0,-1
 625 1409 l 1,1,-1
 625 0 l 1,2,-1
 172 0 l 1,3,-1
 172 1409 l 1,0,-1
203 1540 m 1,4,-1
 391 1812 l 1,5,-1
 786 1812 l 1,6,-1
 791 1804 l 1,7,-1
 463 1540 l 1,8,-1
 203 1540 l 1,4,-1
EndSplineSet
Validated: 1
EndChar

StartChar: Ibreve
Encoding: 300 300 47
Width: 796
Flags: MW
LayerCount: 2
Back
Fore
SplineSet
172 0 m 1,0,-1
 172 1409 l 1,1,-1
 625 1409 l 1,2,-1
 625 0 l 1,3,-1
 172 0 l 1,0,-1
776 1812 m 1,4,5
 776 1760 776 1760 749 1708 c 128,-1,6
 722 1656 722 1656 674.5 1613.5 c 128,-1,7
 627 1571 627 1571 554 1544.5 c 128,-1,8
 481 1518 481 1518 397 1518 c 0,9,10
 230 1518 230 1518 125 1609.5 c 128,-1,11
 20 1701 20 1701 20 1812 c 1,12,-1
 217 1812 l 1,13,14
 224 1776 224 1776 276 1743 c 128,-1,15
 328 1710 328 1710 397 1710 c 0,16,17
 468 1710 468 1710 521.5 1743 c 128,-1,18
 575 1776 575 1776 582 1812 c 1,19,-1
 776 1812 l 1,4,5
EndSplineSet
Validated: 1
EndChar

StartChar: Icircumflex
Encoding: 206 206 48
Width: 796
Flags: MW
LayerCount: 2
Back
Fore
SplineSet
172 0 m 1,0,-1
 172 1409 l 1,1,-1
 625 1409 l 1,2,-1
 625 0 l 1,3,-1
 172 0 l 1,0,-1
549 1516 m 1,4,-1
 397 1673 l 1,5,-1
 246 1516 l 1,6,-1
 -16 1516 l 1,7,-1
 268 1812 l 1,8,-1
 530 1812 l 1,9,-1
 815 1516 l 1,10,-1
 549 1516 l 1,4,-1
EndSplineSet
Validated: 1
EndChar

StartChar: Idieresis
Encoding: 207 207 49
Width: 796
Flags: MW
LayerCount: 2
Back
Fore
SplineSet
172 0 m 1,0,-1
 172 1409 l 1,1,-1
 625 1409 l 1,2,-1
 625 0 l 1,3,-1
 172 0 l 1,0,-1
469 1528 m 1,4,-1
 469 1812 l 1,5,-1
 780 1812 l 1,6,-1
 780 1528 l 1,7,-1
 469 1528 l 1,4,-1
18 1528 m 1,8,-1
 18 1812 l 1,9,-1
 330 1812 l 1,10,-1
 330 1528 l 1,11,-1
 18 1528 l 1,8,-1
EndSplineSet
Validated: 1
EndChar

StartChar: Idotaccent
Encoding: 304 304 50
Width: 796
Flags: MW
LayerCount: 2
Back
Fore
SplineSet
172 0 m 1,0,-1
 172 1409 l 1,1,-1
 625 1409 l 1,2,-1
 625 0 l 1,3,-1
 172 0 l 1,0,-1
244 1528 m 1,4,-1
 244 1812 l 1,5,-1
 555 1812 l 1,6,-1
 555 1528 l 1,7,-1
 244 1528 l 1,4,-1
EndSplineSet
Validated: 1
EndChar

StartChar: Igrave
Encoding: 204 204 51
Width: 796
Flags: MW
LayerCount: 2
Back
Fore
SplineSet
172 1409 m 1,0,-1
 625 1409 l 1,1,-1
 625 0 l 1,2,-1
 172 0 l 1,3,-1
 172 1409 l 1,0,-1
8 1804 m 1,4,-1
 12 1812 l 1,5,-1
 408 1812 l 1,6,-1
 596 1540 l 1,7,-1
 336 1540 l 1,8,-1
 8 1804 l 1,4,-1
EndSplineSet
Validated: 1
EndChar

StartChar: Imacron
Encoding: 298 298 52
Width: 796
Flags: MW
LayerCount: 2
Back
Fore
SplineSet
172 0 m 1,0,-1
 172 1409 l 1,1,-1
 625 1409 l 1,2,-1
 625 0 l 1,3,-1
 172 0 l 1,0,-1
76 1567 m 1,4,-1
 76 1772 l 1,5,-1
 723 1772 l 1,6,-1
 723 1567 l 1,7,-1
 76 1567 l 1,4,-1
EndSplineSet
Validated: 1
EndChar

StartChar: Iogonek
Encoding: 302 302 53
Width: 796
Flags: MW
LayerCount: 2
Back
Fore
SplineSet
612 0 m 1,0,1
 580 -75 580 -75 580 -141 c 0,2,3
 580 -186 580 -186 609 -216 c 128,-1,4
 638 -246 638 -246 702 -246 c 2,5,-1
 788 -246 l 1,6,-1
 788 -401 l 1,7,8
 690 -432 690 -432 592 -432 c 0,9,10
 541 -432 541 -432 496 -419 c 128,-1,11
 451 -406 451 -406 414 -379 c 128,-1,12
 377 -352 377 -352 355.5 -306 c 128,-1,13
 334 -260 334 -260 334 -199 c 0,14,15
 334 -102 334 -102 416 0 c 1,16,-1
 172 0 l 1,17,-1
 172 1409 l 1,18,-1
 625 1409 l 1,19,-1
 625 0 l 1,20,-1
 612 0 l 1,0,1
EndSplineSet
Validated: 1
EndChar

StartChar: Itilde
Encoding: 296 296 54
Width: 796
Flags: MW
LayerCount: 2
Back
Fore
SplineSet
172 0 m 1,0,-1
 172 1409 l 1,1,-1
 625 1409 l 1,2,-1
 625 0 l 1,3,-1
 172 0 l 1,0,-1
854 1812 m 1,4,5
 854 1697 854 1697 772.5 1608.5 c 128,-1,6
 691 1520 691 1520 567 1520 c 0,7,8
 499 1520 499 1520 382.5 1561 c 128,-1,9
 266 1602 266 1602 213 1602 c 0,10,11
 176 1602 176 1602 149 1579.5 c 128,-1,12
 122 1557 122 1557 111 1520 c 1,13,-1
 -55 1520 l 1,14,15
 -55 1635 -55 1635 26 1723.5 c 128,-1,16
 107 1812 107 1812 231 1812 c 0,17,18
 299 1812 299 1812 416 1771.5 c 128,-1,19
 533 1731 533 1731 586 1731 c 0,20,21
 623 1731 623 1731 650 1753.5 c 128,-1,22
 677 1776 677 1776 688 1812 c 1,23,-1
 854 1812 l 1,4,5
EndSplineSet
Validated: 1
EndChar

StartChar: J
Encoding: 74 74 55
Width: 1366
Flags: MW
LayerCount: 2
Back
Fore
SplineSet
1214 489 m 2,0,1
 1214 -25 1214 -25 631 -25 c 0,2,3
 349 -25 349 -25 198 100.5 c 128,-1,4
 47 226 47 226 47 489 c 2,5,-1
 47 508 l 1,6,-1
 471 508 l 1,7,-1
 471 492 l 2,8,9
 471 396 471 396 506.5 354.5 c 128,-1,10
 542 313 542 313 616 313 c 128,-1,11
 690 313 690 313 726 354.5 c 128,-1,12
 762 396 762 396 762 492 c 2,13,-1
 762 1409 l 1,14,-1
 1214 1409 l 1,15,-1
 1214 489 l 2,0,1
EndSplineSet
Validated: 1
EndChar

StartChar: Jcircumflex
Encoding: 308 308 56
Width: 1366
Flags: MW
LayerCount: 2
Back
Fore
SplineSet
1214 489 m 2,0,1
 1214 -25 1214 -25 631 -25 c 0,2,3
 349 -25 349 -25 198 100.5 c 128,-1,4
 47 226 47 226 47 489 c 2,5,-1
 47 508 l 1,6,-1
 471 508 l 1,7,-1
 471 492 l 2,8,9
 471 396 471 396 506.5 354.5 c 128,-1,10
 542 313 542 313 616 313 c 128,-1,11
 690 313 690 313 726 354.5 c 128,-1,12
 762 396 762 396 762 492 c 2,13,-1
 762 1409 l 1,14,-1
 1214 1409 l 1,15,-1
 1214 489 l 2,0,1
1116 1516 m 1,16,-1
 965 1673 l 1,17,-1
 811 1516 l 1,18,-1
 551 1516 l 1,19,-1
 836 1812 l 1,20,-1
 1098 1812 l 1,21,-1
 1382 1516 l 1,22,-1
 1116 1516 l 1,16,-1
EndSplineSet
Validated: 1
EndChar

StartChar: K
Encoding: 75 75 57
Width: 1705
Flags: MW
LayerCount: 2
Back
Fore
SplineSet
1106 1409 m 1,0,-1
 1667 1409 l 1,1,-1
 1161 829 l 1,2,-1
 1677 0 l 1,3,-1
 1143 0 l 1,4,-1
 850 516 l 1,5,-1
 604 315 l 1,6,-1
 604 0 l 1,7,-1
 152 0 l 1,8,-1
 152 1409 l 1,9,-1
 604 1409 l 1,10,-1
 604 807 l 1,11,-1
 1106 1409 l 1,0,-1
EndSplineSet
Validated: 1
EndChar

StartChar: Kcommaaccent
Encoding: 310 310 58
Width: 1705
Flags: MW
LayerCount: 2
Back
Fore
SplineSet
874 -547 m 1,0,-1
 737 -547 l 1,1,-1
 821 -358 l 1,2,-1
 721 -358 l 1,3,-1
 721 -121 l 1,4,-1
 985 -121 l 1,5,-1
 985 -344 l 1,6,-1
 874 -547 l 1,0,-1
1106 1409 m 1,7,-1
 1667 1409 l 1,8,-1
 1161 829 l 1,9,-1
 1677 0 l 1,10,-1
 1143 0 l 1,11,-1
 850 516 l 1,12,-1
 604 315 l 1,13,-1
 604 0 l 1,14,-1
 152 0 l 1,15,-1
 152 1409 l 1,16,-1
 604 1409 l 1,17,-1
 604 807 l 1,18,-1
 1106 1409 l 1,7,-1
EndSplineSet
Validated: 1
EndChar

StartChar: L
Encoding: 76 76 59
Width: 1366
Flags: MW
LayerCount: 2
Back
Fore
SplineSet
152 1409 m 1,0,-1
 604 1409 l 1,1,-1
 604 360 l 1,2,-1
 1327 360 l 1,3,-1
 1327 0 l 1,4,-1
 152 0 l 1,5,-1
 152 1409 l 1,0,-1
EndSplineSet
Validated: 1
EndChar

StartChar: Lacute
Encoding: 313 313 60
Width: 1366
Flags: MW
LayerCount: 2
Back
Fore
SplineSet
152 1409 m 1,0,-1
 604 1409 l 1,1,-1
 604 360 l 1,2,-1
 1327 360 l 1,3,-1
 1327 0 l 1,4,-1
 152 0 l 1,5,-1
 152 1409 l 1,0,-1
180 1540 m 1,6,-1
 369 1812 l 1,7,-1
 764 1812 l 1,8,-1
 768 1804 l 1,9,-1
 440 1540 l 1,10,-1
 180 1540 l 1,6,-1
EndSplineSet
Validated: 1
EndChar

StartChar: Lcaron
Encoding: 317 317 61
Width: 1366
Flags: MW
LayerCount: 2
Back
Fore
SplineSet
1169 983 m 1,0,-1
 1032 983 l 1,1,-1
 1116 1171 l 1,2,-1
 1016 1171 l 1,3,-1
 1016 1409 l 1,4,-1
 1280 1409 l 1,5,-1
 1280 1186 l 1,6,-1
 1169 983 l 1,0,-1
152 1409 m 1,7,-1
 604 1409 l 1,8,-1
 604 360 l 1,9,-1
 1327 360 l 1,10,-1
 1327 0 l 1,11,-1
 152 0 l 1,12,-1
 152 1409 l 1,7,-1
EndSplineSet
Validated: 1
EndChar

StartChar: Lcommaaccent
Encoding: 315 315 62
Width: 1366
Flags: MW
LayerCount: 2
Back
Fore
SplineSet
705 -547 m 1,0,-1
 567 -547 l 1,1,-1
 651 -358 l 1,2,-1
 551 -358 l 1,3,-1
 551 -121 l 1,4,-1
 815 -121 l 1,5,-1
 815 -344 l 1,6,-1
 705 -547 l 1,0,-1
152 1409 m 1,7,-1
 604 1409 l 1,8,-1
 604 360 l 1,9,-1
 1327 360 l 1,10,-1
 1327 0 l 1,11,-1
 152 0 l 1,12,-1
 152 1409 l 1,7,-1
EndSplineSet
Validated: 1
EndChar

StartChar: Ldot
Encoding: 319 319 63
Width: 1366
Flags: MW
LayerCount: 2
Back
Fore
SplineSet
795 702 m 1,0,-1
 795 1077 l 1,1,-1
 1188 1077 l 1,2,-1
 1188 702 l 1,3,-1
 795 702 l 1,0,-1
152 1409 m 1,4,-1
 604 1409 l 1,5,-1
 604 360 l 1,6,-1
 1327 360 l 1,7,-1
 1327 0 l 1,8,-1
 152 0 l 1,9,-1
 152 1409 l 1,4,-1
EndSplineSet
Validated: 1
EndChar

StartChar: Lslash
Encoding: 321 321 64
Width: 1366
Flags: MW
LayerCount: 2
Back
Fore
SplineSet
909 1139 m 1,0,-1
 909 934 l 1,1,-1
 604 745 l 1,2,-1
 604 360 l 1,3,-1
 1327 360 l 1,4,-1
 1327 0 l 1,5,-1
 152 0 l 1,6,-1
 152 469 l 1,7,-1
 0 377 l 1,8,-1
 0 578 l 1,9,-1
 152 672 l 1,10,-1
 152 1409 l 1,11,-1
 604 1409 l 1,12,-1
 604 948 l 1,13,-1
 909 1139 l 1,0,-1
EndSplineSet
Validated: 1
EndChar

StartChar: M
Encoding: 77 77 65
Width: 1933
Flags: MW
LayerCount: 2
Back
Fore
SplineSet
1362 0 m 1,0,-1
 1362 508 l 2,1,2
 1362 603 1362 603 1370 714.5 c 128,-1,3
 1378 826 1378 826 1386 890 c 2,4,-1
 1395 954 l 1,5,-1
 1386 954 l 1,6,-1
 1126 0 l 1,7,-1
 772 0 l 1,8,-1
 510 952 l 1,9,-1
 502 952 l 1,10,11
 539 721 539 721 539 508 c 2,12,-1
 539 0 l 1,13,-1
 123 0 l 1,14,-1
 123 1409 l 1,15,-1
 762 1409 l 1,16,-1
 975 596 l 1,17,-1
 983 596 l 1,18,-1
 1194 1409 l 1,19,-1
 1810 1409 l 1,20,-1
 1810 0 l 1,21,-1
 1362 0 l 1,0,-1
EndSplineSet
Validated: 1
EndChar

StartChar: N
Encoding: 78 78 66
Width: 1705
Flags: MW
LayerCount: 2
Back
Fore
SplineSet
1159 0 m 1,0,-1
 567 684 l 1,1,-1
 567 0 l 1,2,-1
 152 0 l 1,3,-1
 152 1409 l 1,4,-1
 547 1409 l 1,5,-1
 1139 715 l 1,6,-1
 1139 1409 l 1,7,-1
 1554 1409 l 1,8,-1
 1554 0 l 1,9,-1
 1159 0 l 1,0,-1
EndSplineSet
Validated: 1
EndChar

StartChar: Nacute
Encoding: 323 323 67
Width: 1705
Flags: MW
LayerCount: 2
Back
Fore
SplineSet
567 684 m 1,0,-1
 567 0 l 1,1,-1
 152 0 l 1,2,-1
 152 1409 l 1,3,-1
 547 1409 l 1,4,-1
 1139 715 l 1,5,-1
 1139 1409 l 1,6,-1
 1554 1409 l 1,7,-1
 1554 0 l 1,8,-1
 1159 0 l 1,9,-1
 567 684 l 1,0,-1
655 1540 m 1,10,-1
 846 1812 l 1,11,-1
 1239 1812 l 1,12,-1
 1243 1804 l 1,13,-1
 918 1540 l 1,14,-1
 655 1540 l 1,10,-1
EndSplineSet
Validated: 1
EndChar

StartChar: Ncaron
Encoding: 327 327 68
Width: 1705
Flags: MW
LayerCount: 2
Back
Fore
SplineSet
1159 0 m 1,0,-1
 567 684 l 1,1,-1
 567 0 l 1,2,-1
 152 0 l 1,3,-1
 152 1409 l 1,4,-1
 547 1409 l 1,5,-1
 1139 715 l 1,6,-1
 1139 1409 l 1,7,-1
 1554 1409 l 1,8,-1
 1554 0 l 1,9,-1
 1159 0 l 1,0,-1
723 1516 m 1,10,-1
 436 1812 l 1,11,-1
 698 1812 l 1,12,-1
 852 1655 l 1,13,-1
 1004 1812 l 1,14,-1
 1270 1812 l 1,15,-1
 983 1516 l 1,16,-1
 723 1516 l 1,10,-1
EndSplineSet
Validated: 1
EndChar

StartChar: Ncommaaccent
Encoding: 325 325 69
Width: 1705
Flags: MW
LayerCount: 2
Back
Fore
SplineSet
874 -547 m 1,0,-1
 737 -547 l 1,1,-1
 821 -358 l 1,2,-1
 721 -358 l 1,3,-1
 721 -121 l 1,4,-1
 985 -121 l 1,5,-1
 985 -344 l 1,6,-1
 874 -547 l 1,0,-1
1159 0 m 1,7,-1
 567 684 l 1,8,-1
 567 0 l 1,9,-1
 152 0 l 1,10,-1
 152 1409 l 1,11,-1
 547 1409 l 1,12,-1
 1139 715 l 1,13,-1
 1139 1409 l 1,14,-1
 1554 1409 l 1,15,-1
 1554 0 l 1,16,-1
 1159 0 l 1,7,-1
EndSplineSet
Validated: 1
EndChar

StartChar: Eng
Encoding: 330 330 70
Width: 1667
Flags: MW
LayerCount: 2
Back
Fore
SplineSet
1554 -59 m 2,0,1
 1554 -255 1554 -255 1465.5 -342.5 c 128,-1,2
 1377 -430 1377 -430 1180 -430 c 0,3,4
 1125 -430 1125 -430 1047.5 -419.5 c 128,-1,5
 970 -409 970 -409 926 -393 c 1,6,-1
 926 -150 l 1,7,-1
 1026 -150 l 2,8,9
 1141 -150 1141 -150 1141 -18 c 2,10,-1
 1141 20 l 1,11,-1
 567 684 l 1,12,-1
 567 0 l 1,13,-1
 152 0 l 1,14,-1
 152 1409 l 1,15,-1
 547 1409 l 1,16,-1
 1139 715 l 1,17,-1
 1139 1409 l 1,18,-1
 1554 1409 l 1,19,-1
 1554 -59 l 2,0,1
EndSplineSet
Validated: 1
EndChar

StartChar: Ntilde
Encoding: 209 209 71
Width: 1705
Flags: MW
LayerCount: 2
Back
Fore
SplineSet
1159 0 m 1,0,-1
 567 684 l 1,1,-1
 567 0 l 1,2,-1
 152 0 l 1,3,-1
 152 1409 l 1,4,-1
 547 1409 l 1,5,-1
 1139 715 l 1,6,-1
 1139 1409 l 1,7,-1
 1554 1409 l 1,8,-1
 1554 0 l 1,9,-1
 1159 0 l 1,0,-1
1309 1812 m 1,10,11
 1309 1697 1309 1697 1227.5 1608.5 c 128,-1,12
 1146 1520 1146 1520 1022 1520 c 0,13,14
 954 1520 954 1520 837 1561 c 128,-1,15
 720 1602 720 1602 668 1602 c 0,16,17
 630 1602 630 1602 603 1579.5 c 128,-1,18
 576 1557 576 1557 563 1520 c 1,19,-1
 397 1520 l 1,20,21
 397 1635 397 1635 478.5 1723.5 c 128,-1,22
 560 1812 560 1812 684 1812 c 0,23,24
 752 1812 752 1812 869 1771.5 c 128,-1,25
 986 1731 986 1731 1038 1731 c 0,26,27
 1115 1731 1115 1731 1143 1812 c 1,28,-1
 1309 1812 l 1,10,11
EndSplineSet
Validated: 1
EndChar

StartChar: O
Encoding: 79 79 72
Width: 1705
Flags: MW
LayerCount: 2
Back
Fore
SplineSet
1151 770 m 2,0,1
 1151 919 1151 919 1074 1007.5 c 128,-1,2
 997 1096 997 1096 852 1096 c 128,-1,3
 707 1096 707 1096 631 1008 c 128,-1,4
 555 920 555 920 555 770 c 2,5,-1
 555 639 l 2,6,7
 555 489 555 489 631 401 c 128,-1,8
 707 313 707 313 852 313 c 128,-1,9
 997 313 997 313 1074 401.5 c 128,-1,10
 1151 490 1151 490 1151 639 c 2,11,-1
 1151 770 l 2,0,1
852 1434 m 128,-1,13
 1217 1434 1217 1434 1415.5 1248 c 128,-1,14
 1614 1062 1614 1062 1614 705 c 128,-1,15
 1614 348 1614 348 1415.5 161.5 c 128,-1,16
 1217 -25 1217 -25 852 -25 c 0,17,18
 488 -25 488 -25 290 161.5 c 128,-1,19
 92 348 92 348 92 705 c 128,-1,20
 92 1062 92 1062 289.5 1248 c 128,-1,12
 487 1434 487 1434 852 1434 c 128,-1,13
EndSplineSet
Validated: 1
EndChar

StartChar: Oacute
Encoding: 211 211 73
Width: 1705
Flags: MW
LayerCount: 2
Back
Fore
SplineSet
1151 770 m 2,0,1
 1151 919 1151 919 1074 1007.5 c 128,-1,2
 997 1096 997 1096 852 1096 c 128,-1,3
 707 1096 707 1096 631 1008 c 128,-1,4
 555 920 555 920 555 770 c 2,5,-1
 555 639 l 2,6,7
 555 489 555 489 631 401 c 128,-1,8
 707 313 707 313 852 313 c 128,-1,9
 997 313 997 313 1074 401.5 c 128,-1,10
 1151 490 1151 490 1151 639 c 2,11,-1
 1151 770 l 2,0,1
852 1434 m 128,-1,13
 1217 1434 1217 1434 1415.5 1248 c 128,-1,14
 1614 1062 1614 1062 1614 705 c 128,-1,15
 1614 348 1614 348 1415.5 161.5 c 128,-1,16
 1217 -25 1217 -25 852 -25 c 0,17,18
 488 -25 488 -25 290 161.5 c 128,-1,19
 92 348 92 348 92 705 c 128,-1,20
 92 1062 92 1062 289.5 1248 c 128,-1,12
 487 1434 487 1434 852 1434 c 128,-1,13
655 1540 m 1,21,-1
 846 1812 l 1,22,-1
 1239 1812 l 1,23,-1
 1243 1804 l 1,24,-1
 918 1540 l 1,25,-1
 655 1540 l 1,21,-1
EndSplineSet
Validated: 1
EndChar

StartChar: Obreve
Encoding: 334 334 74
Width: 1705
Flags: MW
LayerCount: 2
Back
Fore
SplineSet
1151 770 m 2,0,1
 1151 919 1151 919 1074 1007.5 c 128,-1,2
 997 1096 997 1096 852 1096 c 128,-1,3
 707 1096 707 1096 631 1008 c 128,-1,4
 555 920 555 920 555 770 c 2,5,-1
 555 639 l 2,6,7
 555 489 555 489 631 401 c 128,-1,8
 707 313 707 313 852 313 c 128,-1,9
 997 313 997 313 1074 401.5 c 128,-1,10
 1151 490 1151 490 1151 639 c 2,11,-1
 1151 770 l 2,0,1
852 1434 m 128,-1,13
 1217 1434 1217 1434 1415.5 1248 c 128,-1,14
 1614 1062 1614 1062 1614 705 c 128,-1,15
 1614 348 1614 348 1415.5 161.5 c 128,-1,16
 1217 -25 1217 -25 852 -25 c 0,17,18
 488 -25 488 -25 290 161.5 c 128,-1,19
 92 348 92 348 92 705 c 128,-1,20
 92 1062 92 1062 289.5 1248 c 128,-1,12
 487 1434 487 1434 852 1434 c 128,-1,13
1231 1812 m 1,21,22
 1231 1760 1231 1760 1204 1708 c 128,-1,23
 1177 1656 1177 1656 1129.5 1613.5 c 128,-1,24
 1082 1571 1082 1571 1009 1544.5 c 128,-1,25
 936 1518 936 1518 852 1518 c 0,26,27
 685 1518 685 1518 580 1609.5 c 128,-1,28
 475 1701 475 1701 475 1812 c 1,29,-1
 672 1812 l 1,30,31
 679 1776 679 1776 730.5 1743 c 128,-1,32
 782 1710 782 1710 852 1710 c 0,33,34
 923 1710 923 1710 976 1743 c 128,-1,35
 1029 1776 1029 1776 1036 1812 c 1,36,-1
 1231 1812 l 1,21,22
EndSplineSet
Validated: 1
EndChar

StartChar: Ocircumflex
Encoding: 212 212 75
Width: 1705
Flags: MW
LayerCount: 2
Back
Fore
SplineSet
1151 770 m 2,0,1
 1151 919 1151 919 1074 1007.5 c 128,-1,2
 997 1096 997 1096 852 1096 c 128,-1,3
 707 1096 707 1096 631 1008 c 128,-1,4
 555 920 555 920 555 770 c 2,5,-1
 555 639 l 2,6,7
 555 489 555 489 631 401 c 128,-1,8
 707 313 707 313 852 313 c 128,-1,9
 997 313 997 313 1074 401.5 c 128,-1,10
 1151 490 1151 490 1151 639 c 2,11,-1
 1151 770 l 2,0,1
852 1434 m 128,-1,13
 1217 1434 1217 1434 1415.5 1248 c 128,-1,14
 1614 1062 1614 1062 1614 705 c 128,-1,15
 1614 348 1614 348 1415.5 161.5 c 128,-1,16
 1217 -25 1217 -25 852 -25 c 0,17,18
 488 -25 488 -25 290 161.5 c 128,-1,19
 92 348 92 348 92 705 c 128,-1,20
 92 1062 92 1062 289.5 1248 c 128,-1,12
 487 1434 487 1434 852 1434 c 128,-1,13
1004 1516 m 1,21,-1
 852 1673 l 1,22,-1
 698 1516 l 1,23,-1
 436 1516 l 1,24,-1
 723 1812 l 1,25,-1
 983 1812 l 1,26,-1
 1270 1516 l 1,27,-1
 1004 1516 l 1,21,-1
EndSplineSet
Validated: 1
EndChar

StartChar: Odieresis
Encoding: 214 214 76
Width: 1705
Flags: MW
LayerCount: 2
Back
Fore
SplineSet
1151 770 m 2,0,1
 1151 919 1151 919 1074 1007.5 c 128,-1,2
 997 1096 997 1096 852 1096 c 128,-1,3
 707 1096 707 1096 631 1008 c 128,-1,4
 555 920 555 920 555 770 c 2,5,-1
 555 639 l 2,6,7
 555 489 555 489 631 401 c 128,-1,8
 707 313 707 313 852 313 c 128,-1,9
 997 313 997 313 1074 401.5 c 128,-1,10
 1151 490 1151 490 1151 639 c 2,11,-1
 1151 770 l 2,0,1
852 1434 m 128,-1,13
 1217 1434 1217 1434 1415.5 1248 c 128,-1,14
 1614 1062 1614 1062 1614 705 c 128,-1,15
 1614 348 1614 348 1415.5 161.5 c 128,-1,16
 1217 -25 1217 -25 852 -25 c 0,17,18
 488 -25 488 -25 290 161.5 c 128,-1,19
 92 348 92 348 92 705 c 128,-1,20
 92 1062 92 1062 289.5 1248 c 128,-1,12
 487 1434 487 1434 852 1434 c 128,-1,13
924 1528 m 1,21,-1
 924 1812 l 1,22,-1
 1235 1812 l 1,23,-1
 1235 1528 l 1,24,-1
 924 1528 l 1,21,-1
471 1528 m 1,25,-1
 471 1812 l 1,26,-1
 782 1812 l 1,27,-1
 782 1528 l 1,28,-1
 471 1528 l 1,25,-1
EndSplineSet
Validated: 1
EndChar

StartChar: Ograve
Encoding: 210 210 77
Width: 1705
Flags: MW
LayerCount: 2
Back
Fore
SplineSet
1151 770 m 2,0,1
 1151 919 1151 919 1074 1007.5 c 128,-1,2
 997 1096 997 1096 852 1096 c 128,-1,3
 707 1096 707 1096 631 1008 c 128,-1,4
 555 920 555 920 555 770 c 2,5,-1
 555 639 l 2,6,7
 555 489 555 489 631 401 c 128,-1,8
 707 313 707 313 852 313 c 128,-1,9
 997 313 997 313 1074 401.5 c 128,-1,10
 1151 490 1151 490 1151 639 c 2,11,-1
 1151 770 l 2,0,1
852 1434 m 128,-1,13
 1217 1434 1217 1434 1415.5 1248 c 128,-1,14
 1614 1062 1614 1062 1614 705 c 128,-1,15
 1614 348 1614 348 1415.5 161.5 c 128,-1,16
 1217 -25 1217 -25 852 -25 c 0,17,18
 488 -25 488 -25 290 161.5 c 128,-1,19
 92 348 92 348 92 705 c 128,-1,20
 92 1062 92 1062 289.5 1248 c 128,-1,12
 487 1434 487 1434 852 1434 c 128,-1,13
463 1804 m 1,21,-1
 467 1812 l 1,22,-1
 860 1812 l 1,23,-1
 1051 1540 l 1,24,-1
 791 1540 l 1,25,-1
 463 1804 l 1,21,-1
EndSplineSet
Validated: 1
EndChar

StartChar: Ohungarumlaut
Encoding: 336 336 78
Width: 1705
Flags: MW
LayerCount: 2
Back
Fore
SplineSet
1151 770 m 2,0,1
 1151 919 1151 919 1074 1007.5 c 128,-1,2
 997 1096 997 1096 852 1096 c 128,-1,3
 707 1096 707 1096 631 1008 c 128,-1,4
 555 920 555 920 555 770 c 2,5,-1
 555 639 l 2,6,7
 555 489 555 489 631 401 c 128,-1,8
 707 313 707 313 852 313 c 128,-1,9
 997 313 997 313 1074 401.5 c 128,-1,10
 1151 490 1151 490 1151 639 c 2,11,-1
 1151 770 l 2,0,1
852 1434 m 128,-1,13
 1217 1434 1217 1434 1415.5 1248 c 128,-1,14
 1614 1062 1614 1062 1614 705 c 128,-1,15
 1614 348 1614 348 1415.5 161.5 c 128,-1,16
 1217 -25 1217 -25 852 -25 c 0,17,18
 488 -25 488 -25 290 161.5 c 128,-1,19
 92 348 92 348 92 705 c 128,-1,20
 92 1062 92 1062 289.5 1248 c 128,-1,12
 487 1434 487 1434 852 1434 c 128,-1,13
1176 1540 m 1,21,-1
 936 1540 l 1,22,-1
 1092 1815 l 1,23,-1
 1456 1815 l 1,24,-1
 1460 1806 l 1,25,-1
 1176 1540 l 1,21,-1
743 1540 m 1,26,-1
 504 1540 l 1,27,-1
 659 1815 l 1,28,-1
 1024 1815 l 1,29,-1
 1028 1806 l 1,30,-1
 743 1540 l 1,26,-1
EndSplineSet
Validated: 1
EndChar

StartChar: Omacron
Encoding: 332 332 79
Width: 1705
Flags: MW
LayerCount: 2
Back
Fore
SplineSet
1151 770 m 2,0,1
 1151 919 1151 919 1074 1007.5 c 128,-1,2
 997 1096 997 1096 852 1096 c 128,-1,3
 707 1096 707 1096 631 1008 c 128,-1,4
 555 920 555 920 555 770 c 2,5,-1
 555 639 l 2,6,7
 555 489 555 489 631 401 c 128,-1,8
 707 313 707 313 852 313 c 128,-1,9
 997 313 997 313 1074 401.5 c 128,-1,10
 1151 490 1151 490 1151 639 c 2,11,-1
 1151 770 l 2,0,1
852 1434 m 128,-1,13
 1217 1434 1217 1434 1415.5 1248 c 128,-1,14
 1614 1062 1614 1062 1614 705 c 128,-1,15
 1614 348 1614 348 1415.5 161.5 c 128,-1,16
 1217 -25 1217 -25 852 -25 c 0,17,18
 488 -25 488 -25 290 161.5 c 128,-1,19
 92 348 92 348 92 705 c 128,-1,20
 92 1062 92 1062 289.5 1248 c 128,-1,12
 487 1434 487 1434 852 1434 c 128,-1,13
528 1567 m 1,21,-1
 528 1772 l 1,22,-1
 1178 1772 l 1,23,-1
 1178 1567 l 1,24,-1
 528 1567 l 1,21,-1
EndSplineSet
Validated: 1
EndChar

StartChar: Oslash
Encoding: 216 216 80
Width: 1705
Flags: MW
LayerCount: 2
Back
Fore
SplineSet
682 358 m 1,0,1
 752 313 752 313 852 313 c 0,2,3
 997 313 997 313 1074 401.5 c 128,-1,4
 1151 490 1151 490 1151 639 c 2,5,-1
 1151 770 l 2,6,7
 1151 842 1151 842 1128 909 c 1,8,-1
 682 358 l 1,0,1
1022 1051 m 1,9,10
 952 1096 952 1096 852 1096 c 0,11,12
 707 1096 707 1096 631 1008 c 128,-1,13
 555 920 555 920 555 770 c 2,14,-1
 555 639 l 2,15,16
 555 559 555 559 575 500 c 1,17,-1
 1022 1051 l 1,9,10
1407 1253 m 1,18,19
 1614 1067 1614 1067 1614 705 c 0,20,21
 1614 348 1614 348 1415.5 161.5 c 128,-1,22
 1217 -25 1217 -25 852 -25 c 0,23,24
 606 -25 606 -25 438 57 c 1,25,-1
 332 -74 l 1,26,-1
 111 -74 l 1,27,-1
 295 156 l 1,28,29
 92 344 92 344 92 705 c 0,30,31
 92 1062 92 1062 289.5 1248 c 128,-1,32
 487 1434 487 1434 852 1434 c 0,33,34
 1090 1434 1090 1434 1266 1350 c 1,35,-1
 1374 1485 l 1,36,-1
 1595 1485 l 1,37,-1
 1407 1253 l 1,18,19
EndSplineSet
Validated: 1
EndChar

StartChar: Oslashacute
Encoding: 510 510 81
Width: 1705
Flags: MW
LayerCount: 2
Back
Fore
SplineSet
682 358 m 1,0,1
 752 313 752 313 852 313 c 0,2,3
 997 313 997 313 1074 401.5 c 128,-1,4
 1151 490 1151 490 1151 639 c 2,5,-1
 1151 770 l 2,6,7
 1151 842 1151 842 1128 909 c 1,8,-1
 682 358 l 1,0,1
1022 1051 m 1,9,10
 952 1096 952 1096 852 1096 c 0,11,12
 707 1096 707 1096 631 1008 c 128,-1,13
 555 920 555 920 555 770 c 2,14,-1
 555 639 l 2,15,16
 555 559 555 559 575 500 c 1,17,-1
 1022 1051 l 1,9,10
1407 1253 m 1,18,19
 1614 1067 1614 1067 1614 705 c 0,20,21
 1614 348 1614 348 1415.5 161.5 c 128,-1,22
 1217 -25 1217 -25 852 -25 c 0,23,24
 606 -25 606 -25 438 57 c 1,25,-1
 332 -74 l 1,26,-1
 111 -74 l 1,27,-1
 295 156 l 1,28,29
 92 344 92 344 92 705 c 0,30,31
 92 1062 92 1062 289.5 1248 c 128,-1,32
 487 1434 487 1434 852 1434 c 0,33,34
 1090 1434 1090 1434 1266 1350 c 1,35,-1
 1374 1485 l 1,36,-1
 1595 1485 l 1,37,-1
 1407 1253 l 1,18,19
655 1540 m 1,38,-1
 846 1812 l 1,39,-1
 1239 1812 l 1,40,-1
 1243 1804 l 1,41,-1
 918 1540 l 1,42,-1
 655 1540 l 1,38,-1
EndSplineSet
Validated: 1
EndChar

StartChar: Otilde
Encoding: 213 213 82
Width: 1705
Flags: MW
LayerCount: 2
Back
Fore
SplineSet
1151 770 m 2,0,1
 1151 919 1151 919 1074 1007.5 c 128,-1,2
 997 1096 997 1096 852 1096 c 128,-1,3
 707 1096 707 1096 631 1008 c 128,-1,4
 555 920 555 920 555 770 c 2,5,-1
 555 639 l 2,6,7
 555 489 555 489 631 401 c 128,-1,8
 707 313 707 313 852 313 c 128,-1,9
 997 313 997 313 1074 401.5 c 128,-1,10
 1151 490 1151 490 1151 639 c 2,11,-1
 1151 770 l 2,0,1
852 1434 m 128,-1,13
 1217 1434 1217 1434 1415.5 1248 c 128,-1,14
 1614 1062 1614 1062 1614 705 c 128,-1,15
 1614 348 1614 348 1415.5 161.5 c 128,-1,16
 1217 -25 1217 -25 852 -25 c 0,17,18
 488 -25 488 -25 290 161.5 c 128,-1,19
 92 348 92 348 92 705 c 128,-1,20
 92 1062 92 1062 289.5 1248 c 128,-1,12
 487 1434 487 1434 852 1434 c 128,-1,13
1309 1812 m 1,21,22
 1309 1697 1309 1697 1227.5 1608.5 c 128,-1,23
 1146 1520 1146 1520 1022 1520 c 0,24,25
 954 1520 954 1520 837 1561 c 128,-1,26
 720 1602 720 1602 668 1602 c 0,27,28
 630 1602 630 1602 603 1579.5 c 128,-1,29
 576 1557 576 1557 563 1520 c 1,30,-1
 397 1520 l 1,31,32
 397 1635 397 1635 478.5 1723.5 c 128,-1,33
 560 1812 560 1812 684 1812 c 0,34,35
 752 1812 752 1812 869 1771.5 c 128,-1,36
 986 1731 986 1731 1038 1731 c 0,37,38
 1115 1731 1115 1731 1143 1812 c 1,39,-1
 1309 1812 l 1,21,22
EndSplineSet
Validated: 1
EndChar

StartChar: OE
Encoding: 338 338 83
Width: 2048
Flags: MW
LayerCount: 2
Back
Fore
SplineSet
1016 770 m 2,0,1
 1016 920 1016 920 950.5 1008 c 128,-1,2
 885 1096 885 1096 758 1096 c 128,-1,3
 631 1096 631 1096 565.5 1008 c 128,-1,4
 500 920 500 920 500 770 c 2,5,-1
 500 639 l 2,6,7
 500 489 500 489 565.5 401 c 128,-1,8
 631 313 631 313 758 313 c 128,-1,9
 885 313 885 313 950.5 401 c 128,-1,10
 1016 489 1016 489 1016 639 c 2,11,-1
 1016 770 l 2,0,1
1014 127 m 1,12,13
 868 -25 868 -25 633 -25 c 0,14,15
 365 -25 365 -25 218.5 166.5 c 128,-1,16
 72 358 72 358 72 705 c 128,-1,17
 72 1052 72 1052 218.5 1243 c 128,-1,18
 365 1434 365 1434 633 1434 c 0,19,20
 869 1434 869 1434 1014 1280 c 1,21,-1
 1014 1409 l 1,22,-1
 1978 1409 l 1,23,-1
 1978 1071 l 1,24,-1
 1411 1071 l 1,25,-1
 1411 877 l 1,26,-1
 1868 877 l 1,27,-1
 1868 553 l 1,28,-1
 1411 553 l 1,29,-1
 1411 338 l 1,30,-1
 1993 338 l 1,31,-1
 1993 0 l 1,32,-1
 1014 0 l 1,33,-1
 1014 127 l 1,12,13
EndSplineSet
Validated: 1
EndChar

StartChar: P
Encoding: 80 80 84
Width: 1478
Flags: MW
LayerCount: 2
Back
Fore
SplineSet
604 784 m 1,0,-1
 791 784 l 2,1,2
 861 784 861 784 897.5 820.5 c 128,-1,3
 934 857 934 857 934 922 c 2,4,-1
 934 938 l 2,5,6
 934 1003 934 1003 898.5 1039 c 128,-1,7
 863 1075 863 1075 791 1075 c 2,8,-1
 604 1075 l 1,9,-1
 604 784 l 1,0,-1
942 1409 m 2,10,11
 1140 1409 1140 1409 1266.5 1278 c 128,-1,12
 1393 1147 1393 1147 1393 946 c 2,13,-1
 1393 920 l 2,14,15
 1393 719 1393 719 1266.5 587 c 128,-1,16
 1140 455 1140 455 942 455 c 2,17,-1
 604 455 l 1,18,-1
 604 0 l 1,19,-1
 152 0 l 1,20,-1
 152 1409 l 1,21,-1
 942 1409 l 2,10,11
EndSplineSet
Validated: 1
EndChar

StartChar: Thorn
Encoding: 222 222 85
Width: 1478
Flags: MW
LayerCount: 2
Back
Fore
SplineSet
604 580 m 1,0,-1
 791 580 l 2,1,2
 862 580 862 580 898 616 c 128,-1,3
 934 652 934 652 934 717 c 2,4,-1
 934 733 l 2,5,6
 934 798 934 798 898.5 834 c 128,-1,7
 863 870 863 870 791 870 c 2,8,-1
 604 870 l 1,9,-1
 604 580 l 1,0,-1
942 1204 m 2,10,11
 1140 1204 1140 1204 1266.5 1073 c 128,-1,12
 1393 942 1393 942 1393 741 c 2,13,-1
 1393 715 l 2,14,15
 1393 514 1393 514 1266.5 382 c 128,-1,16
 1140 250 1140 250 942 250 c 2,17,-1
 604 250 l 1,18,-1
 604 0 l 1,19,-1
 152 0 l 1,20,-1
 152 1409 l 1,21,-1
 604 1409 l 1,22,-1
 604 1204 l 1,23,-1
 942 1204 l 2,10,11
EndSplineSet
Validated: 1
EndChar

StartChar: Q
Encoding: 81 81 86
Width: 1705
Flags: MW
LayerCount: 2
Back
Fore
SplineSet
1151 770 m 2,0,1
 1151 919 1151 919 1074 1007.5 c 128,-1,2
 997 1096 997 1096 852 1096 c 128,-1,3
 707 1096 707 1096 631 1008 c 128,-1,4
 555 920 555 920 555 770 c 2,5,-1
 555 639 l 2,6,7
 555 489 555 489 631 401 c 128,-1,8
 707 313 707 313 852 313 c 128,-1,9
 997 313 997 313 1074 401.5 c 128,-1,10
 1151 490 1151 490 1151 639 c 2,11,-1
 1151 770 l 2,0,1
831 -25 m 1,12,13
 475 -19 475 -19 283.5 166.5 c 128,-1,14
 92 352 92 352 92 705 c 0,15,16
 92 1062 92 1062 289.5 1248 c 128,-1,17
 487 1434 487 1434 852 1434 c 128,-1,18
 1217 1434 1217 1434 1415.5 1248 c 128,-1,19
 1614 1062 1614 1062 1614 705 c 0,20,21
 1614 468 1614 468 1524.5 304.5 c 128,-1,22
 1435 141 1435 141 1266 57 c 1,23,-1
 1587 -268 l 1,24,-1
 1049 -268 l 1,25,-1
 831 -25 l 1,12,13
EndSplineSet
Validated: 1
EndChar

StartChar: R
Encoding: 82 82 87
Width: 1593
Flags: MW
LayerCount: 2
Back
Fore
SplineSet
901 827 m 2,0,1
 954 827 954 827 991 864.5 c 128,-1,2
 1028 902 1028 902 1028 958 c 128,-1,3
 1028 1014 1028 1014 991 1050.5 c 128,-1,4
 954 1087 954 1087 901 1087 c 2,5,-1
 604 1087 l 1,6,-1
 604 827 l 1,7,-1
 901 827 l 2,0,1
1014 1409 m 2,8,9
 1128 1409 1128 1409 1220 1374 c 128,-1,10
 1312 1339 1312 1339 1369.5 1279 c 128,-1,11
 1427 1219 1427 1219 1458 1141.5 c 128,-1,12
 1489 1064 1489 1064 1489 977 c 0,13,14
 1489 849 1489 849 1419 744 c 128,-1,15
 1349 639 1349 639 1217 590 c 1,16,-1
 1530 0 l 1,17,-1
 1022 0 l 1,18,-1
 772 514 l 1,19,-1
 604 514 l 1,20,-1
 604 0 l 1,21,-1
 152 0 l 1,22,-1
 152 1409 l 1,23,-1
 1014 1409 l 2,8,9
EndSplineSet
Validated: 1
EndChar

StartChar: Racute
Encoding: 340 340 88
Width: 1593
Flags: MW
LayerCount: 2
Back
Fore
SplineSet
901 827 m 2,0,1
 954 827 954 827 991 864.5 c 128,-1,2
 1028 902 1028 902 1028 958 c 128,-1,3
 1028 1014 1028 1014 991 1050.5 c 128,-1,4
 954 1087 954 1087 901 1087 c 2,5,-1
 604 1087 l 1,6,-1
 604 827 l 1,7,-1
 901 827 l 2,0,1
1014 1409 m 2,8,9
 1128 1409 1128 1409 1220 1374 c 128,-1,10
 1312 1339 1312 1339 1369.5 1279 c 128,-1,11
 1427 1219 1427 1219 1458 1141.5 c 128,-1,12
 1489 1064 1489 1064 1489 977 c 0,13,14
 1489 849 1489 849 1419 744 c 128,-1,15
 1349 639 1349 639 1217 590 c 1,16,-1
 1530 0 l 1,17,-1
 1022 0 l 1,18,-1
 772 514 l 1,19,-1
 604 514 l 1,20,-1
 604 0 l 1,21,-1
 152 0 l 1,22,-1
 152 1409 l 1,23,-1
 1014 1409 l 2,8,9
578 1540 m 1,24,-1
 766 1812 l 1,25,-1
 1161 1812 l 1,26,-1
 1165 1804 l 1,27,-1
 838 1540 l 1,28,-1
 578 1540 l 1,24,-1
EndSplineSet
Validated: 1
EndChar

StartChar: Rcaron
Encoding: 344 344 89
Width: 1593
Flags: MW
LayerCount: 2
Back
Fore
SplineSet
901 827 m 2,0,1
 954 827 954 827 991 864.5 c 128,-1,2
 1028 902 1028 902 1028 958 c 128,-1,3
 1028 1014 1028 1014 991 1050.5 c 128,-1,4
 954 1087 954 1087 901 1087 c 2,5,-1
 604 1087 l 1,6,-1
 604 827 l 1,7,-1
 901 827 l 2,0,1
1014 1409 m 2,8,9
 1128 1409 1128 1409 1220 1374 c 128,-1,10
 1312 1339 1312 1339 1369.5 1279 c 128,-1,11
 1427 1219 1427 1219 1458 1141.5 c 128,-1,12
 1489 1064 1489 1064 1489 977 c 0,13,14
 1489 849 1489 849 1419 744 c 128,-1,15
 1349 639 1349 639 1217 590 c 1,16,-1
 1530 0 l 1,17,-1
 1022 0 l 1,18,-1
 772 514 l 1,19,-1
 604 514 l 1,20,-1
 604 0 l 1,21,-1
 152 0 l 1,22,-1
 152 1409 l 1,23,-1
 1014 1409 l 2,8,9
666 1516 m 1,24,-1
 381 1812 l 1,25,-1
 643 1812 l 1,26,-1
 795 1655 l 1,27,-1
 946 1812 l 1,28,-1
 1212 1812 l 1,29,-1
 928 1516 l 1,30,-1
 666 1516 l 1,24,-1
EndSplineSet
Validated: 1
EndChar

StartChar: Rcommaaccent
Encoding: 342 342 90
Width: 1593
Flags: MW
LayerCount: 2
Back
Fore
SplineSet
819 -547 m 1,0,-1
 682 -547 l 1,1,-1
 766 -358 l 1,2,-1
 664 -358 l 1,3,-1
 664 -121 l 1,4,-1
 930 -121 l 1,5,-1
 930 -344 l 1,6,-1
 819 -547 l 1,0,-1
901 827 m 2,7,8
 954 827 954 827 991 864.5 c 128,-1,9
 1028 902 1028 902 1028 958 c 128,-1,10
 1028 1014 1028 1014 991 1050.5 c 128,-1,11
 954 1087 954 1087 901 1087 c 2,12,-1
 604 1087 l 1,13,-1
 604 827 l 1,14,-1
 901 827 l 2,7,8
1014 1409 m 2,15,16
 1128 1409 1128 1409 1220 1374 c 128,-1,17
 1312 1339 1312 1339 1369.5 1279 c 128,-1,18
 1427 1219 1427 1219 1458 1141.5 c 128,-1,19
 1489 1064 1489 1064 1489 977 c 0,20,21
 1489 849 1489 849 1419 744 c 128,-1,22
 1349 639 1349 639 1217 590 c 1,23,-1
 1530 0 l 1,24,-1
 1022 0 l 1,25,-1
 772 514 l 1,26,-1
 604 514 l 1,27,-1
 604 0 l 1,28,-1
 152 0 l 1,29,-1
 152 1409 l 1,30,-1
 1014 1409 l 2,15,16
EndSplineSet
Validated: 1
EndChar

StartChar: S
Encoding: 83 83 91
Width: 1478
Flags: MW
LayerCount: 2
Back
Fore
SplineSet
516 477 m 1,0,1
 516 371 516 371 571.5 335 c 128,-1,2
 627 299 627 299 743 299 c 0,3,4
 782 299 782 299 810 301.5 c 128,-1,5
 838 304 838 304 872 312.5 c 128,-1,6
 906 321 906 321 924 341.5 c 128,-1,7
 942 362 942 362 942 393 c 0,8,9
 942 425 942 425 913.5 448.5 c 128,-1,10
 885 472 885 472 837 486.5 c 128,-1,11
 789 501 789 501 726.5 514 c 128,-1,12
 664 527 664 527 595 542.5 c 128,-1,13
 526 558 526 558 457.5 578 c 128,-1,14
 389 598 389 598 326.5 631.5 c 128,-1,15
 264 665 264 665 216 710 c 128,-1,16
 168 755 168 755 139.5 825 c 128,-1,17
 111 895 111 895 111 983 c 0,18,19
 111 1102 111 1102 162 1191 c 128,-1,20
 213 1280 213 1280 302.5 1332 c 128,-1,21
 392 1384 392 1384 502.5 1409 c 128,-1,22
 613 1434 613 1434 743 1434 c 128,-1,23
 873 1434 873 1434 983.5 1408 c 128,-1,24
 1094 1382 1094 1382 1179.5 1330 c 128,-1,25
 1265 1278 1265 1278 1314.5 1193.5 c 128,-1,26
 1364 1109 1364 1109 1366 999 c 1,27,-1
 1366 975 l 1,28,-1
 942 975 l 1,29,-1
 942 983 l 2,30,31
 942 1044 942 1044 897 1085 c 128,-1,32
 852 1126 852 1126 760 1126 c 0,33,34
 671 1126 671 1126 622 1099.5 c 128,-1,35
 573 1073 573 1073 573 1034 c 0,36,37
 573 1001 573 1001 601 976.5 c 128,-1,38
 629 952 629 952 677 937 c 128,-1,39
 725 922 725 922 786.5 909.5 c 128,-1,40
 848 897 848 897 916.5 882.5 c 128,-1,41
 985 868 985 868 1053.5 849 c 128,-1,42
 1122 830 1122 830 1184.5 798.5 c 128,-1,43
 1247 767 1247 767 1295.5 725 c 128,-1,44
 1344 683 1344 683 1373.5 617 c 128,-1,45
 1403 551 1403 551 1405 467 c 1,46,47
 1405 364 1405 364 1374 281.5 c 128,-1,48
 1343 199 1343 199 1288.5 142.5 c 128,-1,49
 1234 86 1234 86 1155.5 48 c 128,-1,50
 1077 10 1077 10 984.5 -7.5 c 128,-1,51
 892 -25 892 -25 784 -25 c 0,52,53
 659 -25 659 -25 559.5 -11.5 c 128,-1,54
 460 2 460 2 369.5 36.5 c 128,-1,55
 279 71 279 71 218.5 127 c 128,-1,56
 158 183 158 183 123 271.5 c 128,-1,57
 88 360 88 360 88 477 c 1,58,-1
 516 477 l 1,0,1
EndSplineSet
Validated: 1
EndChar

StartChar: Sacute
Encoding: 346 346 92
Width: 1478
Flags: MW
LayerCount: 2
Back
Fore
SplineSet
516 477 m 1,0,1
 516 371 516 371 571.5 335 c 128,-1,2
 627 299 627 299 743 299 c 0,3,4
 782 299 782 299 810 301.5 c 128,-1,5
 838 304 838 304 872 312.5 c 128,-1,6
 906 321 906 321 924 341.5 c 128,-1,7
 942 362 942 362 942 393 c 0,8,9
 942 425 942 425 913.5 448.5 c 128,-1,10
 885 472 885 472 837 486.5 c 128,-1,11
 789 501 789 501 726.5 514 c 128,-1,12
 664 527 664 527 595 542.5 c 128,-1,13
 526 558 526 558 457.5 578 c 128,-1,14
 389 598 389 598 326.5 631.5 c 128,-1,15
 264 665 264 665 216 710 c 128,-1,16
 168 755 168 755 139.5 825 c 128,-1,17
 111 895 111 895 111 983 c 0,18,19
 111 1102 111 1102 162 1191 c 128,-1,20
 213 1280 213 1280 302.5 1332 c 128,-1,21
 392 1384 392 1384 502.5 1409 c 128,-1,22
 613 1434 613 1434 743 1434 c 128,-1,23
 873 1434 873 1434 983.5 1408 c 128,-1,24
 1094 1382 1094 1382 1179.5 1330 c 128,-1,25
 1265 1278 1265 1278 1314.5 1193.5 c 128,-1,26
 1364 1109 1364 1109 1366 999 c 1,27,-1
 1366 975 l 1,28,-1
 942 975 l 1,29,-1
 942 983 l 2,30,31
 942 1044 942 1044 897 1085 c 128,-1,32
 852 1126 852 1126 760 1126 c 0,33,34
 671 1126 671 1126 622 1099.5 c 128,-1,35
 573 1073 573 1073 573 1034 c 0,36,37
 573 1001 573 1001 601 976.5 c 128,-1,38
 629 952 629 952 677 937 c 128,-1,39
 725 922 725 922 786.5 909.5 c 128,-1,40
 848 897 848 897 916.5 882.5 c 128,-1,41
 985 868 985 868 1053.5 849 c 128,-1,42
 1122 830 1122 830 1184.5 798.5 c 128,-1,43
 1247 767 1247 767 1295.5 725 c 128,-1,44
 1344 683 1344 683 1373.5 617 c 128,-1,45
 1403 551 1403 551 1405 467 c 1,46,47
 1405 364 1405 364 1374 281.5 c 128,-1,48
 1343 199 1343 199 1288.5 142.5 c 128,-1,49
 1234 86 1234 86 1155.5 48 c 128,-1,50
 1077 10 1077 10 984.5 -7.5 c 128,-1,51
 892 -25 892 -25 784 -25 c 0,52,53
 659 -25 659 -25 559.5 -11.5 c 128,-1,54
 460 2 460 2 369.5 36.5 c 128,-1,55
 279 71 279 71 218.5 127 c 128,-1,56
 158 183 158 183 123 271.5 c 128,-1,57
 88 360 88 360 88 477 c 1,58,-1
 516 477 l 1,0,1
543 1540 m 1,59,-1
 731 1812 l 1,60,-1
 1126 1812 l 1,61,-1
 1130 1804 l 1,62,-1
 805 1540 l 1,63,-1
 543 1540 l 1,59,-1
EndSplineSet
Validated: 1
EndChar

StartChar: Scaron
Encoding: 352 352 93
Width: 1478
Flags: MW
LayerCount: 2
Back
Fore
SplineSet
516 477 m 1,0,1
 516 371 516 371 571.5 335 c 128,-1,2
 627 299 627 299 743 299 c 0,3,4
 782 299 782 299 810 301.5 c 128,-1,5
 838 304 838 304 872 312.5 c 128,-1,6
 906 321 906 321 924 341.5 c 128,-1,7
 942 362 942 362 942 393 c 0,8,9
 942 425 942 425 913.5 448.5 c 128,-1,10
 885 472 885 472 837 486.5 c 128,-1,11
 789 501 789 501 726.5 514 c 128,-1,12
 664 527 664 527 595 542.5 c 128,-1,13
 526 558 526 558 457.5 578 c 128,-1,14
 389 598 389 598 326.5 631.5 c 128,-1,15
 264 665 264 665 216 710 c 128,-1,16
 168 755 168 755 139.5 825 c 128,-1,17
 111 895 111 895 111 983 c 0,18,19
 111 1102 111 1102 162 1191 c 128,-1,20
 213 1280 213 1280 302.5 1332 c 128,-1,21
 392 1384 392 1384 502.5 1409 c 128,-1,22
 613 1434 613 1434 743 1434 c 128,-1,23
 873 1434 873 1434 983.5 1408 c 128,-1,24
 1094 1382 1094 1382 1179.5 1330 c 128,-1,25
 1265 1278 1265 1278 1314.5 1193.5 c 128,-1,26
 1364 1109 1364 1109 1366 999 c 1,27,-1
 1366 975 l 1,28,-1
 942 975 l 1,29,-1
 942 983 l 2,30,31
 942 1044 942 1044 897 1085 c 128,-1,32
 852 1126 852 1126 760 1126 c 0,33,34
 671 1126 671 1126 622 1099.5 c 128,-1,35
 573 1073 573 1073 573 1034 c 0,36,37
 573 1001 573 1001 601 976.5 c 128,-1,38
 629 952 629 952 677 937 c 128,-1,39
 725 922 725 922 786.5 909.5 c 128,-1,40
 848 897 848 897 916.5 882.5 c 128,-1,41
 985 868 985 868 1053.5 849 c 128,-1,42
 1122 830 1122 830 1184.5 798.5 c 128,-1,43
 1247 767 1247 767 1295.5 725 c 128,-1,44
 1344 683 1344 683 1373.5 617 c 128,-1,45
 1403 551 1403 551 1405 467 c 1,46,47
 1405 364 1405 364 1374 281.5 c 128,-1,48
 1343 199 1343 199 1288.5 142.5 c 128,-1,49
 1234 86 1234 86 1155.5 48 c 128,-1,50
 1077 10 1077 10 984.5 -7.5 c 128,-1,51
 892 -25 892 -25 784 -25 c 0,52,53
 659 -25 659 -25 559.5 -11.5 c 128,-1,54
 460 2 460 2 369.5 36.5 c 128,-1,55
 279 71 279 71 218.5 127 c 128,-1,56
 158 183 158 183 123 271.5 c 128,-1,57
 88 360 88 360 88 477 c 1,58,-1
 516 477 l 1,0,1
608 1516 m 1,59,-1
 324 1812 l 1,60,-1
 586 1812 l 1,61,-1
 737 1655 l 1,62,-1
 891 1812 l 1,63,-1
 1155 1812 l 1,64,-1
 870 1516 l 1,65,-1
 608 1516 l 1,59,-1
EndSplineSet
Validated: 1
EndChar

StartChar: Scedilla
Encoding: 350 350 94
Width: 1478
Flags: MW
LayerCount: 2
Back
Fore
SplineSet
516 477 m 1,0,1
 516 371 516 371 571.5 335 c 128,-1,2
 627 299 627 299 743 299 c 0,3,4
 782 299 782 299 810 301.5 c 128,-1,5
 838 304 838 304 872 312.5 c 128,-1,6
 906 321 906 321 924 341.5 c 128,-1,7
 942 362 942 362 942 393 c 0,8,9
 942 425 942 425 913.5 448.5 c 128,-1,10
 885 472 885 472 837 486.5 c 128,-1,11
 789 501 789 501 726.5 514 c 128,-1,12
 664 527 664 527 595 542.5 c 128,-1,13
 526 558 526 558 457.5 578 c 128,-1,14
 389 598 389 598 326.5 631.5 c 128,-1,15
 264 665 264 665 216 710 c 128,-1,16
 168 755 168 755 139.5 825 c 128,-1,17
 111 895 111 895 111 983 c 0,18,19
 111 1102 111 1102 162 1191 c 128,-1,20
 213 1280 213 1280 302.5 1332 c 128,-1,21
 392 1384 392 1384 502.5 1409 c 128,-1,22
 613 1434 613 1434 743 1434 c 128,-1,23
 873 1434 873 1434 983.5 1408 c 128,-1,24
 1094 1382 1094 1382 1179.5 1330 c 128,-1,25
 1265 1278 1265 1278 1314.5 1193.5 c 128,-1,26
 1364 1109 1364 1109 1366 999 c 1,27,-1
 1366 975 l 1,28,-1
 942 975 l 1,29,-1
 942 983 l 2,30,31
 942 1044 942 1044 897 1085 c 128,-1,32
 852 1126 852 1126 760 1126 c 0,33,34
 671 1126 671 1126 622 1099.5 c 128,-1,35
 573 1073 573 1073 573 1034 c 0,36,37
 573 1001 573 1001 601 976.5 c 128,-1,38
 629 952 629 952 677 937 c 128,-1,39
 725 922 725 922 786.5 909.5 c 128,-1,40
 848 897 848 897 916.5 882.5 c 128,-1,41
 985 868 985 868 1053.5 849 c 128,-1,42
 1122 830 1122 830 1184.5 798.5 c 128,-1,43
 1247 767 1247 767 1295.5 725 c 128,-1,44
 1344 683 1344 683 1373.5 617 c 128,-1,45
 1403 551 1403 551 1405 467 c 1,46,47
 1405 342 1405 342 1360 247 c 128,-1,48
 1315 152 1315 152 1233.5 94 c 128,-1,49
 1152 36 1152 36 1044.5 6.5 c 128,-1,50
 937 -23 937 -23 805 -25 c 1,51,-1
 801 -59 l 1,52,53
 884 -67 884 -67 936.5 -110.5 c 128,-1,54
 989 -154 989 -154 989 -242 c 0,55,56
 989 -297 989 -297 965.5 -337 c 128,-1,57
 942 -377 942 -377 903.5 -396 c 128,-1,58
 865 -415 865 -415 827 -423.5 c 128,-1,59
 789 -432 789 -432 748 -432 c 0,60,61
 590 -432 590 -432 489 -399 c 1,62,-1
 489 -289 l 1,63,64
 623 -305 623 -305 729 -305 c 0,65,66
 811 -305 811 -305 811 -242 c 0,67,68
 811 -176 811 -176 733 -176 c 2,69,-1
 655 -176 l 1,70,-1
 680 -23 l 1,71,72
 573 -17 573 -17 486.5 1 c 128,-1,73
 400 19 400 19 324 56 c 128,-1,74
 248 93 248 93 197 148.5 c 128,-1,75
 146 204 146 204 117 287 c 128,-1,76
 88 370 88 370 88 477 c 1,77,-1
 516 477 l 1,0,1
EndSplineSet
Validated: 1
EndChar

StartChar: Scircumflex
Encoding: 348 348 95
Width: 1478
Flags: MW
LayerCount: 2
Back
Fore
SplineSet
516 477 m 1,0,1
 516 371 516 371 571.5 335 c 128,-1,2
 627 299 627 299 743 299 c 0,3,4
 782 299 782 299 810 301.5 c 128,-1,5
 838 304 838 304 872 312.5 c 128,-1,6
 906 321 906 321 924 341.5 c 128,-1,7
 942 362 942 362 942 393 c 0,8,9
 942 425 942 425 913.5 448.5 c 128,-1,10
 885 472 885 472 837 486.5 c 128,-1,11
 789 501 789 501 726.5 514 c 128,-1,12
 664 527 664 527 595 542.5 c 128,-1,13
 526 558 526 558 457.5 578 c 128,-1,14
 389 598 389 598 326.5 631.5 c 128,-1,15
 264 665 264 665 216 710 c 128,-1,16
 168 755 168 755 139.5 825 c 128,-1,17
 111 895 111 895 111 983 c 0,18,19
 111 1102 111 1102 162 1191 c 128,-1,20
 213 1280 213 1280 302.5 1332 c 128,-1,21
 392 1384 392 1384 502.5 1409 c 128,-1,22
 613 1434 613 1434 743 1434 c 128,-1,23
 873 1434 873 1434 983.5 1408 c 128,-1,24
 1094 1382 1094 1382 1179.5 1330 c 128,-1,25
 1265 1278 1265 1278 1314.5 1193.5 c 128,-1,26
 1364 1109 1364 1109 1366 999 c 1,27,-1
 1366 975 l 1,28,-1
 942 975 l 1,29,-1
 942 983 l 2,30,31
 942 1044 942 1044 897 1085 c 128,-1,32
 852 1126 852 1126 760 1126 c 0,33,34
 671 1126 671 1126 622 1099.5 c 128,-1,35
 573 1073 573 1073 573 1034 c 0,36,37
 573 1001 573 1001 601 976.5 c 128,-1,38
 629 952 629 952 677 937 c 128,-1,39
 725 922 725 922 786.5 909.5 c 128,-1,40
 848 897 848 897 916.5 882.5 c 128,-1,41
 985 868 985 868 1053.5 849 c 128,-1,42
 1122 830 1122 830 1184.5 798.5 c 128,-1,43
 1247 767 1247 767 1295.5 725 c 128,-1,44
 1344 683 1344 683 1373.5 617 c 128,-1,45
 1403 551 1403 551 1405 467 c 1,46,47
 1405 364 1405 364 1374 281.5 c 128,-1,48
 1343 199 1343 199 1288.5 142.5 c 128,-1,49
 1234 86 1234 86 1155.5 48 c 128,-1,50
 1077 10 1077 10 984.5 -7.5 c 128,-1,51
 892 -25 892 -25 784 -25 c 0,52,53
 659 -25 659 -25 559.5 -11.5 c 128,-1,54
 460 2 460 2 369.5 36.5 c 128,-1,55
 279 71 279 71 218.5 127 c 128,-1,56
 158 183 158 183 123 271.5 c 128,-1,57
 88 360 88 360 88 477 c 1,58,-1
 516 477 l 1,0,1
891 1516 m 1,59,-1
 737 1673 l 1,60,-1
 586 1516 l 1,61,-1
 324 1516 l 1,62,-1
 608 1812 l 1,63,-1
 870 1812 l 1,64,-1
 1155 1516 l 1,65,-1
 891 1516 l 1,59,-1
EndSplineSet
Validated: 1
EndChar

StartChar: Scommaaccent
Encoding: 536 536 96
Width: 1478
Flags: MW
LayerCount: 2
Back
Fore
SplineSet
762 -547 m 1,0,-1
 625 -547 l 1,1,-1
 709 -358 l 1,2,-1
 606 -358 l 1,3,-1
 606 -121 l 1,4,-1
 872 -121 l 1,5,-1
 872 -344 l 1,6,-1
 762 -547 l 1,0,-1
516 477 m 1,7,8
 516 371 516 371 571.5 335 c 128,-1,9
 627 299 627 299 743 299 c 0,10,11
 782 299 782 299 810 301.5 c 128,-1,12
 838 304 838 304 872 312.5 c 128,-1,13
 906 321 906 321 924 341.5 c 128,-1,14
 942 362 942 362 942 393 c 0,15,16
 942 425 942 425 913.5 448.5 c 128,-1,17
 885 472 885 472 837 486.5 c 128,-1,18
 789 501 789 501 726.5 514 c 128,-1,19
 664 527 664 527 595 542.5 c 128,-1,20
 526 558 526 558 457.5 578 c 128,-1,21
 389 598 389 598 326.5 631.5 c 128,-1,22
 264 665 264 665 216 710 c 128,-1,23
 168 755 168 755 139.5 825 c 128,-1,24
 111 895 111 895 111 983 c 0,25,26
 111 1102 111 1102 162 1191 c 128,-1,27
 213 1280 213 1280 302.5 1332 c 128,-1,28
 392 1384 392 1384 502.5 1409 c 128,-1,29
 613 1434 613 1434 743 1434 c 128,-1,30
 873 1434 873 1434 983.5 1408 c 128,-1,31
 1094 1382 1094 1382 1179.5 1330 c 128,-1,32
 1265 1278 1265 1278 1314.5 1193.5 c 128,-1,33
 1364 1109 1364 1109 1366 999 c 1,34,-1
 1366 975 l 1,35,-1
 942 975 l 1,36,-1
 942 983 l 2,37,38
 942 1044 942 1044 897 1085 c 128,-1,39
 852 1126 852 1126 760 1126 c 0,40,41
 671 1126 671 1126 622 1099.5 c 128,-1,42
 573 1073 573 1073 573 1034 c 0,43,44
 573 1001 573 1001 601 976.5 c 128,-1,45
 629 952 629 952 677 937 c 128,-1,46
 725 922 725 922 786.5 909.5 c 128,-1,47
 848 897 848 897 916.5 882.5 c 128,-1,48
 985 868 985 868 1053.5 849 c 128,-1,49
 1122 830 1122 830 1184.5 798.5 c 128,-1,50
 1247 767 1247 767 1295.5 725 c 128,-1,51
 1344 683 1344 683 1373.5 617 c 128,-1,52
 1403 551 1403 551 1405 467 c 1,53,54
 1405 364 1405 364 1374 281.5 c 128,-1,55
 1343 199 1343 199 1288.5 142.5 c 128,-1,56
 1234 86 1234 86 1155.5 48 c 128,-1,57
 1077 10 1077 10 984.5 -7.5 c 128,-1,58
 892 -25 892 -25 784 -25 c 0,59,60
 659 -25 659 -25 559.5 -11.5 c 128,-1,61
 460 2 460 2 369.5 36.5 c 128,-1,62
 279 71 279 71 218.5 127 c 128,-1,63
 158 183 158 183 123 271.5 c 128,-1,64
 88 360 88 360 88 477 c 1,65,-1
 516 477 l 1,7,8
EndSplineSet
Validated: 1
EndChar

StartChar: T
Encoding: 84 84 97
Width: 1478
Flags: MW
LayerCount: 2
Back
Fore
SplineSet
963 1049 m 1,0,-1
 963 0 l 1,1,-1
 510 0 l 1,2,-1
 510 1049 l 1,3,-1
 47 1049 l 1,4,-1
 47 1409 l 1,5,-1
 1423 1409 l 1,6,-1
 1423 1049 l 1,7,-1
 963 1049 l 1,0,-1
EndSplineSet
Validated: 1
EndChar

StartChar: Tbar
Encoding: 358 358 98
Width: 1478
Flags: MW
LayerCount: 2
Back
Fore
SplineSet
963 551 m 1,0,-1
 963 0 l 1,1,-1
 510 0 l 1,2,-1
 510 551 l 1,3,-1
 176 551 l 1,4,-1
 176 756 l 1,5,-1
 510 756 l 1,6,-1
 510 1049 l 1,7,-1
 47 1049 l 1,8,-1
 47 1409 l 1,9,-1
 1423 1409 l 1,10,-1
 1423 1049 l 1,11,-1
 963 1049 l 1,12,-1
 963 756 l 1,13,-1
 1294 756 l 1,14,-1
 1294 551 l 1,15,-1
 963 551 l 1,0,-1
EndSplineSet
Validated: 1
EndChar

StartChar: Tcaron
Encoding: 356 356 99
Width: 1478
Flags: MW
LayerCount: 2
Back
Fore
SplineSet
963 1049 m 1,0,-1
 963 0 l 1,1,-1
 510 0 l 1,2,-1
 510 1049 l 1,3,-1
 47 1049 l 1,4,-1
 47 1409 l 1,5,-1
 1423 1409 l 1,6,-1
 1423 1049 l 1,7,-1
 963 1049 l 1,0,-1
608 1516 m 1,8,-1
 324 1812 l 1,9,-1
 586 1812 l 1,10,-1
 737 1655 l 1,11,-1
 891 1812 l 1,12,-1
 1155 1812 l 1,13,-1
 870 1516 l 1,14,-1
 608 1516 l 1,8,-1
EndSplineSet
Validated: 1
EndChar

StartChar: Tcedilla
Encoding: 354 354 100
Width: 1478
Flags: MW
LayerCount: 2
Back
Fore
SplineSet
809 0 m 1,0,-1
 799 -59 l 1,1,2
 989 -78 989 -78 989 -242 c 0,3,4
 989 -287 989 -287 972.5 -321.5 c 128,-1,5
 956 -356 956 -356 931.5 -376.5 c 128,-1,6
 907 -397 907 -397 873.5 -410 c 128,-1,7
 840 -423 840 -423 809.5 -427.5 c 128,-1,8
 779 -432 779 -432 748 -432 c 0,9,10
 586 -432 586 -432 489 -399 c 1,11,-1
 489 -289 l 1,12,13
 623 -305 623 -305 729 -305 c 0,14,15
 811 -305 811 -305 811 -242 c 0,16,17
 811 -176 811 -176 733 -176 c 2,18,-1
 655 -176 l 1,19,-1
 682 0 l 1,20,-1
 510 0 l 1,21,-1
 510 1049 l 1,22,-1
 47 1049 l 1,23,-1
 47 1409 l 1,24,-1
 1423 1409 l 1,25,-1
 1423 1049 l 1,26,-1
 963 1049 l 1,27,-1
 963 0 l 1,28,-1
 809 0 l 1,0,-1
EndSplineSet
Validated: 1
EndChar

StartChar: uni021A
Encoding: 538 538 101
Width: 1478
Flags: MW
LayerCount: 2
Back
Fore
SplineSet
762 -547 m 1,0,-1
 625 -547 l 1,1,-1
 709 -358 l 1,2,-1
 606 -358 l 1,3,-1
 606 -121 l 1,4,-1
 872 -121 l 1,5,-1
 872 -344 l 1,6,-1
 762 -547 l 1,0,-1
963 1049 m 1,7,-1
 963 0 l 1,8,-1
 510 0 l 1,9,-1
 510 1049 l 1,10,-1
 47 1049 l 1,11,-1
 47 1409 l 1,12,-1
 1423 1409 l 1,13,-1
 1423 1049 l 1,14,-1
 963 1049 l 1,7,-1
EndSplineSet
Validated: 1
EndChar

StartChar: U
Encoding: 85 85 102
Width: 1705
Flags: MW
LayerCount: 2
Back
Fore
SplineSet
1554 567 m 2,0,1
 1554 278 1554 278 1371.5 126.5 c 128,-1,2
 1189 -25 1189 -25 854 -25 c 128,-1,3
 519 -25 519 -25 335.5 126.5 c 128,-1,4
 152 278 152 278 152 567 c 2,5,-1
 152 1409 l 1,6,-1
 604 1409 l 1,7,-1
 604 573 l 2,8,9
 604 455 604 455 667.5 384 c 128,-1,10
 731 313 731 313 852 313 c 128,-1,11
 973 313 973 313 1037.5 384 c 128,-1,12
 1102 455 1102 455 1102 573 c 2,13,-1
 1102 1409 l 1,14,-1
 1554 1409 l 1,15,-1
 1554 567 l 2,0,1
EndSplineSet
Validated: 1
EndChar

StartChar: Uacute
Encoding: 218 218 103
Width: 1705
Flags: MW
LayerCount: 2
Back
Fore
SplineSet
1554 567 m 2,0,1
 1554 278 1554 278 1371.5 126.5 c 128,-1,2
 1189 -25 1189 -25 854 -25 c 128,-1,3
 519 -25 519 -25 335.5 126.5 c 128,-1,4
 152 278 152 278 152 567 c 2,5,-1
 152 1409 l 1,6,-1
 604 1409 l 1,7,-1
 604 573 l 2,8,9
 604 455 604 455 667.5 384 c 128,-1,10
 731 313 731 313 852 313 c 128,-1,11
 973 313 973 313 1037.5 384 c 128,-1,12
 1102 455 1102 455 1102 573 c 2,13,-1
 1102 1409 l 1,14,-1
 1554 1409 l 1,15,-1
 1554 567 l 2,0,1
655 1540 m 1,16,-1
 846 1812 l 1,17,-1
 1239 1812 l 1,18,-1
 1243 1804 l 1,19,-1
 918 1540 l 1,20,-1
 655 1540 l 1,16,-1
EndSplineSet
Validated: 1
EndChar

StartChar: Ubreve
Encoding: 364 364 104
Width: 1705
Flags: MW
LayerCount: 2
Back
Fore
SplineSet
1554 567 m 2,0,1
 1554 278 1554 278 1371.5 126.5 c 128,-1,2
 1189 -25 1189 -25 854 -25 c 128,-1,3
 519 -25 519 -25 335.5 126.5 c 128,-1,4
 152 278 152 278 152 567 c 2,5,-1
 152 1409 l 1,6,-1
 604 1409 l 1,7,-1
 604 573 l 2,8,9
 604 455 604 455 667.5 384 c 128,-1,10
 731 313 731 313 852 313 c 128,-1,11
 973 313 973 313 1037.5 384 c 128,-1,12
 1102 455 1102 455 1102 573 c 2,13,-1
 1102 1409 l 1,14,-1
 1554 1409 l 1,15,-1
 1554 567 l 2,0,1
1231 1812 m 1,16,17
 1231 1760 1231 1760 1204 1708 c 128,-1,18
 1177 1656 1177 1656 1129.5 1613.5 c 128,-1,19
 1082 1571 1082 1571 1009 1544.5 c 128,-1,20
 936 1518 936 1518 852 1518 c 0,21,22
 685 1518 685 1518 580 1609.5 c 128,-1,23
 475 1701 475 1701 475 1812 c 1,24,-1
 672 1812 l 1,25,26
 679 1776 679 1776 730.5 1743 c 128,-1,27
 782 1710 782 1710 852 1710 c 0,28,29
 923 1710 923 1710 976 1743 c 128,-1,30
 1029 1776 1029 1776 1036 1812 c 1,31,-1
 1231 1812 l 1,16,17
EndSplineSet
Validated: 1
EndChar

StartChar: Ucircumflex
Encoding: 219 219 105
Width: 1705
Flags: MW
LayerCount: 2
Back
Fore
SplineSet
1554 567 m 2,0,1
 1554 278 1554 278 1371.5 126.5 c 128,-1,2
 1189 -25 1189 -25 854 -25 c 128,-1,3
 519 -25 519 -25 335.5 126.5 c 128,-1,4
 152 278 152 278 152 567 c 2,5,-1
 152 1409 l 1,6,-1
 604 1409 l 1,7,-1
 604 573 l 2,8,9
 604 455 604 455 667.5 384 c 128,-1,10
 731 313 731 313 852 313 c 128,-1,11
 973 313 973 313 1037.5 384 c 128,-1,12
 1102 455 1102 455 1102 573 c 2,13,-1
 1102 1409 l 1,14,-1
 1554 1409 l 1,15,-1
 1554 567 l 2,0,1
1004 1516 m 1,16,-1
 852 1673 l 1,17,-1
 698 1516 l 1,18,-1
 436 1516 l 1,19,-1
 723 1812 l 1,20,-1
 983 1812 l 1,21,-1
 1270 1516 l 1,22,-1
 1004 1516 l 1,16,-1
EndSplineSet
Validated: 1
EndChar

StartChar: Udieresis
Encoding: 220 220 106
Width: 1705
Flags: MW
LayerCount: 2
Back
Fore
SplineSet
1554 567 m 2,0,1
 1554 278 1554 278 1371.5 126.5 c 128,-1,2
 1189 -25 1189 -25 854 -25 c 128,-1,3
 519 -25 519 -25 335.5 126.5 c 128,-1,4
 152 278 152 278 152 567 c 2,5,-1
 152 1409 l 1,6,-1
 604 1409 l 1,7,-1
 604 573 l 2,8,9
 604 455 604 455 667.5 384 c 128,-1,10
 731 313 731 313 852 313 c 128,-1,11
 973 313 973 313 1037.5 384 c 128,-1,12
 1102 455 1102 455 1102 573 c 2,13,-1
 1102 1409 l 1,14,-1
 1554 1409 l 1,15,-1
 1554 567 l 2,0,1
924 1528 m 1,16,-1
 924 1812 l 1,17,-1
 1235 1812 l 1,18,-1
 1235 1528 l 1,19,-1
 924 1528 l 1,16,-1
471 1528 m 1,20,-1
 471 1812 l 1,21,-1
 782 1812 l 1,22,-1
 782 1528 l 1,23,-1
 471 1528 l 1,20,-1
EndSplineSet
Validated: 1
EndChar

StartChar: Ugrave
Encoding: 217 217 107
Width: 1705
Flags: MW
LayerCount: 2
Back
Fore
SplineSet
1554 567 m 2,0,1
 1554 278 1554 278 1371.5 126.5 c 128,-1,2
 1189 -25 1189 -25 854 -25 c 128,-1,3
 519 -25 519 -25 335.5 126.5 c 128,-1,4
 152 278 152 278 152 567 c 2,5,-1
 152 1409 l 1,6,-1
 604 1409 l 1,7,-1
 604 573 l 2,8,9
 604 455 604 455 667.5 384 c 128,-1,10
 731 313 731 313 852 313 c 128,-1,11
 973 313 973 313 1037.5 384 c 128,-1,12
 1102 455 1102 455 1102 573 c 2,13,-1
 1102 1409 l 1,14,-1
 1554 1409 l 1,15,-1
 1554 567 l 2,0,1
463 1804 m 1,16,-1
 467 1812 l 1,17,-1
 860 1812 l 1,18,-1
 1051 1540 l 1,19,-1
 791 1540 l 1,20,-1
 463 1804 l 1,16,-1
EndSplineSet
Validated: 1
EndChar

StartChar: Uhungarumlaut
Encoding: 368 368 108
Width: 1705
Flags: MW
LayerCount: 2
Back
Fore
SplineSet
1554 567 m 2,0,1
 1554 278 1554 278 1371.5 126.5 c 128,-1,2
 1189 -25 1189 -25 854 -25 c 128,-1,3
 519 -25 519 -25 335.5 126.5 c 128,-1,4
 152 278 152 278 152 567 c 2,5,-1
 152 1409 l 1,6,-1
 604 1409 l 1,7,-1
 604 573 l 2,8,9
 604 455 604 455 667.5 384 c 128,-1,10
 731 313 731 313 852 313 c 128,-1,11
 973 313 973 313 1037.5 384 c 128,-1,12
 1102 455 1102 455 1102 573 c 2,13,-1
 1102 1409 l 1,14,-1
 1554 1409 l 1,15,-1
 1554 567 l 2,0,1
1176 1540 m 1,16,-1
 936 1540 l 1,17,-1
 1092 1815 l 1,18,-1
 1456 1815 l 1,19,-1
 1460 1806 l 1,20,-1
 1176 1540 l 1,16,-1
743 1540 m 1,21,-1
 504 1540 l 1,22,-1
 659 1815 l 1,23,-1
 1024 1815 l 1,24,-1
 1028 1806 l 1,25,-1
 743 1540 l 1,21,-1
EndSplineSet
Validated: 1
EndChar

StartChar: Umacron
Encoding: 362 362 109
Width: 1705
Flags: MW
LayerCount: 2
Back
Fore
SplineSet
1554 567 m 2,0,1
 1554 278 1554 278 1371.5 126.5 c 128,-1,2
 1189 -25 1189 -25 854 -25 c 128,-1,3
 519 -25 519 -25 335.5 126.5 c 128,-1,4
 152 278 152 278 152 567 c 2,5,-1
 152 1409 l 1,6,-1
 604 1409 l 1,7,-1
 604 573 l 2,8,9
 604 455 604 455 667.5 384 c 128,-1,10
 731 313 731 313 852 313 c 128,-1,11
 973 313 973 313 1037.5 384 c 128,-1,12
 1102 455 1102 455 1102 573 c 2,13,-1
 1102 1409 l 1,14,-1
 1554 1409 l 1,15,-1
 1554 567 l 2,0,1
528 1567 m 1,16,-1
 528 1772 l 1,17,-1
 1178 1772 l 1,18,-1
 1178 1567 l 1,19,-1
 528 1567 l 1,16,-1
EndSplineSet
Validated: 1
EndChar

StartChar: Uogonek
Encoding: 370 370 110
Width: 1705
Flags: MW
LayerCount: 2
Back
Fore
SplineSet
1554 567 m 2,0,1
 1554 351 1554 351 1450.5 211.5 c 128,-1,2
 1347 72 1347 72 1153 14 c 1,3,4
 1114 -67 1114 -67 1114 -141 c 0,5,6
 1114 -186 1114 -186 1143.5 -216 c 128,-1,7
 1173 -246 1173 -246 1237 -246 c 2,8,-1
 1323 -246 l 1,9,-1
 1323 -401 l 1,10,11
 1225 -432 1225 -432 1126 -432 c 0,12,13
 1075 -432 1075 -432 1030 -419 c 128,-1,14
 985 -406 985 -406 948 -379 c 128,-1,15
 911 -352 911 -352 889.5 -306 c 128,-1,16
 868 -260 868 -260 868 -199 c 0,17,18
 868 -107 868 -107 934 -23 c 1,19,20
 907 -25 907 -25 854 -25 c 0,21,22
 519 -25 519 -25 335.5 126.5 c 128,-1,23
 152 278 152 278 152 567 c 2,24,-1
 152 1409 l 1,25,-1
 604 1409 l 1,26,-1
 604 573 l 2,27,28
 604 455 604 455 667.5 384 c 128,-1,29
 731 313 731 313 852 313 c 128,-1,30
 973 313 973 313 1037.5 384 c 128,-1,31
 1102 455 1102 455 1102 573 c 2,32,-1
 1102 1409 l 1,33,-1
 1554 1409 l 1,34,-1
 1554 567 l 2,0,1
EndSplineSet
Validated: 1
EndChar

StartChar: Uring
Encoding: 366 366 111
Width: 1705
Flags: MW
LayerCount: 2
Back
Fore
SplineSet
1554 567 m 2,0,1
 1554 278 1554 278 1371.5 126.5 c 128,-1,2
 1189 -25 1189 -25 854 -25 c 128,-1,3
 519 -25 519 -25 335.5 126.5 c 128,-1,4
 152 278 152 278 152 567 c 2,5,-1
 152 1409 l 1,6,-1
 604 1409 l 1,7,-1
 604 573 l 2,8,9
 604 455 604 455 667.5 384 c 128,-1,10
 731 313 731 313 852 313 c 128,-1,11
 973 313 973 313 1037.5 384 c 128,-1,12
 1102 455 1102 455 1102 573 c 2,13,-1
 1102 1409 l 1,14,-1
 1554 1409 l 1,15,-1
 1554 567 l 2,0,1
854 1812 m 0,16,17
 817 1812 817 1812 793.5 1789 c 128,-1,18
 770 1766 770 1766 770 1729 c 0,19,20
 770 1694 770 1694 794 1671.5 c 128,-1,21
 818 1649 818 1649 854 1649 c 0,22,23
 889 1649 889 1649 912.5 1672.5 c 128,-1,24
 936 1696 936 1696 936 1733 c 0,25,26
 936 1768 936 1768 912 1790 c 128,-1,27
 888 1812 888 1812 854 1812 c 0,16,17
854 1954 m 0,28,29
 945 1954 945 1954 1010 1889 c 128,-1,30
 1075 1824 1075 1824 1075 1731 c 0,31,32
 1075 1640 1075 1640 1010.5 1574.5 c 128,-1,33
 946 1509 946 1509 854 1509 c 128,-1,34
 762 1509 762 1509 696.5 1574 c 128,-1,35
 631 1639 631 1639 631 1731 c 0,36,37
 631 1824 631 1824 696 1889 c 128,-1,38
 761 1954 761 1954 854 1954 c 0,28,29
EndSplineSet
Validated: 1
EndChar

StartChar: Utilde
Encoding: 360 360 112
Width: 1705
Flags: MW
LayerCount: 2
Back
Fore
SplineSet
1554 567 m 2,0,1
 1554 278 1554 278 1371.5 126.5 c 128,-1,2
 1189 -25 1189 -25 854 -25 c 128,-1,3
 519 -25 519 -25 335.5 126.5 c 128,-1,4
 152 278 152 278 152 567 c 2,5,-1
 152 1409 l 1,6,-1
 604 1409 l 1,7,-1
 604 573 l 2,8,9
 604 455 604 455 667.5 384 c 128,-1,10
 731 313 731 313 852 313 c 128,-1,11
 973 313 973 313 1037.5 384 c 128,-1,12
 1102 455 1102 455 1102 573 c 2,13,-1
 1102 1409 l 1,14,-1
 1554 1409 l 1,15,-1
 1554 567 l 2,0,1
1309 1812 m 1,16,17
 1309 1697 1309 1697 1227.5 1608.5 c 128,-1,18
 1146 1520 1146 1520 1022 1520 c 0,19,20
 954 1520 954 1520 837 1561 c 128,-1,21
 720 1602 720 1602 668 1602 c 0,22,23
 630 1602 630 1602 603 1579.5 c 128,-1,24
 576 1557 576 1557 563 1520 c 1,25,-1
 397 1520 l 1,26,27
 397 1635 397 1635 478.5 1723.5 c 128,-1,28
 560 1812 560 1812 684 1812 c 0,29,30
 752 1812 752 1812 869 1771.5 c 128,-1,31
 986 1731 986 1731 1038 1731 c 0,32,33
 1115 1731 1115 1731 1143 1812 c 1,34,-1
 1309 1812 l 1,16,17
EndSplineSet
Validated: 1
EndChar

StartChar: V
Encoding: 86 86 113
Width: 1593
Flags: MW
LayerCount: 2
Back
Fore
SplineSet
535 0 m 1,0,-1
 35 1409 l 1,1,-1
 518 1409 l 1,2,-1
 801 467 l 1,3,-1
 809 467 l 1,4,-1
 1094 1409 l 1,5,-1
 1556 1409 l 1,6,-1
 1059 0 l 1,7,-1
 535 0 l 1,0,-1
EndSplineSet
Validated: 1
EndChar

StartChar: W
Encoding: 87 87 114
Width: 2048
Flags: MW
LayerCount: 2
Back
Fore
SplineSet
1210 0 m 1,0,-1
 1028 858 l 1,1,-1
 1020 858 l 1,2,-1
 838 0 l 1,3,-1
 340 0 l 1,4,-1
 10 1409 l 1,5,-1
 481 1409 l 1,6,-1
 643 610 l 1,7,-1
 651 610 l 1,8,-1
 811 1409 l 1,9,-1
 1257 1409 l 1,10,-1
 1427 610 l 1,11,-1
 1436 610 l 1,12,-1
 1587 1409 l 1,13,-1
 2038 1409 l 1,14,-1
 1708 0 l 1,15,-1
 1210 0 l 1,0,-1
EndSplineSet
Validated: 1
EndChar

StartChar: Wacute
Encoding: 7810 7810 115
Width: 2048
Flags: MW
LayerCount: 2
Back
Fore
SplineSet
1028 858 m 1,0,-1
 1020 858 l 1,1,-1
 838 0 l 1,2,-1
 340 0 l 1,3,-1
 10 1409 l 1,4,-1
 481 1409 l 1,5,-1
 643 610 l 1,6,-1
 651 610 l 1,7,-1
 811 1409 l 1,8,-1
 1257 1409 l 1,9,-1
 1427 610 l 1,10,-1
 1436 610 l 1,11,-1
 1587 1409 l 1,12,-1
 2038 1409 l 1,13,-1
 1708 0 l 1,14,-1
 1210 0 l 1,15,-1
 1028 858 l 1,0,-1
827 1540 m 1,16,-1
 1016 1812 l 1,17,-1
 1411 1812 l 1,18,-1
 1415 1804 l 1,19,-1
 1087 1540 l 1,20,-1
 827 1540 l 1,16,-1
EndSplineSet
Validated: 1
EndChar

StartChar: Wcircumflex
Encoding: 372 372 116
Width: 2048
Flags: MW
LayerCount: 2
Back
Fore
SplineSet
1210 0 m 1,0,-1
 1028 858 l 1,1,-1
 1020 858 l 1,2,-1
 838 0 l 1,3,-1
 340 0 l 1,4,-1
 10 1409 l 1,5,-1
 481 1409 l 1,6,-1
 643 610 l 1,7,-1
 651 610 l 1,8,-1
 811 1409 l 1,9,-1
 1257 1409 l 1,10,-1
 1427 610 l 1,11,-1
 1436 610 l 1,12,-1
 1587 1409 l 1,13,-1
 2038 1409 l 1,14,-1
 1708 0 l 1,15,-1
 1210 0 l 1,0,-1
1174 1516 m 1,16,-1
 1022 1673 l 1,17,-1
 870 1516 l 1,18,-1
 608 1516 l 1,19,-1
 893 1812 l 1,20,-1
 1155 1812 l 1,21,-1
 1440 1516 l 1,22,-1
 1174 1516 l 1,16,-1
EndSplineSet
Validated: 1
EndChar

StartChar: Wdieresis
Encoding: 7812 7812 117
Width: 2048
Flags: MW
LayerCount: 2
Back
Fore
SplineSet
1210 0 m 1,0,-1
 1028 858 l 1,1,-1
 1020 858 l 1,2,-1
 838 0 l 1,3,-1
 340 0 l 1,4,-1
 10 1409 l 1,5,-1
 481 1409 l 1,6,-1
 643 610 l 1,7,-1
 651 610 l 1,8,-1
 811 1409 l 1,9,-1
 1257 1409 l 1,10,-1
 1427 610 l 1,11,-1
 1436 610 l 1,12,-1
 1587 1409 l 1,13,-1
 2038 1409 l 1,14,-1
 1708 0 l 1,15,-1
 1210 0 l 1,0,-1
1094 1528 m 1,16,-1
 1094 1812 l 1,17,-1
 1405 1812 l 1,18,-1
 1405 1528 l 1,19,-1
 1094 1528 l 1,16,-1
643 1528 m 1,20,-1
 643 1812 l 1,21,-1
 954 1812 l 1,22,-1
 954 1528 l 1,23,-1
 643 1528 l 1,20,-1
EndSplineSet
Validated: 1
EndChar

StartChar: Wgrave
Encoding: 7808 7808 118
Width: 2048
Flags: MW
LayerCount: 2
Back
Fore
SplineSet
1028 858 m 1,0,-1
 1020 858 l 1,1,-1
 838 0 l 1,2,-1
 340 0 l 1,3,-1
 10 1409 l 1,4,-1
 481 1409 l 1,5,-1
 643 610 l 1,6,-1
 651 610 l 1,7,-1
 811 1409 l 1,8,-1
 1257 1409 l 1,9,-1
 1427 610 l 1,10,-1
 1436 610 l 1,11,-1
 1587 1409 l 1,12,-1
 2038 1409 l 1,13,-1
 1708 0 l 1,14,-1
 1210 0 l 1,15,-1
 1028 858 l 1,0,-1
633 1804 m 1,16,-1
 637 1812 l 1,17,-1
 1032 1812 l 1,18,-1
 1221 1540 l 1,19,-1
 961 1540 l 1,20,-1
 633 1804 l 1,16,-1
EndSplineSet
Validated: 1
EndChar

StartChar: X
Encoding: 88 88 119
Width: 1593
Flags: MW
LayerCount: 2
Back
Fore
SplineSet
1593 0 m 1,0,-1
 1044 0 l 1,1,-1
 784 438 l 1,2,-1
 776 438 l 1,3,-1
 516 0 l 1,4,-1
 8 0 l 1,5,-1
 512 745 l 1,6,-1
 57 1409 l 1,7,-1
 604 1409 l 1,8,-1
 817 1049 l 1,9,-1
 825 1049 l 1,10,-1
 1040 1409 l 1,11,-1
 1546 1409 l 1,12,-1
 1090 743 l 1,13,-1
 1593 0 l 1,0,-1
EndSplineSet
Validated: 1
EndChar

StartChar: Y
Encoding: 89 89 120
Width: 1593
Flags: MW
LayerCount: 2
Back
Fore
SplineSet
1026 0 m 1,0,-1
 573 0 l 1,1,-1
 573 547 l 1,2,-1
 14 1409 l 1,3,-1
 535 1409 l 1,4,-1
 805 940 l 1,5,-1
 813 940 l 1,6,-1
 1083 1409 l 1,7,-1
 1577 1409 l 1,8,-1
 1026 547 l 1,9,-1
 1026 0 l 1,0,-1
EndSplineSet
Validated: 1
EndChar

StartChar: Yacute
Encoding: 221 221 121
Width: 1593
Flags: MW
LayerCount: 2
Back
Fore
SplineSet
573 0 m 1,0,-1
 573 547 l 1,1,-1
 14 1409 l 1,2,-1
 535 1409 l 1,3,-1
 805 940 l 1,4,-1
 813 940 l 1,5,-1
 1083 1409 l 1,6,-1
 1577 1409 l 1,7,-1
 1026 547 l 1,8,-1
 1026 0 l 1,9,-1
 573 0 l 1,0,-1
600 1540 m 1,10,-1
 788 1812 l 1,11,-1
 1184 1812 l 1,12,-1
 1188 1804 l 1,13,-1
 860 1540 l 1,14,-1
 600 1540 l 1,10,-1
EndSplineSet
Validated: 1
EndChar

StartChar: Ycircumflex
Encoding: 374 374 122
Width: 1593
Flags: MW
LayerCount: 2
Back
Fore
SplineSet
1026 0 m 1,0,-1
 573 0 l 1,1,-1
 573 547 l 1,2,-1
 14 1409 l 1,3,-1
 535 1409 l 1,4,-1
 805 940 l 1,5,-1
 813 940 l 1,6,-1
 1083 1409 l 1,7,-1
 1577 1409 l 1,8,-1
 1026 547 l 1,9,-1
 1026 0 l 1,0,-1
946 1516 m 1,10,-1
 795 1673 l 1,11,-1
 643 1516 l 1,12,-1
 381 1516 l 1,13,-1
 666 1812 l 1,14,-1
 928 1812 l 1,15,-1
 1212 1516 l 1,16,-1
 946 1516 l 1,10,-1
EndSplineSet
Validated: 1
EndChar

StartChar: Ydieresis
Encoding: 376 376 123
Width: 1593
Flags: MW
LayerCount: 2
Back
Fore
SplineSet
1026 0 m 1,0,-1
 573 0 l 1,1,-1
 573 547 l 1,2,-1
 14 1409 l 1,3,-1
 535 1409 l 1,4,-1
 805 940 l 1,5,-1
 813 940 l 1,6,-1
 1083 1409 l 1,7,-1
 1577 1409 l 1,8,-1
 1026 547 l 1,9,-1
 1026 0 l 1,0,-1
866 1528 m 1,10,-1
 866 1812 l 1,11,-1
 1178 1812 l 1,12,-1
 1178 1528 l 1,13,-1
 866 1528 l 1,10,-1
416 1528 m 1,14,-1
 416 1812 l 1,15,-1
 727 1812 l 1,16,-1
 727 1528 l 1,17,-1
 416 1528 l 1,14,-1
EndSplineSet
Validated: 1
EndChar

StartChar: Ygrave
Encoding: 7922 7922 124
Width: 1593
Flags: MW
LayerCount: 2
Back
Fore
SplineSet
573 0 m 1,0,-1
 573 547 l 1,1,-1
 14 1409 l 1,2,-1
 535 1409 l 1,3,-1
 805 940 l 1,4,-1
 813 940 l 1,5,-1
 1083 1409 l 1,6,-1
 1577 1409 l 1,7,-1
 1026 547 l 1,8,-1
 1026 0 l 1,9,-1
 573 0 l 1,0,-1
406 1804 m 1,10,-1
 410 1812 l 1,11,-1
 805 1812 l 1,12,-1
 993 1540 l 1,13,-1
 733 1540 l 1,14,-1
 406 1804 l 1,10,-1
EndSplineSet
Validated: 1
EndChar

StartChar: Z
Encoding: 90 90 125
Width: 1478
Flags: MW
LayerCount: 2
Back
Fore
SplineSet
745 338 m 1,0,-1
 1415 338 l 1,1,-1
 1415 0 l 1,2,-1
 49 0 l 1,3,-1
 49 145 l 1,4,-1
 702 1071 l 1,5,-1
 98 1071 l 1,6,-1
 98 1409 l 1,7,-1
 1399 1409 l 1,8,-1
 1399 1264 l 1,9,-1
 745 338 l 1,0,-1
EndSplineSet
Validated: 1
EndChar

StartChar: Zacute
Encoding: 377 377 126
Width: 1478
Flags: MW
LayerCount: 2
Back
Fore
SplineSet
1415 338 m 1,0,-1
 1415 0 l 1,1,-1
 49 0 l 1,2,-1
 49 145 l 1,3,-1
 702 1071 l 1,4,-1
 98 1071 l 1,5,-1
 98 1409 l 1,6,-1
 1399 1409 l 1,7,-1
 1399 1264 l 1,8,-1
 745 338 l 1,9,-1
 1415 338 l 1,0,-1
543 1540 m 1,10,-1
 731 1812 l 1,11,-1
 1126 1812 l 1,12,-1
 1130 1804 l 1,13,-1
 805 1540 l 1,14,-1
 543 1540 l 1,10,-1
EndSplineSet
Validated: 1
EndChar

StartChar: Zcaron
Encoding: 381 381 127
Width: 1478
Flags: MW
LayerCount: 2
Back
Fore
SplineSet
745 338 m 1,0,-1
 1415 338 l 1,1,-1
 1415 0 l 1,2,-1
 49 0 l 1,3,-1
 49 145 l 1,4,-1
 702 1071 l 1,5,-1
 98 1071 l 1,6,-1
 98 1409 l 1,7,-1
 1399 1409 l 1,8,-1
 1399 1264 l 1,9,-1
 745 338 l 1,0,-1
608 1516 m 1,10,-1
 324 1812 l 1,11,-1
 586 1812 l 1,12,-1
 737 1655 l 1,13,-1
 891 1812 l 1,14,-1
 1155 1812 l 1,15,-1
 870 1516 l 1,16,-1
 608 1516 l 1,10,-1
EndSplineSet
Validated: 1
EndChar

StartChar: Zdotaccent
Encoding: 379 379 128
Width: 1478
Flags: MW
LayerCount: 2
Back
Fore
SplineSet
745 338 m 1,0,-1
 1415 338 l 1,1,-1
 1415 0 l 1,2,-1
 49 0 l 1,3,-1
 49 145 l 1,4,-1
 702 1071 l 1,5,-1
 98 1071 l 1,6,-1
 98 1409 l 1,7,-1
 1399 1409 l 1,8,-1
 1399 1264 l 1,9,-1
 745 338 l 1,0,-1
584 1528 m 1,10,-1
 584 1812 l 1,11,-1
 895 1812 l 1,12,-1
 895 1528 l 1,13,-1
 584 1528 l 1,10,-1
EndSplineSet
Validated: 1
EndChar

StartChar: a
Encoding: 97 97 129
Width: 1366
Flags: MW
LayerCount: 2
Back
Fore
SplineSet
809 471 m 1,0,1
 636 471 636 471 552.5 433.5 c 128,-1,2
 469 396 469 396 469 332 c 0,3,4
 469 229 469 229 608 229 c 0,5,6
 688 229 688 229 748.5 272 c 128,-1,7
 809 315 809 315 809 379 c 2,8,-1
 809 471 l 1,0,1
94 743 m 1,9,10
 92 753 92 753 92 772 c 0,11,12
 92 925 92 925 238.5 1015.5 c 128,-1,13
 385 1106 385 1106 657 1106 c 0,14,15
 774 1106 774 1106 870.5 1088 c 128,-1,16
 967 1070 967 1070 1047 1030.5 c 128,-1,17
 1127 991 1127 991 1172 920.5 c 128,-1,18
 1217 850 1217 850 1217 754 c 2,19,-1
 1217 332 l 2,20,21
 1217 296 1217 296 1233.5 274 c 128,-1,22
 1250 252 1250 252 1282 252 c 2,23,-1
 1356 252 l 1,24,-1
 1356 16 l 1,25,26
 1347 11 1347 11 1331 4.5 c 128,-1,27
 1315 -2 1315 -2 1259.5 -13.5 c 128,-1,28
 1204 -25 1204 -25 1143 -25 c 0,29,30
 1023 -25 1023 -25 947 11 c 128,-1,31
 871 47 871 47 842 111 c 1,32,33
 672 -25 672 -25 442 -25 c 0,34,35
 61 -25 61 -25 61 279 c 0,36,37
 61 375 61 375 94.5 443.5 c 128,-1,38
 128 512 128 512 187 554.5 c 128,-1,39
 246 597 246 597 343 621.5 c 128,-1,40
 440 646 440 646 548.5 655 c 128,-1,41
 657 664 657 664 809 664 c 1,42,-1
 809 717 l 2,43,44
 809 780 809 780 765 813 c 128,-1,45
 721 846 721 846 651 846 c 0,46,47
 588 846 588 846 542 823.5 c 128,-1,48
 496 801 496 801 496 752 c 2,49,-1
 496 743 l 1,50,-1
 94 743 l 1,9,10
EndSplineSet
Validated: 1
EndChar

StartChar: aacute
Encoding: 225 225 130
Width: 1366
Flags: MW
LayerCount: 2
Back
Fore
SplineSet
809 471 m 1,0,1
 636 471 636 471 552.5 433.5 c 128,-1,2
 469 396 469 396 469 332 c 0,3,4
 469 229 469 229 608 229 c 0,5,6
 688 229 688 229 748.5 272 c 128,-1,7
 809 315 809 315 809 379 c 2,8,-1
 809 471 l 1,0,1
94 743 m 1,9,10
 92 753 92 753 92 772 c 0,11,12
 92 925 92 925 238.5 1015.5 c 128,-1,13
 385 1106 385 1106 657 1106 c 0,14,15
 774 1106 774 1106 870.5 1088 c 128,-1,16
 967 1070 967 1070 1047 1030.5 c 128,-1,17
 1127 991 1127 991 1172 920.5 c 128,-1,18
 1217 850 1217 850 1217 754 c 2,19,-1
 1217 332 l 2,20,21
 1217 296 1217 296 1233.5 274 c 128,-1,22
 1250 252 1250 252 1282 252 c 2,23,-1
 1356 252 l 1,24,-1
 1356 16 l 1,25,26
 1347 11 1347 11 1331 4.5 c 128,-1,27
 1315 -2 1315 -2 1259.5 -13.5 c 128,-1,28
 1204 -25 1204 -25 1143 -25 c 0,29,30
 1023 -25 1023 -25 947 11 c 128,-1,31
 871 47 871 47 842 111 c 1,32,33
 672 -25 672 -25 442 -25 c 0,34,35
 61 -25 61 -25 61 279 c 0,36,37
 61 375 61 375 94.5 443.5 c 128,-1,38
 128 512 128 512 187 554.5 c 128,-1,39
 246 597 246 597 343 621.5 c 128,-1,40
 440 646 440 646 548.5 655 c 128,-1,41
 657 664 657 664 809 664 c 1,42,-1
 809 717 l 2,43,44
 809 780 809 780 765 813 c 128,-1,45
 721 846 721 846 651 846 c 0,46,47
 588 846 588 846 542 823.5 c 128,-1,48
 496 801 496 801 496 752 c 2,49,-1
 496 743 l 1,50,-1
 94 743 l 1,9,10
461 1212 m 1,51,-1
 649 1485 l 1,52,-1
 1044 1485 l 1,53,-1
 1049 1477 l 1,54,-1
 723 1212 l 1,55,-1
 461 1212 l 1,51,-1
EndSplineSet
Validated: 1
EndChar

StartChar: abreve
Encoding: 259 259 131
Width: 1366
Flags: MW
LayerCount: 2
Back
Fore
SplineSet
809 471 m 1,0,1
 636 471 636 471 552.5 433.5 c 128,-1,2
 469 396 469 396 469 332 c 0,3,4
 469 229 469 229 608 229 c 0,5,6
 688 229 688 229 748.5 272 c 128,-1,7
 809 315 809 315 809 379 c 2,8,-1
 809 471 l 1,0,1
94 743 m 1,9,10
 92 753 92 753 92 772 c 0,11,12
 92 925 92 925 238.5 1015.5 c 128,-1,13
 385 1106 385 1106 657 1106 c 0,14,15
 774 1106 774 1106 870.5 1088 c 128,-1,16
 967 1070 967 1070 1047 1030.5 c 128,-1,17
 1127 991 1127 991 1172 920.5 c 128,-1,18
 1217 850 1217 850 1217 754 c 2,19,-1
 1217 332 l 2,20,21
 1217 296 1217 296 1233.5 274 c 128,-1,22
 1250 252 1250 252 1282 252 c 2,23,-1
 1356 252 l 1,24,-1
 1356 16 l 1,25,26
 1347 11 1347 11 1331 4.5 c 128,-1,27
 1315 -2 1315 -2 1259.5 -13.5 c 128,-1,28
 1204 -25 1204 -25 1143 -25 c 0,29,30
 1023 -25 1023 -25 947 11 c 128,-1,31
 871 47 871 47 842 111 c 1,32,33
 672 -25 672 -25 442 -25 c 0,34,35
 61 -25 61 -25 61 279 c 0,36,37
 61 375 61 375 94.5 443.5 c 128,-1,38
 128 512 128 512 187 554.5 c 128,-1,39
 246 597 246 597 343 621.5 c 128,-1,40
 440 646 440 646 548.5 655 c 128,-1,41
 657 664 657 664 809 664 c 1,42,-1
 809 717 l 2,43,44
 809 780 809 780 765 813 c 128,-1,45
 721 846 721 846 651 846 c 0,46,47
 588 846 588 846 542 823.5 c 128,-1,48
 496 801 496 801 496 752 c 2,49,-1
 496 743 l 1,50,-1
 94 743 l 1,9,10
1061 1485 m 1,51,52
 1061 1374 1061 1374 954 1282 c 128,-1,53
 847 1190 847 1190 682 1190 c 0,54,55
 515 1190 515 1190 410 1282 c 128,-1,56
 305 1374 305 1374 305 1485 c 1,57,-1
 502 1485 l 1,58,59
 509 1448 509 1448 557 1417 c 1,60,61
 615 1382 615 1382 682 1382 c 0,62,63
 753 1382 753 1382 806 1415.5 c 128,-1,64
 859 1449 859 1449 866 1485 c 1,65,-1
 1061 1485 l 1,51,52
EndSplineSet
Validated: 1
EndChar

StartChar: acircumflex
Encoding: 226 226 132
Width: 1366
Flags: MW
LayerCount: 2
Back
Fore
SplineSet
809 471 m 1,0,1
 636 471 636 471 552.5 433.5 c 128,-1,2
 469 396 469 396 469 332 c 0,3,4
 469 229 469 229 608 229 c 0,5,6
 688 229 688 229 748.5 272 c 128,-1,7
 809 315 809 315 809 379 c 2,8,-1
 809 471 l 1,0,1
94 743 m 1,9,10
 92 753 92 753 92 772 c 0,11,12
 92 925 92 925 238.5 1015.5 c 128,-1,13
 385 1106 385 1106 657 1106 c 0,14,15
 774 1106 774 1106 870.5 1088 c 128,-1,16
 967 1070 967 1070 1047 1030.5 c 128,-1,17
 1127 991 1127 991 1172 920.5 c 128,-1,18
 1217 850 1217 850 1217 754 c 2,19,-1
 1217 332 l 2,20,21
 1217 296 1217 296 1233.5 274 c 128,-1,22
 1250 252 1250 252 1282 252 c 2,23,-1
 1356 252 l 1,24,-1
 1356 16 l 1,25,26
 1347 11 1347 11 1331 4.5 c 128,-1,27
 1315 -2 1315 -2 1259.5 -13.5 c 128,-1,28
 1204 -25 1204 -25 1143 -25 c 0,29,30
 1023 -25 1023 -25 947 11 c 128,-1,31
 871 47 871 47 842 111 c 1,32,33
 672 -25 672 -25 442 -25 c 0,34,35
 61 -25 61 -25 61 279 c 0,36,37
 61 375 61 375 94.5 443.5 c 128,-1,38
 128 512 128 512 187 554.5 c 128,-1,39
 246 597 246 597 343 621.5 c 128,-1,40
 440 646 440 646 548.5 655 c 128,-1,41
 657 664 657 664 809 664 c 1,42,-1
 809 717 l 2,43,44
 809 780 809 780 765 813 c 128,-1,45
 721 846 721 846 651 846 c 0,46,47
 588 846 588 846 542 823.5 c 128,-1,48
 496 801 496 801 496 752 c 2,49,-1
 496 743 l 1,50,-1
 94 743 l 1,9,10
834 1188 m 1,51,-1
 682 1346 l 1,52,-1
 528 1188 l 1,53,-1
 266 1188 l 1,54,-1
 553 1485 l 1,55,-1
 813 1485 l 1,56,-1
 1100 1188 l 1,57,-1
 834 1188 l 1,51,-1
EndSplineSet
Validated: 1
EndChar

StartChar: adieresis
Encoding: 228 228 133
Width: 1366
Flags: MW
LayerCount: 2
Back
Fore
SplineSet
809 471 m 1,0,1
 636 471 636 471 552.5 433.5 c 128,-1,2
 469 396 469 396 469 332 c 0,3,4
 469 229 469 229 608 229 c 0,5,6
 688 229 688 229 748.5 272 c 128,-1,7
 809 315 809 315 809 379 c 2,8,-1
 809 471 l 1,0,1
94 743 m 1,9,10
 92 753 92 753 92 772 c 0,11,12
 92 925 92 925 238.5 1015.5 c 128,-1,13
 385 1106 385 1106 657 1106 c 0,14,15
 774 1106 774 1106 870.5 1088 c 128,-1,16
 967 1070 967 1070 1047 1030.5 c 128,-1,17
 1127 991 1127 991 1172 920.5 c 128,-1,18
 1217 850 1217 850 1217 754 c 2,19,-1
 1217 332 l 2,20,21
 1217 296 1217 296 1233.5 274 c 128,-1,22
 1250 252 1250 252 1282 252 c 2,23,-1
 1356 252 l 1,24,-1
 1356 16 l 1,25,26
 1347 11 1347 11 1331 4.5 c 128,-1,27
 1315 -2 1315 -2 1259.5 -13.5 c 128,-1,28
 1204 -25 1204 -25 1143 -25 c 0,29,30
 1023 -25 1023 -25 947 11 c 128,-1,31
 871 47 871 47 842 111 c 1,32,33
 672 -25 672 -25 442 -25 c 0,34,35
 61 -25 61 -25 61 279 c 0,36,37
 61 375 61 375 94.5 443.5 c 128,-1,38
 128 512 128 512 187 554.5 c 128,-1,39
 246 597 246 597 343 621.5 c 128,-1,40
 440 646 440 646 548.5 655 c 128,-1,41
 657 664 657 664 809 664 c 1,42,-1
 809 717 l 2,43,44
 809 780 809 780 765 813 c 128,-1,45
 721 846 721 846 651 846 c 0,46,47
 588 846 588 846 542 823.5 c 128,-1,48
 496 801 496 801 496 752 c 2,49,-1
 496 743 l 1,50,-1
 94 743 l 1,9,10
754 1200 m 1,51,-1
 754 1485 l 1,52,-1
 1065 1485 l 1,53,-1
 1065 1200 l 1,54,-1
 754 1200 l 1,51,-1
301 1200 m 1,55,-1
 301 1485 l 1,56,-1
 612 1485 l 1,57,-1
 612 1200 l 1,58,-1
 301 1200 l 1,55,-1
EndSplineSet
Validated: 1
EndChar

StartChar: agrave
Encoding: 224 224 134
Width: 1366
Flags: MW
LayerCount: 2
Back
Fore
SplineSet
809 471 m 1,0,1
 636 471 636 471 552.5 433.5 c 128,-1,2
 469 396 469 396 469 332 c 0,3,4
 469 229 469 229 608 229 c 0,5,6
 688 229 688 229 748.5 272 c 128,-1,7
 809 315 809 315 809 379 c 2,8,-1
 809 471 l 1,0,1
94 743 m 1,9,10
 92 753 92 753 92 772 c 0,11,12
 92 925 92 925 238.5 1015.5 c 128,-1,13
 385 1106 385 1106 657 1106 c 0,14,15
 774 1106 774 1106 870.5 1088 c 128,-1,16
 967 1070 967 1070 1047 1030.5 c 128,-1,17
 1127 991 1127 991 1172 920.5 c 128,-1,18
 1217 850 1217 850 1217 754 c 2,19,-1
 1217 332 l 2,20,21
 1217 296 1217 296 1233.5 274 c 128,-1,22
 1250 252 1250 252 1282 252 c 2,23,-1
 1356 252 l 1,24,-1
 1356 16 l 1,25,26
 1347 11 1347 11 1331 4.5 c 128,-1,27
 1315 -2 1315 -2 1259.5 -13.5 c 128,-1,28
 1204 -25 1204 -25 1143 -25 c 0,29,30
 1023 -25 1023 -25 947 11 c 128,-1,31
 871 47 871 47 842 111 c 1,32,33
 672 -25 672 -25 442 -25 c 0,34,35
 61 -25 61 -25 61 279 c 0,36,37
 61 375 61 375 94.5 443.5 c 128,-1,38
 128 512 128 512 187 554.5 c 128,-1,39
 246 597 246 597 343 621.5 c 128,-1,40
 440 646 440 646 548.5 655 c 128,-1,41
 657 664 657 664 809 664 c 1,42,-1
 809 717 l 2,43,44
 809 780 809 780 765 813 c 128,-1,45
 721 846 721 846 651 846 c 0,46,47
 588 846 588 846 542 823.5 c 128,-1,48
 496 801 496 801 496 752 c 2,49,-1
 496 743 l 1,50,-1
 94 743 l 1,9,10
266 1477 m 1,51,-1
 270 1485 l 1,52,-1
 666 1485 l 1,53,-1
 854 1212 l 1,54,-1
 596 1212 l 1,55,-1
 266 1477 l 1,51,-1
EndSplineSet
Validated: 1
EndChar

StartChar: amacron
Encoding: 257 257 135
Width: 1366
Flags: MW
LayerCount: 2
Back
Fore
SplineSet
809 471 m 1,0,1
 636 471 636 471 552.5 433.5 c 128,-1,2
 469 396 469 396 469 332 c 0,3,4
 469 229 469 229 608 229 c 0,5,6
 688 229 688 229 748.5 272 c 128,-1,7
 809 315 809 315 809 379 c 2,8,-1
 809 471 l 1,0,1
94 743 m 1,9,10
 92 753 92 753 92 772 c 0,11,12
 92 925 92 925 238.5 1015.5 c 128,-1,13
 385 1106 385 1106 657 1106 c 0,14,15
 774 1106 774 1106 870.5 1088 c 128,-1,16
 967 1070 967 1070 1047 1030.5 c 128,-1,17
 1127 991 1127 991 1172 920.5 c 128,-1,18
 1217 850 1217 850 1217 754 c 2,19,-1
 1217 332 l 2,20,21
 1217 296 1217 296 1233.5 274 c 128,-1,22
 1250 252 1250 252 1282 252 c 2,23,-1
 1356 252 l 1,24,-1
 1356 16 l 1,25,26
 1347 11 1347 11 1331 4.5 c 128,-1,27
 1315 -2 1315 -2 1259.5 -13.5 c 128,-1,28
 1204 -25 1204 -25 1143 -25 c 0,29,30
 1023 -25 1023 -25 947 11 c 128,-1,31
 871 47 871 47 842 111 c 1,32,33
 672 -25 672 -25 442 -25 c 0,34,35
 61 -25 61 -25 61 279 c 0,36,37
 61 375 61 375 94.5 443.5 c 128,-1,38
 128 512 128 512 187 554.5 c 128,-1,39
 246 597 246 597 343 621.5 c 128,-1,40
 440 646 440 646 548.5 655 c 128,-1,41
 657 664 657 664 809 664 c 1,42,-1
 809 717 l 2,43,44
 809 780 809 780 765 813 c 128,-1,45
 721 846 721 846 651 846 c 0,46,47
 588 846 588 846 542 823.5 c 128,-1,48
 496 801 496 801 496 752 c 2,49,-1
 496 743 l 1,50,-1
 94 743 l 1,9,10
358 1239 m 1,51,-1
 358 1444 l 1,52,-1
 1008 1444 l 1,53,-1
 1008 1239 l 1,54,-1
 358 1239 l 1,51,-1
EndSplineSet
Validated: 1
EndChar

StartChar: aogonek
Encoding: 261 261 136
Width: 1366
Flags: MW
LayerCount: 2
Back
Fore
SplineSet
809 471 m 1,0,1
 636 471 636 471 552.5 433.5 c 128,-1,2
 469 396 469 396 469 332 c 0,3,4
 469 229 469 229 608 229 c 0,5,6
 688 229 688 229 748.5 272 c 128,-1,7
 809 315 809 315 809 379 c 2,8,-1
 809 471 l 1,0,1
94 743 m 1,9,10
 92 753 92 753 92 772 c 0,11,12
 92 925 92 925 238.5 1015.5 c 128,-1,13
 385 1106 385 1106 657 1106 c 0,14,15
 774 1106 774 1106 870.5 1088 c 128,-1,16
 967 1070 967 1070 1047 1030.5 c 128,-1,17
 1127 991 1127 991 1172 920.5 c 128,-1,18
 1217 850 1217 850 1217 754 c 2,19,-1
 1217 332 l 2,20,21
 1217 296 1217 296 1233.5 274 c 128,-1,22
 1250 252 1250 252 1282 252 c 2,23,-1
 1356 252 l 1,24,-1
 1356 16 l 1,25,26
 1347 11 1347 11 1331 4.5 c 128,-1,27
 1315 -2 1315 -2 1259.5 -13.5 c 128,-1,28
 1204 -25 1204 -25 1143 -25 c 1,29,30
 1120 -88 1120 -88 1120 -141 c 0,31,32
 1120 -186 1120 -186 1149.5 -216 c 128,-1,33
 1179 -246 1179 -246 1243 -246 c 2,34,-1
 1329 -246 l 1,35,-1
 1329 -401 l 1,36,37
 1234 -432 1234 -432 1135 -432 c 0,38,39
 1083 -432 1083 -432 1037.5 -419 c 128,-1,40
 992 -406 992 -406 954.5 -379 c 128,-1,41
 917 -352 917 -352 895.5 -306 c 128,-1,42
 874 -260 874 -260 874 -199 c 0,43,44
 874 -157 874 -157 888.5 -116.5 c 128,-1,45
 903 -76 903 -76 919 -52.5 c 128,-1,46
 935 -29 935 -29 961 4 c 1,47,48
 873 41 873 41 842 111 c 1,49,50
 672 -25 672 -25 442 -25 c 0,51,52
 61 -25 61 -25 61 279 c 0,53,54
 61 375 61 375 94.5 443.5 c 128,-1,55
 128 512 128 512 187 554.5 c 128,-1,56
 246 597 246 597 343 621.5 c 128,-1,57
 440 646 440 646 548.5 655 c 128,-1,58
 657 664 657 664 809 664 c 1,59,-1
 809 717 l 2,60,61
 809 780 809 780 765 813 c 128,-1,62
 721 846 721 846 651 846 c 0,63,64
 588 846 588 846 542 823.5 c 128,-1,65
 496 801 496 801 496 752 c 2,66,-1
 496 743 l 1,67,-1
 94 743 l 1,9,10
EndSplineSet
Validated: 1
EndChar

StartChar: aring
Encoding: 229 229 137
Width: 1366
Flags: MW
LayerCount: 2
Back
Fore
SplineSet
809 471 m 1,0,1
 636 471 636 471 552.5 433.5 c 128,-1,2
 469 396 469 396 469 332 c 0,3,4
 469 229 469 229 608 229 c 0,5,6
 688 229 688 229 748.5 272 c 128,-1,7
 809 315 809 315 809 379 c 2,8,-1
 809 471 l 1,0,1
94 743 m 1,9,10
 92 753 92 753 92 772 c 0,11,12
 92 925 92 925 238.5 1015.5 c 128,-1,13
 385 1106 385 1106 657 1106 c 0,14,15
 774 1106 774 1106 870.5 1088 c 128,-1,16
 967 1070 967 1070 1047 1030.5 c 128,-1,17
 1127 991 1127 991 1172 920.5 c 128,-1,18
 1217 850 1217 850 1217 754 c 2,19,-1
 1217 332 l 2,20,21
 1217 296 1217 296 1233.5 274 c 128,-1,22
 1250 252 1250 252 1282 252 c 2,23,-1
 1356 252 l 1,24,-1
 1356 16 l 1,25,26
 1347 11 1347 11 1331 4.5 c 128,-1,27
 1315 -2 1315 -2 1259.5 -13.5 c 128,-1,28
 1204 -25 1204 -25 1143 -25 c 0,29,30
 1023 -25 1023 -25 947 11 c 128,-1,31
 871 47 871 47 842 111 c 1,32,33
 672 -25 672 -25 442 -25 c 0,34,35
 61 -25 61 -25 61 279 c 0,36,37
 61 375 61 375 94.5 443.5 c 128,-1,38
 128 512 128 512 187 554.5 c 128,-1,39
 246 597 246 597 343 621.5 c 128,-1,40
 440 646 440 646 548.5 655 c 128,-1,41
 657 664 657 664 809 664 c 1,42,-1
 809 717 l 2,43,44
 809 780 809 780 765 813 c 128,-1,45
 721 846 721 846 651 846 c 0,46,47
 588 846 588 846 542 823.5 c 128,-1,48
 496 801 496 801 496 752 c 2,49,-1
 496 743 l 1,50,-1
 94 743 l 1,9,10
682 1485 m 0,51,52
 647 1485 647 1485 623.5 1461.5 c 128,-1,53
 600 1438 600 1438 600 1401 c 0,54,55
 600 1366 600 1366 624 1343.5 c 128,-1,56
 648 1321 648 1321 682 1321 c 0,57,58
 719 1321 719 1321 742.5 1344.5 c 128,-1,59
 766 1368 766 1368 766 1405 c 0,60,61
 766 1440 766 1440 742 1462.5 c 128,-1,62
 718 1485 718 1485 682 1485 c 0,51,52
682 1626 m 0,63,64
 775 1626 775 1626 840 1561 c 128,-1,65
 905 1496 905 1496 905 1403 c 0,66,67
 905 1312 905 1312 840 1247 c 128,-1,68
 775 1182 775 1182 682 1182 c 0,69,70
 591 1182 591 1182 526 1246.5 c 128,-1,71
 461 1311 461 1311 461 1403 c 128,-1,72
 461 1495 461 1495 525.5 1560.5 c 128,-1,73
 590 1626 590 1626 682 1626 c 0,63,64
EndSplineSet
Validated: 1
EndChar

StartChar: aringacute
Encoding: 507 507 138
Width: 1366
Flags: MW
LayerCount: 2
Back
Fore
SplineSet
809 471 m 1,0,1
 636 471 636 471 552.5 433.5 c 128,-1,2
 469 396 469 396 469 332 c 0,3,4
 469 229 469 229 608 229 c 0,5,6
 688 229 688 229 748.5 272 c 128,-1,7
 809 315 809 315 809 379 c 2,8,-1
 809 471 l 1,0,1
94 743 m 1,9,10
 92 753 92 753 92 772 c 0,11,12
 92 925 92 925 238.5 1015.5 c 128,-1,13
 385 1106 385 1106 657 1106 c 0,14,15
 774 1106 774 1106 870.5 1088 c 128,-1,16
 967 1070 967 1070 1047 1030.5 c 128,-1,17
 1127 991 1127 991 1172 920.5 c 128,-1,18
 1217 850 1217 850 1217 754 c 2,19,-1
 1217 332 l 2,20,21
 1217 296 1217 296 1233.5 274 c 128,-1,22
 1250 252 1250 252 1282 252 c 2,23,-1
 1356 252 l 1,24,-1
 1356 16 l 1,25,26
 1347 11 1347 11 1331 4.5 c 128,-1,27
 1315 -2 1315 -2 1259.5 -13.5 c 128,-1,28
 1204 -25 1204 -25 1143 -25 c 0,29,30
 1023 -25 1023 -25 947 11 c 128,-1,31
 871 47 871 47 842 111 c 1,32,33
 672 -25 672 -25 442 -25 c 0,34,35
 61 -25 61 -25 61 279 c 0,36,37
 61 375 61 375 94.5 443.5 c 128,-1,38
 128 512 128 512 187 554.5 c 128,-1,39
 246 597 246 597 343 621.5 c 128,-1,40
 440 646 440 646 548.5 655 c 128,-1,41
 657 664 657 664 809 664 c 1,42,-1
 809 717 l 2,43,44
 809 780 809 780 765 813 c 128,-1,45
 721 846 721 846 651 846 c 0,46,47
 588 846 588 846 542 823.5 c 128,-1,48
 496 801 496 801 496 752 c 2,49,-1
 496 743 l 1,50,-1
 94 743 l 1,9,10
682 1432 m 0,51,52
 647 1432 647 1432 623.5 1408.5 c 128,-1,53
 600 1385 600 1385 600 1348 c 0,54,55
 600 1313 600 1313 624 1290.5 c 128,-1,56
 648 1268 648 1268 682 1268 c 0,57,58
 719 1268 719 1268 742.5 1291.5 c 128,-1,59
 766 1315 766 1315 766 1352 c 0,60,61
 766 1387 766 1387 742 1409.5 c 128,-1,62
 718 1432 718 1432 682 1432 c 0,51,52
682 1552 m 0,63,64
 779 1552 779 1552 842 1499.5 c 128,-1,65
 905 1447 905 1447 905 1350 c 0,66,67
 905 1255 905 1255 842.5 1202 c 128,-1,68
 780 1149 780 1149 682 1149 c 0,69,70
 587 1149 587 1149 524 1201.5 c 128,-1,71
 461 1254 461 1254 461 1350 c 128,-1,72
 461 1446 461 1446 523.5 1499 c 128,-1,73
 586 1552 586 1552 682 1552 c 0,63,64
803 1604 m 1,74,-1
 543 1604 l 1,75,-1
 700 1817 l 1,76,-1
 1071 1817 l 1,77,-1
 1075 1808 l 1,78,-1
 803 1604 l 1,74,-1
EndSplineSet
Validated: 1
EndChar

StartChar: atilde
Encoding: 227 227 139
Width: 1366
Flags: MW
LayerCount: 2
Back
Fore
SplineSet
809 471 m 1,0,1
 636 471 636 471 552.5 433.5 c 128,-1,2
 469 396 469 396 469 332 c 0,3,4
 469 229 469 229 608 229 c 0,5,6
 688 229 688 229 748.5 272 c 128,-1,7
 809 315 809 315 809 379 c 2,8,-1
 809 471 l 1,0,1
94 743 m 1,9,10
 92 753 92 753 92 772 c 0,11,12
 92 925 92 925 238.5 1015.5 c 128,-1,13
 385 1106 385 1106 657 1106 c 0,14,15
 774 1106 774 1106 870.5 1088 c 128,-1,16
 967 1070 967 1070 1047 1030.5 c 128,-1,17
 1127 991 1127 991 1172 920.5 c 128,-1,18
 1217 850 1217 850 1217 754 c 2,19,-1
 1217 332 l 2,20,21
 1217 296 1217 296 1233.5 274 c 128,-1,22
 1250 252 1250 252 1282 252 c 2,23,-1
 1356 252 l 1,24,-1
 1356 16 l 1,25,26
 1347 11 1347 11 1331 4.5 c 128,-1,27
 1315 -2 1315 -2 1259.5 -13.5 c 128,-1,28
 1204 -25 1204 -25 1143 -25 c 0,29,30
 1023 -25 1023 -25 947 11 c 128,-1,31
 871 47 871 47 842 111 c 1,32,33
 672 -25 672 -25 442 -25 c 0,34,35
 61 -25 61 -25 61 279 c 0,36,37
 61 375 61 375 94.5 443.5 c 128,-1,38
 128 512 128 512 187 554.5 c 128,-1,39
 246 597 246 597 343 621.5 c 128,-1,40
 440 646 440 646 548.5 655 c 128,-1,41
 657 664 657 664 809 664 c 1,42,-1
 809 717 l 2,43,44
 809 780 809 780 765 813 c 128,-1,45
 721 846 721 846 651 846 c 0,46,47
 588 846 588 846 542 823.5 c 128,-1,48
 496 801 496 801 496 752 c 2,49,-1
 496 743 l 1,50,-1
 94 743 l 1,9,10
1139 1485 m 1,51,52
 1139 1370 1139 1370 1057.5 1281 c 128,-1,53
 976 1192 976 1192 852 1192 c 0,54,55
 784 1192 784 1192 667 1233 c 128,-1,56
 550 1274 550 1274 498 1274 c 0,57,58
 460 1274 460 1274 433 1251.5 c 128,-1,59
 406 1229 406 1229 393 1192 c 1,60,-1
 227 1192 l 1,61,62
 227 1307 227 1307 308.5 1396 c 128,-1,63
 390 1485 390 1485 514 1485 c 0,64,65
 582 1485 582 1485 699 1444 c 128,-1,66
 816 1403 816 1403 868 1403 c 0,67,68
 906 1403 906 1403 933 1425.5 c 128,-1,69
 960 1448 960 1448 973 1485 c 1,70,-1
 1139 1485 l 1,51,52
EndSplineSet
Validated: 1
EndChar

StartChar: ae
Encoding: 230 230 140
Width: 2048
Flags: MW
LayerCount: 2
Back
Fore
SplineSet
809 471 m 1,0,1
 636 471 636 471 552.5 433.5 c 128,-1,2
 469 396 469 396 469 332 c 0,3,4
 469 229 469 229 608 229 c 0,5,6
 688 229 688 229 748.5 272 c 128,-1,7
 809 315 809 315 809 379 c 2,8,-1
 809 471 l 1,0,1
1579 664 m 1,9,10
 1579 749 1579 749 1534.5 797.5 c 128,-1,11
 1490 846 1490 846 1409 846 c 0,12,13
 1242 846 1242 846 1223 664 c 1,14,-1
 1579 664 l 1,9,10
94 743 m 1,15,16
 92 753 92 753 92 772 c 0,17,18
 92 925 92 925 238.5 1015.5 c 128,-1,19
 385 1106 385 1106 657 1106 c 0,20,21
 922 1106 922 1106 1061 1008 c 1,22,23
 1207 1106 1207 1106 1421 1106 c 0,24,25
 1991 1106 1991 1106 1991 541 c 2,26,-1
 1991 471 l 1,27,-1
 1221 471 l 1,28,29
 1221 355 1221 355 1267.5 295.5 c 128,-1,30
 1314 236 1314 236 1417 236 c 0,31,32
 1510 236 1510 236 1552.5 279 c 128,-1,33
 1595 322 1595 322 1595 393 c 1,34,-1
 1991 393 l 1,35,36
 1991 196 1991 196 1851.5 85.5 c 128,-1,37
 1712 -25 1712 -25 1446 -25 c 0,38,39
 1127 -25 1127 -25 967 125 c 1,40,41
 767 -25 767 -25 524 -25 c 0,42,43
 412 -25 412 -25 330.5 -9 c 128,-1,44
 249 7 249 7 186.5 43 c 128,-1,45
 124 79 124 79 92.5 143 c 128,-1,46
 61 207 61 207 61 299 c 0,47,48
 61 364 61 364 78 415.5 c 128,-1,49
 95 467 95 467 126 505 c 128,-1,50
 157 543 157 543 206.5 571 c 128,-1,51
 256 599 256 599 314.5 616.5 c 128,-1,52
 373 634 373 634 453 645 c 128,-1,53
 533 656 533 656 617.5 660 c 128,-1,54
 702 664 702 664 809 664 c 1,55,-1
 809 717 l 2,56,57
 809 780 809 780 767 813 c 128,-1,58
 725 846 725 846 659 846 c 0,59,60
 592 846 592 846 544 823.5 c 128,-1,61
 496 801 496 801 496 752 c 2,62,-1
 496 743 l 1,63,-1
 94 743 l 1,15,16
EndSplineSet
Validated: 1
EndChar

StartChar: aeacute
Encoding: 509 509 141
Width: 2048
Flags: MW
LayerCount: 2
Back
Fore
SplineSet
809 471 m 1,0,1
 636 471 636 471 552.5 433.5 c 128,-1,2
 469 396 469 396 469 332 c 0,3,4
 469 229 469 229 608 229 c 0,5,6
 688 229 688 229 748.5 272 c 128,-1,7
 809 315 809 315 809 379 c 2,8,-1
 809 471 l 1,0,1
1579 664 m 1,9,10
 1579 749 1579 749 1534.5 797.5 c 128,-1,11
 1490 846 1490 846 1409 846 c 0,12,13
 1242 846 1242 846 1223 664 c 1,14,-1
 1579 664 l 1,9,10
94 743 m 1,15,16
 92 753 92 753 92 772 c 0,17,18
 92 925 92 925 238.5 1015.5 c 128,-1,19
 385 1106 385 1106 657 1106 c 0,20,21
 922 1106 922 1106 1061 1008 c 1,22,23
 1207 1106 1207 1106 1421 1106 c 0,24,25
 1991 1106 1991 1106 1991 541 c 2,26,-1
 1991 471 l 1,27,-1
 1221 471 l 1,28,29
 1221 355 1221 355 1267.5 295.5 c 128,-1,30
 1314 236 1314 236 1417 236 c 0,31,32
 1510 236 1510 236 1552.5 279 c 128,-1,33
 1595 322 1595 322 1595 393 c 1,34,-1
 1991 393 l 1,35,36
 1991 196 1991 196 1851.5 85.5 c 128,-1,37
 1712 -25 1712 -25 1446 -25 c 0,38,39
 1127 -25 1127 -25 967 125 c 1,40,41
 767 -25 767 -25 524 -25 c 0,42,43
 412 -25 412 -25 330.5 -9 c 128,-1,44
 249 7 249 7 186.5 43 c 128,-1,45
 124 79 124 79 92.5 143 c 128,-1,46
 61 207 61 207 61 299 c 0,47,48
 61 364 61 364 78 415.5 c 128,-1,49
 95 467 95 467 126 505 c 128,-1,50
 157 543 157 543 206.5 571 c 128,-1,51
 256 599 256 599 314.5 616.5 c 128,-1,52
 373 634 373 634 453 645 c 128,-1,53
 533 656 533 656 617.5 660 c 128,-1,54
 702 664 702 664 809 664 c 1,55,-1
 809 717 l 2,56,57
 809 780 809 780 767 813 c 128,-1,58
 725 846 725 846 659 846 c 0,59,60
 592 846 592 846 544 823.5 c 128,-1,61
 496 801 496 801 496 752 c 2,62,-1
 496 743 l 1,63,-1
 94 743 l 1,15,16
852 1212 m 1,64,-1
 1040 1485 l 1,65,-1
 1436 1485 l 1,66,-1
 1440 1477 l 1,67,-1
 1112 1212 l 1,68,-1
 852 1212 l 1,64,-1
EndSplineSet
Validated: 1
EndChar

StartChar: b
Encoding: 98 98 142
Width: 1366
Flags: MW
LayerCount: 2
Back
Fore
SplineSet
885 594 m 2,0,1
 885 805 885 805 709 805 c 0,2,3
 619 805 619 805 573.5 740 c 128,-1,4
 528 675 528 675 528 573 c 2,5,-1
 528 506 l 2,6,7
 528 404 528 404 573 340 c 128,-1,8
 618 276 618 276 709 276 c 0,9,10
 885 276 885 276 885 485 c 2,11,-1
 885 594 l 2,0,1
532 981 m 1,12,13
 648 1106 648 1106 836 1106 c 0,14,15
 1055 1106 1055 1106 1173.5 964 c 128,-1,16
 1292 822 1292 822 1292 543 c 0,17,18
 1292 262 1292 262 1173.5 118.5 c 128,-1,19
 1055 -25 1055 -25 836 -25 c 0,20,21
 610 -25 610 -25 492 154 c 1,22,-1
 457 0 l 1,23,-1
 125 0 l 1,24,-1
 125 1485 l 1,25,-1
 532 1485 l 1,26,-1
 532 981 l 1,12,13
EndSplineSet
Validated: 1
EndChar

StartChar: c
Encoding: 99 99 143
Width: 1366
Flags: MW
LayerCount: 2
Back
Fore
SplineSet
1278 440 m 1,0,1
 1278 320 1278 320 1232 229 c 128,-1,2
 1186 138 1186 138 1103.5 83.5 c 128,-1,3
 1021 29 1021 29 915 2 c 128,-1,4
 809 -25 809 -25 682 -25 c 0,5,6
 398 -25 398 -25 236 119 c 128,-1,7
 74 263 74 263 74 541 c 128,-1,8
 74 819 74 819 236 962.5 c 128,-1,9
 398 1106 398 1106 682 1106 c 0,10,11
 810 1106 810 1106 915 1080 c 128,-1,12
 1020 1054 1020 1054 1103 1000 c 128,-1,13
 1186 946 1186 946 1232 855.5 c 128,-1,14
 1278 765 1278 765 1278 645 c 1,15,-1
 883 645 l 1,16,17
 883 829 883 829 682 829 c 128,-1,18
 481 829 481 829 481 598 c 2,19,-1
 481 481 l 2,20,21
 481 252 481 252 690 252 c 128,-1,22
 899 252 899 252 899 440 c 1,23,-1
 1278 440 l 1,0,1
EndSplineSet
Validated: 1
EndChar

StartChar: cacute
Encoding: 263 263 144
Width: 1366
Flags: MW
LayerCount: 2
Back
Fore
SplineSet
1278 440 m 1,0,1
 1278 320 1278 320 1232 229 c 128,-1,2
 1186 138 1186 138 1103.5 83.5 c 128,-1,3
 1021 29 1021 29 915 2 c 128,-1,4
 809 -25 809 -25 682 -25 c 0,5,6
 398 -25 398 -25 236 119 c 128,-1,7
 74 263 74 263 74 541 c 128,-1,8
 74 819 74 819 236 962.5 c 128,-1,9
 398 1106 398 1106 682 1106 c 0,10,11
 810 1106 810 1106 915 1080 c 128,-1,12
 1020 1054 1020 1054 1103 1000 c 128,-1,13
 1186 946 1186 946 1232 855.5 c 128,-1,14
 1278 765 1278 765 1278 645 c 1,15,-1
 883 645 l 1,16,17
 883 829 883 829 682 829 c 128,-1,18
 481 829 481 829 481 598 c 2,19,-1
 481 481 l 2,20,21
 481 252 481 252 690 252 c 128,-1,22
 899 252 899 252 899 440 c 1,23,-1
 1278 440 l 1,0,1
485 1212 m 1,24,-1
 676 1485 l 1,25,-1
 1069 1485 l 1,26,-1
 1073 1477 l 1,27,-1
 748 1212 l 1,28,-1
 485 1212 l 1,24,-1
EndSplineSet
Validated: 1
EndChar

StartChar: ccaron
Encoding: 269 269 145
Width: 1366
Flags: MW
LayerCount: 2
Back
Fore
SplineSet
1278 440 m 1,0,1
 1278 320 1278 320 1232 229 c 128,-1,2
 1186 138 1186 138 1103.5 83.5 c 128,-1,3
 1021 29 1021 29 915 2 c 128,-1,4
 809 -25 809 -25 682 -25 c 0,5,6
 398 -25 398 -25 236 119 c 128,-1,7
 74 263 74 263 74 541 c 128,-1,8
 74 819 74 819 236 962.5 c 128,-1,9
 398 1106 398 1106 682 1106 c 0,10,11
 810 1106 810 1106 915 1080 c 128,-1,12
 1020 1054 1020 1054 1103 1000 c 128,-1,13
 1186 946 1186 946 1232 855.5 c 128,-1,14
 1278 765 1278 765 1278 645 c 1,15,-1
 883 645 l 1,16,17
 883 829 883 829 682 829 c 128,-1,18
 481 829 481 829 481 598 c 2,19,-1
 481 481 l 2,20,21
 481 252 481 252 690 252 c 128,-1,22
 899 252 899 252 899 440 c 1,23,-1
 1278 440 l 1,0,1
553 1188 m 1,24,-1
 266 1485 l 1,25,-1
 528 1485 l 1,26,-1
 682 1327 l 1,27,-1
 834 1485 l 1,28,-1
 1100 1485 l 1,29,-1
 813 1188 l 1,30,-1
 553 1188 l 1,24,-1
EndSplineSet
Validated: 1
EndChar

StartChar: ccedilla
Encoding: 231 231 146
Width: 1366
Flags: MW
LayerCount: 2
Back
Fore
SplineSet
623 -23 m 1,0,1
 365 -8 365 -8 219.5 135 c 128,-1,2
 74 278 74 278 74 541 c 0,3,4
 74 819 74 819 236 962.5 c 128,-1,5
 398 1106 398 1106 682 1106 c 0,6,7
 810 1106 810 1106 915 1080 c 128,-1,8
 1020 1054 1020 1054 1103 1000 c 128,-1,9
 1186 946 1186 946 1232 855.5 c 128,-1,10
 1278 765 1278 765 1278 645 c 1,11,-1
 883 645 l 1,12,13
 883 829 883 829 682 829 c 128,-1,14
 481 829 481 829 481 598 c 2,15,-1
 481 481 l 2,16,17
 481 252 481 252 690 252 c 128,-1,18
 899 252 899 252 899 440 c 1,19,-1
 1278 440 l 1,20,21
 1278 328 1278 328 1237.5 241 c 128,-1,22
 1197 154 1197 154 1124.5 99.5 c 128,-1,23
 1052 45 1052 45 957.5 14.5 c 128,-1,24
 863 -16 863 -16 748 -23 c 1,25,-1
 743 -59 l 1,26,27
 828 -67 828 -67 881 -110.5 c 128,-1,28
 934 -154 934 -154 934 -242 c 0,29,30
 934 -297 934 -297 910 -337 c 128,-1,31
 886 -377 886 -377 847 -396 c 128,-1,32
 808 -415 808 -415 769.5 -423.5 c 128,-1,33
 731 -432 731 -432 690 -432 c 0,34,35
 533 -432 533 -432 432 -399 c 1,36,-1
 432 -289 l 1,37,38
 565 -305 565 -305 674 -305 c 0,39,40
 756 -305 756 -305 756 -242 c 0,41,42
 756 -176 756 -176 678 -176 c 2,43,-1
 598 -176 l 1,44,-1
 623 -23 l 1,0,1
EndSplineSet
Validated: 1
EndChar

StartChar: ccircumflex
Encoding: 265 265 147
Width: 1366
Flags: MW
LayerCount: 2
Back
Fore
SplineSet
1278 440 m 1,0,1
 1278 320 1278 320 1232 229 c 128,-1,2
 1186 138 1186 138 1103.5 83.5 c 128,-1,3
 1021 29 1021 29 915 2 c 128,-1,4
 809 -25 809 -25 682 -25 c 0,5,6
 398 -25 398 -25 236 119 c 128,-1,7
 74 263 74 263 74 541 c 128,-1,8
 74 819 74 819 236 962.5 c 128,-1,9
 398 1106 398 1106 682 1106 c 0,10,11
 810 1106 810 1106 915 1080 c 128,-1,12
 1020 1054 1020 1054 1103 1000 c 128,-1,13
 1186 946 1186 946 1232 855.5 c 128,-1,14
 1278 765 1278 765 1278 645 c 1,15,-1
 883 645 l 1,16,17
 883 829 883 829 682 829 c 128,-1,18
 481 829 481 829 481 598 c 2,19,-1
 481 481 l 2,20,21
 481 252 481 252 690 252 c 128,-1,22
 899 252 899 252 899 440 c 1,23,-1
 1278 440 l 1,0,1
834 1188 m 1,24,-1
 682 1346 l 1,25,-1
 528 1188 l 1,26,-1
 266 1188 l 1,27,-1
 553 1485 l 1,28,-1
 813 1485 l 1,29,-1
 1100 1188 l 1,30,-1
 834 1188 l 1,24,-1
EndSplineSet
Validated: 1
EndChar

StartChar: cdotaccent
Encoding: 267 267 148
Width: 1366
Flags: MW
LayerCount: 2
Back
Fore
SplineSet
1278 440 m 1,0,1
 1278 320 1278 320 1232 229 c 128,-1,2
 1186 138 1186 138 1103.5 83.5 c 128,-1,3
 1021 29 1021 29 915 2 c 128,-1,4
 809 -25 809 -25 682 -25 c 0,5,6
 398 -25 398 -25 236 119 c 128,-1,7
 74 263 74 263 74 541 c 128,-1,8
 74 819 74 819 236 962.5 c 128,-1,9
 398 1106 398 1106 682 1106 c 0,10,11
 810 1106 810 1106 915 1080 c 128,-1,12
 1020 1054 1020 1054 1103 1000 c 128,-1,13
 1186 946 1186 946 1232 855.5 c 128,-1,14
 1278 765 1278 765 1278 645 c 1,15,-1
 883 645 l 1,16,17
 883 829 883 829 682 829 c 128,-1,18
 481 829 481 829 481 598 c 2,19,-1
 481 481 l 2,20,21
 481 252 481 252 690 252 c 128,-1,22
 899 252 899 252 899 440 c 1,23,-1
 1278 440 l 1,0,1
526 1200 m 1,24,-1
 526 1485 l 1,25,-1
 840 1485 l 1,26,-1
 840 1200 l 1,27,-1
 526 1200 l 1,24,-1
EndSplineSet
Validated: 1
EndChar

StartChar: d
Encoding: 100 100 149
Width: 1366
Flags: MW
LayerCount: 2
Back
Fore
SplineSet
838 573 m 2,0,1
 838 675 838 675 792.5 740 c 128,-1,2
 747 805 747 805 657 805 c 0,3,4
 481 805 481 805 481 594 c 2,5,-1
 481 485 l 2,6,7
 481 276 481 276 657 276 c 0,8,9
 748 276 748 276 793 340 c 128,-1,10
 838 404 838 404 838 506 c 2,11,-1
 838 573 l 2,0,1
909 0 m 1,12,-1
 874 154 l 1,13,14
 756 -25 756 -25 530 -25 c 0,15,16
 311 -25 311 -25 192.5 118.5 c 128,-1,17
 74 262 74 262 74 543 c 0,18,19
 74 822 74 822 192.5 964 c 128,-1,20
 311 1106 311 1106 530 1106 c 0,21,22
 718 1106 718 1106 834 981 c 1,23,-1
 834 1485 l 1,24,-1
 1241 1485 l 1,25,-1
 1241 0 l 1,26,-1
 909 0 l 1,12,-1
EndSplineSet
Validated: 1
EndChar

StartChar: eth
Encoding: 240 240 150
Width: 1366
Flags: MW
LayerCount: 2
Back
Fore
SplineSet
885 598 m 2,0,1
 885 829 885 829 682 829 c 0,2,3
 481 829 481 829 481 598 c 2,4,-1
 481 481 l 2,5,6
 481 252 481 252 682 252 c 0,7,8
 885 252 885 252 885 481 c 2,9,-1
 885 598 l 2,0,1
743 1485 m 1,10,11
 803 1455 803 1455 883 1389 c 1,12,-1
 1167 1421 l 1,13,-1
 1167 1262 l 1,14,-1
 1028 1245 l 1,15,16
 1292 935 1292 935 1292 541 c 0,17,18
 1292 263 1292 263 1129 119 c 128,-1,19
 966 -25 966 -25 682 -25 c 128,-1,20
 398 -25 398 -25 236 119 c 128,-1,21
 74 263 74 263 74 541 c 0,22,23
 74 780 74 780 219 926.5 c 128,-1,24
 364 1073 364 1073 610 1073 c 0,25,26
 688 1073 688 1073 745 1057 c 1,27,28
 699 1128 699 1128 643 1200 c 1,29,-1
 305 1161 l 1,30,-1
 305 1321 l 1,31,-1
 506 1343 l 1,32,33
 409 1430 409 1430 336 1477 c 1,34,-1
 338 1485 l 1,35,-1
 743 1485 l 1,10,11
EndSplineSet
Validated: 1
EndChar

StartChar: dcaron
Encoding: 271 271 151
Width: 1728
Flags: MW
LayerCount: 2
Back
Fore
SplineSet
838 573 m 2,0,1
 838 675 838 675 792.5 740 c 128,-1,2
 747 805 747 805 657 805 c 0,3,4
 481 805 481 805 481 594 c 2,5,-1
 481 485 l 2,6,7
 481 276 481 276 657 276 c 0,8,9
 748 276 748 276 793 340 c 128,-1,10
 838 404 838 404 838 506 c 2,11,-1
 838 573 l 2,0,1
1497 985 m 1,12,-1
 1360 985 l 1,13,-1
 1444 1174 l 1,14,-1
 1341 1174 l 1,15,-1
 1341 1409 l 1,16,-1
 1608 1409 l 1,17,-1
 1608 1188 l 1,18,-1
 1497 985 l 1,12,-1
909 0 m 1,19,-1
 874 154 l 1,20,21
 756 -25 756 -25 530 -25 c 0,22,23
 311 -25 311 -25 192.5 118.5 c 128,-1,24
 74 262 74 262 74 543 c 0,25,26
 74 822 74 822 192.5 964 c 128,-1,27
 311 1106 311 1106 530 1106 c 0,28,29
 718 1106 718 1106 834 981 c 1,30,-1
 834 1485 l 1,31,-1
 1241 1485 l 1,32,-1
 1241 0 l 1,33,-1
 909 0 l 1,19,-1
EndSplineSet
Validated: 1
EndChar

StartChar: dcroat
Encoding: 273 273 152
Width: 1366
Flags: MW
LayerCount: 2
Back
Fore
SplineSet
838 573 m 2,0,1
 838 675 838 675 792.5 740 c 128,-1,2
 747 805 747 805 657 805 c 0,3,4
 481 805 481 805 481 594 c 2,5,-1
 481 485 l 2,6,7
 481 276 481 276 657 276 c 0,8,9
 748 276 748 276 793 340 c 128,-1,10
 838 404 838 404 838 506 c 2,11,-1
 838 573 l 2,0,1
1366 1368 m 1,12,-1
 1366 1178 l 1,13,-1
 1241 1178 l 1,14,-1
 1241 0 l 1,15,-1
 909 0 l 1,16,-1
 874 154 l 1,17,18
 756 -25 756 -25 530 -25 c 0,19,20
 311 -25 311 -25 192.5 118.5 c 128,-1,21
 74 262 74 262 74 543 c 0,22,23
 74 822 74 822 192.5 964 c 128,-1,24
 311 1106 311 1106 530 1106 c 0,25,26
 718 1106 718 1106 834 981 c 1,27,-1
 834 1178 l 1,28,-1
 688 1178 l 1,29,-1
 688 1368 l 1,30,-1
 834 1368 l 1,31,-1
 834 1485 l 1,32,-1
 1241 1485 l 1,33,-1
 1241 1368 l 1,34,-1
 1366 1368 l 1,12,-1
EndSplineSet
Validated: 1
EndChar

StartChar: e
Encoding: 101 101 153
Width: 1366
Flags: MW
LayerCount: 2
Back
Fore
SplineSet
881 664 m 1,0,1
 881 749 881 749 832.5 797.5 c 128,-1,2
 784 846 784 846 698 846 c 0,3,4
 506 846 506 846 483 664 c 1,5,-1
 881 664 l 1,0,1
1292 393 m 1,6,7
 1292 196 1292 196 1143 85.5 c 128,-1,8
 994 -25 994 -25 707 -25 c 0,9,10
 406 -25 406 -25 240 116 c 128,-1,11
 74 257 74 257 74 541 c 0,12,13
 74 819 74 819 236 962.5 c 128,-1,14
 398 1106 398 1106 682 1106 c 0,15,16
 980 1106 980 1106 1136 966.5 c 128,-1,17
 1292 827 1292 827 1292 541 c 2,18,-1
 1292 471 l 1,19,-1
 481 471 l 1,20,21
 481 355 481 355 532.5 295.5 c 128,-1,22
 584 236 584 236 698 236 c 0,23,24
 801 236 801 236 849 279 c 128,-1,25
 897 322 897 322 897 393 c 1,26,-1
 1292 393 l 1,6,7
EndSplineSet
Validated: 1
EndChar

StartChar: eacute
Encoding: 233 233 154
Width: 1366
Flags: MW
LayerCount: 2
Back
Fore
SplineSet
881 664 m 1,0,1
 881 749 881 749 832.5 797.5 c 128,-1,2
 784 846 784 846 698 846 c 0,3,4
 506 846 506 846 483 664 c 1,5,-1
 881 664 l 1,0,1
1292 393 m 1,6,7
 1292 196 1292 196 1143 85.5 c 128,-1,8
 994 -25 994 -25 707 -25 c 0,9,10
 406 -25 406 -25 240 116 c 128,-1,11
 74 257 74 257 74 541 c 0,12,13
 74 819 74 819 236 962.5 c 128,-1,14
 398 1106 398 1106 682 1106 c 0,15,16
 980 1106 980 1106 1136 966.5 c 128,-1,17
 1292 827 1292 827 1292 541 c 2,18,-1
 1292 471 l 1,19,-1
 481 471 l 1,20,21
 481 355 481 355 532.5 295.5 c 128,-1,22
 584 236 584 236 698 236 c 0,23,24
 801 236 801 236 849 279 c 128,-1,25
 897 322 897 322 897 393 c 1,26,-1
 1292 393 l 1,6,7
485 1212 m 1,27,-1
 676 1485 l 1,28,-1
 1069 1485 l 1,29,-1
 1073 1477 l 1,30,-1
 748 1212 l 1,31,-1
 485 1212 l 1,27,-1
EndSplineSet
Validated: 1
EndChar

StartChar: ebreve
Encoding: 277 277 155
Width: 1366
Flags: MW
LayerCount: 2
Back
Fore
SplineSet
881 664 m 1,0,1
 881 749 881 749 832.5 797.5 c 128,-1,2
 784 846 784 846 698 846 c 0,3,4
 506 846 506 846 483 664 c 1,5,-1
 881 664 l 1,0,1
1292 393 m 1,6,7
 1292 196 1292 196 1143 85.5 c 128,-1,8
 994 -25 994 -25 707 -25 c 0,9,10
 406 -25 406 -25 240 116 c 128,-1,11
 74 257 74 257 74 541 c 0,12,13
 74 819 74 819 236 962.5 c 128,-1,14
 398 1106 398 1106 682 1106 c 0,15,16
 980 1106 980 1106 1136 966.5 c 128,-1,17
 1292 827 1292 827 1292 541 c 2,18,-1
 1292 471 l 1,19,-1
 481 471 l 1,20,21
 481 355 481 355 532.5 295.5 c 128,-1,22
 584 236 584 236 698 236 c 0,23,24
 801 236 801 236 849 279 c 128,-1,25
 897 322 897 322 897 393 c 1,26,-1
 1292 393 l 1,6,7
1061 1485 m 1,27,28
 1061 1374 1061 1374 954 1282 c 128,-1,29
 847 1190 847 1190 682 1190 c 0,30,31
 515 1190 515 1190 410 1282 c 128,-1,32
 305 1374 305 1374 305 1485 c 1,33,-1
 502 1485 l 1,34,35
 509 1448 509 1448 557 1417 c 1,36,37
 615 1382 615 1382 682 1382 c 0,38,39
 753 1382 753 1382 806 1415.5 c 128,-1,40
 859 1449 859 1449 866 1485 c 1,41,-1
 1061 1485 l 1,27,28
EndSplineSet
Validated: 1
EndChar

StartChar: ecaron
Encoding: 283 283 156
Width: 1366
Flags: MW
LayerCount: 2
Back
Fore
SplineSet
881 664 m 1,0,1
 881 749 881 749 832.5 797.5 c 128,-1,2
 784 846 784 846 698 846 c 0,3,4
 506 846 506 846 483 664 c 1,5,-1
 881 664 l 1,0,1
1292 393 m 1,6,7
 1292 196 1292 196 1143 85.5 c 128,-1,8
 994 -25 994 -25 707 -25 c 0,9,10
 406 -25 406 -25 240 116 c 128,-1,11
 74 257 74 257 74 541 c 0,12,13
 74 819 74 819 236 962.5 c 128,-1,14
 398 1106 398 1106 682 1106 c 0,15,16
 980 1106 980 1106 1136 966.5 c 128,-1,17
 1292 827 1292 827 1292 541 c 2,18,-1
 1292 471 l 1,19,-1
 481 471 l 1,20,21
 481 355 481 355 532.5 295.5 c 128,-1,22
 584 236 584 236 698 236 c 0,23,24
 801 236 801 236 849 279 c 128,-1,25
 897 322 897 322 897 393 c 1,26,-1
 1292 393 l 1,6,7
553 1188 m 1,27,-1
 266 1485 l 1,28,-1
 528 1485 l 1,29,-1
 682 1327 l 1,30,-1
 834 1485 l 1,31,-1
 1100 1485 l 1,32,-1
 813 1188 l 1,33,-1
 553 1188 l 1,27,-1
EndSplineSet
Validated: 1
EndChar

StartChar: ecircumflex
Encoding: 234 234 157
Width: 1366
Flags: MW
LayerCount: 2
Back
Fore
SplineSet
881 664 m 1,0,1
 881 749 881 749 832.5 797.5 c 128,-1,2
 784 846 784 846 698 846 c 0,3,4
 506 846 506 846 483 664 c 1,5,-1
 881 664 l 1,0,1
1292 393 m 1,6,7
 1292 196 1292 196 1143 85.5 c 128,-1,8
 994 -25 994 -25 707 -25 c 0,9,10
 406 -25 406 -25 240 116 c 128,-1,11
 74 257 74 257 74 541 c 0,12,13
 74 819 74 819 236 962.5 c 128,-1,14
 398 1106 398 1106 682 1106 c 0,15,16
 980 1106 980 1106 1136 966.5 c 128,-1,17
 1292 827 1292 827 1292 541 c 2,18,-1
 1292 471 l 1,19,-1
 481 471 l 1,20,21
 481 355 481 355 532.5 295.5 c 128,-1,22
 584 236 584 236 698 236 c 0,23,24
 801 236 801 236 849 279 c 128,-1,25
 897 322 897 322 897 393 c 1,26,-1
 1292 393 l 1,6,7
834 1188 m 1,27,-1
 682 1346 l 1,28,-1
 528 1188 l 1,29,-1
 266 1188 l 1,30,-1
 553 1485 l 1,31,-1
 813 1485 l 1,32,-1
 1100 1188 l 1,33,-1
 834 1188 l 1,27,-1
EndSplineSet
Validated: 1
EndChar

StartChar: edieresis
Encoding: 235 235 158
Width: 1366
Flags: MW
LayerCount: 2
Back
Fore
SplineSet
881 664 m 1,0,1
 881 749 881 749 832.5 797.5 c 128,-1,2
 784 846 784 846 698 846 c 0,3,4
 506 846 506 846 483 664 c 1,5,-1
 881 664 l 1,0,1
1292 393 m 1,6,7
 1292 196 1292 196 1143 85.5 c 128,-1,8
 994 -25 994 -25 707 -25 c 0,9,10
 406 -25 406 -25 240 116 c 128,-1,11
 74 257 74 257 74 541 c 0,12,13
 74 819 74 819 236 962.5 c 128,-1,14
 398 1106 398 1106 682 1106 c 0,15,16
 980 1106 980 1106 1136 966.5 c 128,-1,17
 1292 827 1292 827 1292 541 c 2,18,-1
 1292 471 l 1,19,-1
 481 471 l 1,20,21
 481 355 481 355 532.5 295.5 c 128,-1,22
 584 236 584 236 698 236 c 0,23,24
 801 236 801 236 849 279 c 128,-1,25
 897 322 897 322 897 393 c 1,26,-1
 1292 393 l 1,6,7
754 1200 m 1,27,-1
 754 1485 l 1,28,-1
 1065 1485 l 1,29,-1
 1065 1200 l 1,30,-1
 754 1200 l 1,27,-1
301 1200 m 1,31,-1
 301 1485 l 1,32,-1
 612 1485 l 1,33,-1
 612 1200 l 1,34,-1
 301 1200 l 1,31,-1
EndSplineSet
Validated: 1
EndChar

StartChar: edotaccent
Encoding: 279 279 159
Width: 1366
Flags: MW
LayerCount: 2
Back
Fore
SplineSet
881 664 m 1,0,1
 881 749 881 749 832.5 797.5 c 128,-1,2
 784 846 784 846 698 846 c 0,3,4
 506 846 506 846 483 664 c 1,5,-1
 881 664 l 1,0,1
1292 393 m 1,6,7
 1292 196 1292 196 1143 85.5 c 128,-1,8
 994 -25 994 -25 707 -25 c 0,9,10
 406 -25 406 -25 240 116 c 128,-1,11
 74 257 74 257 74 541 c 0,12,13
 74 819 74 819 236 962.5 c 128,-1,14
 398 1106 398 1106 682 1106 c 0,15,16
 980 1106 980 1106 1136 966.5 c 128,-1,17
 1292 827 1292 827 1292 541 c 2,18,-1
 1292 471 l 1,19,-1
 481 471 l 1,20,21
 481 355 481 355 532.5 295.5 c 128,-1,22
 584 236 584 236 698 236 c 0,23,24
 801 236 801 236 849 279 c 128,-1,25
 897 322 897 322 897 393 c 1,26,-1
 1292 393 l 1,6,7
526 1200 m 1,27,-1
 526 1485 l 1,28,-1
 840 1485 l 1,29,-1
 840 1200 l 1,30,-1
 526 1200 l 1,27,-1
EndSplineSet
Validated: 1
EndChar

StartChar: egrave
Encoding: 232 232 160
Width: 1366
Flags: MW
LayerCount: 2
Back
Fore
SplineSet
881 664 m 1,0,1
 881 749 881 749 832.5 797.5 c 128,-1,2
 784 846 784 846 698 846 c 0,3,4
 506 846 506 846 483 664 c 1,5,-1
 881 664 l 1,0,1
1292 393 m 1,6,7
 1292 196 1292 196 1143 85.5 c 128,-1,8
 994 -25 994 -25 707 -25 c 0,9,10
 406 -25 406 -25 240 116 c 128,-1,11
 74 257 74 257 74 541 c 0,12,13
 74 819 74 819 236 962.5 c 128,-1,14
 398 1106 398 1106 682 1106 c 0,15,16
 980 1106 980 1106 1136 966.5 c 128,-1,17
 1292 827 1292 827 1292 541 c 2,18,-1
 1292 471 l 1,19,-1
 481 471 l 1,20,21
 481 355 481 355 532.5 295.5 c 128,-1,22
 584 236 584 236 698 236 c 0,23,24
 801 236 801 236 849 279 c 128,-1,25
 897 322 897 322 897 393 c 1,26,-1
 1292 393 l 1,6,7
293 1477 m 1,27,-1
 297 1485 l 1,28,-1
 690 1485 l 1,29,-1
 881 1212 l 1,30,-1
 621 1212 l 1,31,-1
 293 1477 l 1,27,-1
EndSplineSet
Validated: 1
EndChar

StartChar: emacron
Encoding: 275 275 161
Width: 1366
Flags: MW
LayerCount: 2
Back
Fore
SplineSet
881 664 m 1,0,1
 881 749 881 749 832.5 797.5 c 128,-1,2
 784 846 784 846 698 846 c 0,3,4
 506 846 506 846 483 664 c 1,5,-1
 881 664 l 1,0,1
1292 393 m 1,6,7
 1292 196 1292 196 1143 85.5 c 128,-1,8
 994 -25 994 -25 707 -25 c 0,9,10
 406 -25 406 -25 240 116 c 128,-1,11
 74 257 74 257 74 541 c 0,12,13
 74 819 74 819 236 962.5 c 128,-1,14
 398 1106 398 1106 682 1106 c 0,15,16
 980 1106 980 1106 1136 966.5 c 128,-1,17
 1292 827 1292 827 1292 541 c 2,18,-1
 1292 471 l 1,19,-1
 481 471 l 1,20,21
 481 355 481 355 532.5 295.5 c 128,-1,22
 584 236 584 236 698 236 c 0,23,24
 801 236 801 236 849 279 c 128,-1,25
 897 322 897 322 897 393 c 1,26,-1
 1292 393 l 1,6,7
358 1239 m 1,27,-1
 358 1444 l 1,28,-1
 1008 1444 l 1,29,-1
 1008 1239 l 1,30,-1
 358 1239 l 1,27,-1
EndSplineSet
Validated: 1
EndChar

StartChar: eogonek
Encoding: 281 281 162
Width: 1366
Flags: MW
LayerCount: 2
Back
Fore
SplineSet
881 664 m 1,0,1
 881 749 881 749 832.5 797.5 c 128,-1,2
 784 846 784 846 698 846 c 0,3,4
 506 846 506 846 483 664 c 1,5,-1
 881 664 l 1,0,1
707 -25 m 2,6,7
 406 -25 406 -25 240 116 c 128,-1,8
 74 257 74 257 74 541 c 0,9,10
 74 819 74 819 236 962.5 c 128,-1,11
 398 1106 398 1106 682 1106 c 0,12,13
 980 1106 980 1106 1136 966.5 c 128,-1,14
 1292 827 1292 827 1292 541 c 2,15,-1
 1292 471 l 1,16,-1
 481 471 l 1,17,18
 481 355 481 355 532.5 295.5 c 128,-1,19
 584 236 584 236 698 236 c 0,20,21
 801 236 801 236 849 279 c 128,-1,22
 897 322 897 322 897 393 c 1,23,-1
 1292 393 l 1,24,25
 1292 252 1292 252 1215 153.5 c 128,-1,26
 1138 55 1138 55 987 10 c 1,27,28
 948 -61 948 -61 948 -141 c 0,29,30
 948 -185 948 -185 978 -215.5 c 128,-1,31
 1008 -246 1008 -246 1071 -246 c 2,32,-1
 1157 -246 l 1,33,-1
 1157 -401 l 1,34,35
 1062 -432 1062 -432 963 -432 c 0,36,37
 911 -432 911 -432 865.5 -419 c 128,-1,38
 820 -406 820 -406 782.5 -379 c 128,-1,39
 745 -352 745 -352 723.5 -306 c 128,-1,40
 702 -260 702 -260 702 -199 c 0,41,42
 702 -110 702 -110 768 -25 c 1,43,-1
 707 -25 l 2,6,7
EndSplineSet
Validated: 1
EndChar

StartChar: f
Encoding: 102 102 163
Width: 796
Flags: MW
LayerCount: 2
Back
Fore
SplineSet
168 1126 m 2,0,1
 168 1234 168 1234 196.5 1310 c 128,-1,2
 225 1386 225 1386 279 1428.5 c 128,-1,3
 333 1471 333 1471 402 1490 c 128,-1,4
 471 1509 471 1509 563 1509 c 0,5,6
 609 1509 609 1509 676.5 1498.5 c 128,-1,7
 744 1488 744 1488 784 1473 c 1,8,-1
 784 1233 l 1,9,-1
 690 1233 l 2,10,11
 624 1233 624 1233 599.5 1208 c 128,-1,12
 575 1183 575 1183 575 1124 c 2,13,-1
 575 1081 l 1,14,-1
 784 1081 l 1,15,-1
 784 805 l 1,16,-1
 575 805 l 1,17,-1
 575 0 l 1,18,-1
 168 0 l 1,19,-1
 168 805 l 1,20,-1
 16 805 l 1,21,-1
 16 1081 l 1,22,-1
 168 1081 l 1,23,-1
 168 1126 l 2,0,1
EndSplineSet
Validated: 1
EndChar

StartChar: g
Encoding: 103 103 164
Width: 1366
Flags: MW
LayerCount: 2
Back
Fore
SplineSet
504 0 m 2,0,1
 458 0 458 0 427.5 -26 c 128,-1,2
 397 -52 397 -52 397 -98 c 128,-1,3
 397 -144 397 -144 428 -173.5 c 128,-1,4
 459 -203 459 -203 504 -203 c 2,5,-1
 823 -203 l 2,6,7
 869 -203 869 -203 900.5 -174.5 c 128,-1,8
 932 -146 932 -146 932 -100 c 128,-1,9
 932 -54 932 -54 900.5 -27 c 128,-1,10
 869 0 869 0 823 0 c 2,11,-1
 504 0 l 2,0,1
662 893 m 0,12,13
 594 893 594 893 551 858.5 c 128,-1,14
 508 824 508 824 508 758 c 0,15,16
 508 690 508 690 548 656.5 c 128,-1,17
 588 623 588 623 662 623 c 128,-1,18
 736 623 736 623 777.5 657 c 128,-1,19
 819 691 819 691 819 758 c 128,-1,20
 819 825 819 825 777.5 859 c 128,-1,21
 736 893 736 893 662 893 c 0,12,13
1339 1284 m 1,22,23
 1339 1158 1339 1158 1276.5 1091 c 128,-1,24
 1214 1024 1214 1024 1090 991 c 1,25,26
 1150 946 1150 946 1183.5 885.5 c 128,-1,27
 1217 825 1217 825 1217 758 c 0,28,29
 1217 670 1217 670 1180.5 602 c 128,-1,30
 1144 534 1144 534 1080 493 c 128,-1,31
 1016 452 1016 452 935.5 431 c 128,-1,32
 855 410 855 410 762 410 c 2,33,-1
 606 410 l 2,34,35
 477 410 477 410 477 350 c 0,36,37
 477 287 477 287 606 287 c 2,38,-1
 975 287 l 2,39,40
 1156 287 1156 287 1247.5 193 c 128,-1,41
 1339 99 1339 99 1339 -59 c 0,42,43
 1339 -176 1339 -176 1275.5 -261.5 c 128,-1,44
 1212 -347 1212 -347 1110.5 -388.5 c 128,-1,45
 1009 -430 1009 -430 885 -430 c 2,46,-1
 283 -430 l 2,47,48
 170 -430 170 -430 90 -354 c 128,-1,49
 10 -278 10 -278 10 -166 c 0,50,51
 10 -86 10 -86 59.5 -21.5 c 128,-1,52
 109 43 109 43 182 76 c 1,53,54
 76 148 76 148 76 266 c 0,55,56
 76 346 76 346 135.5 411 c 128,-1,57
 195 476 195 476 283 498 c 1,58,59
 204 548 204 548 156.5 615 c 128,-1,60
 109 682 109 682 109 756 c 0,61,62
 109 853 109 853 152.5 923 c 128,-1,63
 196 993 196 993 275 1032 c 128,-1,64
 354 1071 354 1071 450 1088.5 c 128,-1,65
 546 1106 546 1106 666 1106 c 0,66,67
 776 1106 776 1106 844 1094 c 1,68,69
 888 1121 888 1121 921 1151 c 128,-1,70
 954 1181 954 1181 969 1202 c 128,-1,71
 984 1223 984 1223 993 1243.5 c 128,-1,72
 1002 1264 1002 1264 1003 1271.5 c 128,-1,73
 1004 1279 1004 1279 1004 1284 c 1,74,-1
 1339 1284 l 1,22,23
EndSplineSet
Validated: 1
EndChar

StartChar: gbreve
Encoding: 287 287 165
Width: 1366
Flags: MW
LayerCount: 2
Back
Fore
SplineSet
504 0 m 2,0,1
 458 0 458 0 427.5 -26 c 128,-1,2
 397 -52 397 -52 397 -98 c 128,-1,3
 397 -144 397 -144 428 -173.5 c 128,-1,4
 459 -203 459 -203 504 -203 c 2,5,-1
 823 -203 l 2,6,7
 869 -203 869 -203 900.5 -174.5 c 128,-1,8
 932 -146 932 -146 932 -100 c 128,-1,9
 932 -54 932 -54 900.5 -27 c 128,-1,10
 869 0 869 0 823 0 c 2,11,-1
 504 0 l 2,0,1
662 893 m 0,12,13
 594 893 594 893 551 858.5 c 128,-1,14
 508 824 508 824 508 758 c 0,15,16
 508 690 508 690 548 656.5 c 128,-1,17
 588 623 588 623 662 623 c 128,-1,18
 736 623 736 623 777.5 657 c 128,-1,19
 819 691 819 691 819 758 c 128,-1,20
 819 825 819 825 777.5 859 c 128,-1,21
 736 893 736 893 662 893 c 0,12,13
1339 1284 m 1,22,23
 1339 1158 1339 1158 1276.5 1091 c 128,-1,24
 1214 1024 1214 1024 1090 991 c 1,25,26
 1150 946 1150 946 1183.5 885.5 c 128,-1,27
 1217 825 1217 825 1217 758 c 0,28,29
 1217 670 1217 670 1180.5 602 c 128,-1,30
 1144 534 1144 534 1080 493 c 128,-1,31
 1016 452 1016 452 935.5 431 c 128,-1,32
 855 410 855 410 762 410 c 2,33,-1
 606 410 l 2,34,35
 477 410 477 410 477 350 c 0,36,37
 477 287 477 287 606 287 c 2,38,-1
 975 287 l 2,39,40
 1156 287 1156 287 1247.5 193 c 128,-1,41
 1339 99 1339 99 1339 -59 c 0,42,43
 1339 -176 1339 -176 1275.5 -261.5 c 128,-1,44
 1212 -347 1212 -347 1110.5 -388.5 c 128,-1,45
 1009 -430 1009 -430 885 -430 c 2,46,-1
 283 -430 l 2,47,48
 170 -430 170 -430 90 -354 c 128,-1,49
 10 -278 10 -278 10 -166 c 0,50,51
 10 -86 10 -86 59.5 -21.5 c 128,-1,52
 109 43 109 43 182 76 c 1,53,54
 76 148 76 148 76 266 c 0,55,56
 76 346 76 346 135.5 411 c 128,-1,57
 195 476 195 476 283 498 c 1,58,59
 204 548 204 548 156.5 615 c 128,-1,60
 109 682 109 682 109 756 c 0,61,62
 109 853 109 853 152.5 923 c 128,-1,63
 196 993 196 993 275 1032 c 128,-1,64
 354 1071 354 1071 450 1088.5 c 128,-1,65
 546 1106 546 1106 666 1106 c 0,66,67
 776 1106 776 1106 844 1094 c 1,68,69
 900 1094 900 1094 943.5 1113.5 c 128,-1,70
 987 1133 987 1133 1009 1161 c 128,-1,71
 1031 1189 1031 1189 1045.5 1217 c 128,-1,72
 1060 1245 1060 1245 1064 1264 c 2,73,-1
 1067 1284 l 1,74,-1
 1339 1284 l 1,22,23
1055 1485 m 1,75,76
 1055 1375 1055 1375 947.5 1282.5 c 128,-1,77
 840 1190 840 1190 676 1190 c 0,78,79
 590 1190 590 1190 517 1216.5 c 128,-1,80
 444 1243 444 1243 397.5 1286 c 128,-1,81
 351 1329 351 1329 325 1381 c 128,-1,82
 299 1433 299 1433 299 1485 c 1,83,-1
 496 1485 l 1,84,85
 503 1448 503 1448 551 1417 c 1,86,87
 609 1382 609 1382 676 1382 c 0,88,89
 746 1382 746 1382 799.5 1415.5 c 128,-1,90
 853 1449 853 1449 858 1485 c 1,91,-1
 1055 1485 l 1,75,76
EndSplineSet
Validated: 1
EndChar

StartChar: gcircumflex
Encoding: 285 285 166
Width: 1366
Flags: MW
LayerCount: 2
Back
Fore
SplineSet
504 0 m 2,0,1
 458 0 458 0 427.5 -26 c 128,-1,2
 397 -52 397 -52 397 -98 c 128,-1,3
 397 -144 397 -144 428 -173.5 c 128,-1,4
 459 -203 459 -203 504 -203 c 2,5,-1
 823 -203 l 2,6,7
 869 -203 869 -203 900.5 -174.5 c 128,-1,8
 932 -146 932 -146 932 -100 c 128,-1,9
 932 -54 932 -54 900.5 -27 c 128,-1,10
 869 0 869 0 823 0 c 2,11,-1
 504 0 l 2,0,1
662 893 m 0,12,13
 594 893 594 893 551 858.5 c 128,-1,14
 508 824 508 824 508 758 c 0,15,16
 508 690 508 690 548 656.5 c 128,-1,17
 588 623 588 623 662 623 c 128,-1,18
 736 623 736 623 777.5 657 c 128,-1,19
 819 691 819 691 819 758 c 128,-1,20
 819 825 819 825 777.5 859 c 128,-1,21
 736 893 736 893 662 893 c 0,12,13
1339 1284 m 1,22,23
 1339 1158 1339 1158 1276.5 1091 c 128,-1,24
 1214 1024 1214 1024 1090 991 c 1,25,26
 1150 946 1150 946 1183.5 885.5 c 128,-1,27
 1217 825 1217 825 1217 758 c 0,28,29
 1217 670 1217 670 1180.5 602 c 128,-1,30
 1144 534 1144 534 1080 493 c 128,-1,31
 1016 452 1016 452 935.5 431 c 128,-1,32
 855 410 855 410 762 410 c 2,33,-1
 606 410 l 2,34,35
 477 410 477 410 477 350 c 0,36,37
 477 287 477 287 606 287 c 2,38,-1
 975 287 l 2,39,40
 1156 287 1156 287 1247.5 193 c 128,-1,41
 1339 99 1339 99 1339 -59 c 0,42,43
 1339 -176 1339 -176 1275.5 -261.5 c 128,-1,44
 1212 -347 1212 -347 1110.5 -388.5 c 128,-1,45
 1009 -430 1009 -430 885 -430 c 2,46,-1
 283 -430 l 2,47,48
 170 -430 170 -430 90 -354 c 128,-1,49
 10 -278 10 -278 10 -166 c 0,50,51
 10 -86 10 -86 59.5 -21.5 c 128,-1,52
 109 43 109 43 182 76 c 1,53,54
 76 148 76 148 76 266 c 0,55,56
 76 346 76 346 135.5 411 c 128,-1,57
 195 476 195 476 283 498 c 1,58,59
 204 548 204 548 156.5 615 c 128,-1,60
 109 682 109 682 109 756 c 0,61,62
 109 853 109 853 152.5 923 c 128,-1,63
 196 993 196 993 275 1032 c 128,-1,64
 354 1071 354 1071 450 1088.5 c 128,-1,65
 546 1106 546 1106 666 1106 c 0,66,67
 776 1106 776 1106 844 1094 c 1,68,69
 903 1094 903 1094 946.5 1108 c 128,-1,70
 990 1122 990 1122 1012.5 1141.5 c 128,-1,71
 1035 1161 1035 1161 1048 1187.5 c 128,-1,72
 1061 1214 1061 1214 1064 1232 c 128,-1,73
 1067 1250 1067 1250 1067 1268 c 2,74,-1
 1067 1284 l 1,75,-1
 1339 1284 l 1,22,23
735 1188 m 1,76,-1
 625 1346 l 1,77,-1
 512 1188 l 1,78,-1
 250 1188 l 1,79,-1
 496 1485 l 1,80,-1
 758 1485 l 1,81,-1
 1001 1188 l 1,82,-1
 735 1188 l 1,76,-1
EndSplineSet
Validated: 1
EndChar

StartChar: gcommaaccent
Encoding: 291 291 167
Width: 1366
Flags: MW
LayerCount: 2
Back
Fore
SplineSet
504 0 m 2,0,1
 458 0 458 0 427.5 -26 c 128,-1,2
 397 -52 397 -52 397 -98 c 128,-1,3
 397 -144 397 -144 428 -173.5 c 128,-1,4
 459 -203 459 -203 504 -203 c 2,5,-1
 823 -203 l 2,6,7
 869 -203 869 -203 900.5 -174.5 c 128,-1,8
 932 -146 932 -146 932 -100 c 128,-1,9
 932 -54 932 -54 900.5 -27 c 128,-1,10
 869 0 869 0 823 0 c 2,11,-1
 504 0 l 2,0,1
662 893 m 0,12,13
 594 893 594 893 551 858.5 c 128,-1,14
 508 824 508 824 508 758 c 0,15,16
 508 690 508 690 548 656.5 c 128,-1,17
 588 623 588 623 662 623 c 128,-1,18
 736 623 736 623 777.5 657 c 128,-1,19
 819 691 819 691 819 758 c 128,-1,20
 819 825 819 825 777.5 859 c 128,-1,21
 736 893 736 893 662 893 c 0,12,13
1339 1284 m 1,22,23
 1339 1158 1339 1158 1276.5 1091 c 128,-1,24
 1214 1024 1214 1024 1090 991 c 1,25,26
 1150 946 1150 946 1183.5 885.5 c 128,-1,27
 1217 825 1217 825 1217 758 c 0,28,29
 1217 670 1217 670 1180.5 602 c 128,-1,30
 1144 534 1144 534 1080 493 c 128,-1,31
 1016 452 1016 452 935.5 431 c 128,-1,32
 855 410 855 410 762 410 c 2,33,-1
 606 410 l 2,34,35
 477 410 477 410 477 350 c 0,36,37
 477 287 477 287 606 287 c 2,38,-1
 975 287 l 2,39,40
 1156 287 1156 287 1247.5 193 c 128,-1,41
 1339 99 1339 99 1339 -59 c 0,42,43
 1339 -176 1339 -176 1275.5 -261.5 c 128,-1,44
 1212 -347 1212 -347 1110.5 -388.5 c 128,-1,45
 1009 -430 1009 -430 885 -430 c 2,46,-1
 283 -430 l 2,47,48
 170 -430 170 -430 90 -354 c 128,-1,49
 10 -278 10 -278 10 -166 c 0,50,51
 10 -86 10 -86 59.5 -21.5 c 128,-1,52
 109 43 109 43 182 76 c 1,53,54
 76 148 76 148 76 266 c 0,55,56
 76 346 76 346 135.5 411 c 128,-1,57
 195 476 195 476 283 498 c 1,58,59
 204 548 204 548 156.5 615 c 128,-1,60
 109 682 109 682 109 756 c 0,61,62
 109 853 109 853 152.5 923 c 128,-1,63
 196 993 196 993 275 1032 c 128,-1,64
 354 1071 354 1071 450 1088.5 c 128,-1,65
 546 1106 546 1106 666 1106 c 0,66,67
 776 1106 776 1106 844 1094 c 1,68,69
 888 1121 888 1121 921 1151 c 128,-1,70
 954 1181 954 1181 969 1202 c 128,-1,71
 984 1223 984 1223 993 1243.5 c 128,-1,72
 1002 1264 1002 1264 1003 1271.5 c 128,-1,73
 1004 1279 1004 1279 1004 1284 c 1,74,-1
 1339 1284 l 1,22,23
639 1597 m 1,75,-1
 776 1597 l 1,76,-1
 692 1409 l 1,77,-1
 795 1409 l 1,78,-1
 795 1171 l 1,79,-1
 528 1171 l 1,80,-1
 528 1395 l 1,81,-1
 639 1597 l 1,75,-1
EndSplineSet
Validated: 1
EndChar

StartChar: gdotaccent
Encoding: 289 289 168
Width: 1366
Flags: MW
LayerCount: 2
Back
Fore
SplineSet
504 0 m 2,0,1
 458 0 458 0 427.5 -26 c 128,-1,2
 397 -52 397 -52 397 -98 c 128,-1,3
 397 -144 397 -144 428 -173.5 c 128,-1,4
 459 -203 459 -203 504 -203 c 2,5,-1
 823 -203 l 2,6,7
 869 -203 869 -203 900.5 -174.5 c 128,-1,8
 932 -146 932 -146 932 -100 c 128,-1,9
 932 -54 932 -54 900.5 -27 c 128,-1,10
 869 0 869 0 823 0 c 2,11,-1
 504 0 l 2,0,1
662 893 m 0,12,13
 594 893 594 893 551 858.5 c 128,-1,14
 508 824 508 824 508 758 c 0,15,16
 508 690 508 690 548 656.5 c 128,-1,17
 588 623 588 623 662 623 c 128,-1,18
 736 623 736 623 777.5 657 c 128,-1,19
 819 691 819 691 819 758 c 128,-1,20
 819 825 819 825 777.5 859 c 128,-1,21
 736 893 736 893 662 893 c 0,12,13
1339 1284 m 1,22,23
 1339 1158 1339 1158 1276.5 1091 c 128,-1,24
 1214 1024 1214 1024 1090 991 c 1,25,26
 1150 946 1150 946 1183.5 885.5 c 128,-1,27
 1217 825 1217 825 1217 758 c 0,28,29
 1217 670 1217 670 1180.5 602 c 128,-1,30
 1144 534 1144 534 1080 493 c 128,-1,31
 1016 452 1016 452 935.5 431 c 128,-1,32
 855 410 855 410 762 410 c 2,33,-1
 606 410 l 2,34,35
 477 410 477 410 477 350 c 0,36,37
 477 287 477 287 606 287 c 2,38,-1
 975 287 l 2,39,40
 1156 287 1156 287 1247.5 193 c 128,-1,41
 1339 99 1339 99 1339 -59 c 0,42,43
 1339 -176 1339 -176 1275.5 -261.5 c 128,-1,44
 1212 -347 1212 -347 1110.5 -388.5 c 128,-1,45
 1009 -430 1009 -430 885 -430 c 2,46,-1
 283 -430 l 2,47,48
 170 -430 170 -430 90 -354 c 128,-1,49
 10 -278 10 -278 10 -166 c 0,50,51
 10 -86 10 -86 59.5 -21.5 c 128,-1,52
 109 43 109 43 182 76 c 1,53,54
 76 148 76 148 76 266 c 0,55,56
 76 346 76 346 135.5 411 c 128,-1,57
 195 476 195 476 283 498 c 1,58,59
 204 548 204 548 156.5 615 c 128,-1,60
 109 682 109 682 109 756 c 0,61,62
 109 853 109 853 152.5 923 c 128,-1,63
 196 993 196 993 275 1032 c 128,-1,64
 354 1071 354 1071 450 1088.5 c 128,-1,65
 546 1106 546 1106 666 1106 c 0,66,67
 776 1106 776 1106 844 1094 c 1,68,69
 888 1121 888 1121 921 1151 c 128,-1,70
 954 1181 954 1181 969 1202 c 128,-1,71
 984 1223 984 1223 993 1243.5 c 128,-1,72
 1002 1264 1002 1264 1003 1271.5 c 128,-1,73
 1004 1279 1004 1279 1004 1284 c 1,74,-1
 1339 1284 l 1,22,23
465 1200 m 1,75,-1
 465 1485 l 1,76,-1
 776 1485 l 1,77,-1
 776 1200 l 1,78,-1
 465 1200 l 1,75,-1
EndSplineSet
Validated: 1
EndChar

StartChar: h
Encoding: 104 104 169
Width: 1366
Flags: MW
LayerCount: 2
Back
Fore
SplineSet
530 969 m 1,0,1
 595 1034 595 1034 683.5 1070 c 128,-1,2
 772 1106 772 1106 868 1106 c 0,3,4
 1057 1106 1057 1106 1151 1001 c 128,-1,5
 1245 896 1245 896 1245 700 c 2,6,-1
 1245 0 l 1,7,-1
 838 0 l 1,8,-1
 838 651 l 2,9,10
 838 720 838 720 802 762.5 c 128,-1,11
 766 805 766 805 700 805 c 0,12,13
 625 805 625 805 577.5 755.5 c 128,-1,14
 530 706 530 706 530 635 c 2,15,-1
 530 0 l 1,16,-1
 123 0 l 1,17,-1
 123 1485 l 1,18,-1
 530 1485 l 1,19,-1
 530 969 l 1,0,1
EndSplineSet
Validated: 1
EndChar

StartChar: hbar
Encoding: 295 295 170
Width: 1366
Flags: MW
LayerCount: 2
Back
Fore
SplineSet
674 1368 m 1,0,-1
 674 1178 l 1,1,-1
 530 1178 l 1,2,-1
 530 969 l 1,3,4
 595 1034 595 1034 683.5 1070 c 128,-1,5
 772 1106 772 1106 868 1106 c 0,6,7
 1057 1106 1057 1106 1151 1001 c 128,-1,8
 1245 896 1245 896 1245 700 c 2,9,-1
 1245 0 l 1,10,-1
 838 0 l 1,11,-1
 838 651 l 2,12,13
 838 720 838 720 802 762.5 c 128,-1,14
 766 805 766 805 700 805 c 0,15,16
 625 805 625 805 577.5 755.5 c 128,-1,17
 530 706 530 706 530 635 c 2,18,-1
 530 0 l 1,19,-1
 123 0 l 1,20,-1
 123 1178 l 1,21,-1
 -4 1178 l 1,22,-1
 -4 1368 l 1,23,-1
 123 1368 l 1,24,-1
 123 1485 l 1,25,-1
 530 1485 l 1,26,-1
 530 1368 l 1,27,-1
 674 1368 l 1,0,-1
EndSplineSet
Validated: 1
EndChar

StartChar: hcircumflex
Encoding: 293 293 171
Width: 1366
Flags: MW
LayerCount: 2
Back
Fore
SplineSet
530 969 m 1,0,1
 595 1034 595 1034 683.5 1070 c 128,-1,2
 772 1106 772 1106 868 1106 c 0,3,4
 1057 1106 1057 1106 1151 1001 c 128,-1,5
 1245 896 1245 896 1245 700 c 2,6,-1
 1245 0 l 1,7,-1
 838 0 l 1,8,-1
 838 651 l 2,9,10
 838 720 838 720 802 762.5 c 128,-1,11
 766 805 766 805 700 805 c 0,12,13
 625 805 625 805 577.5 755.5 c 128,-1,14
 530 706 530 706 530 635 c 2,15,-1
 530 0 l 1,16,-1
 123 0 l 1,17,-1
 123 1485 l 1,18,-1
 530 1485 l 1,19,-1
 530 969 l 1,0,1
477 1516 m 1,20,-1
 326 1673 l 1,21,-1
 172 1516 l 1,22,-1
 -88 1516 l 1,23,-1
 197 1812 l 1,24,-1
 459 1812 l 1,25,-1
 743 1516 l 1,26,-1
 477 1516 l 1,20,-1
EndSplineSet
Validated: 1
EndChar

StartChar: i
Encoding: 105 105 172
Width: 681
Flags: MW
LayerCount: 2
Back
Fore
SplineSet
137 0 m 1,0,-1
 137 1081 l 1,1,-1
 545 1081 l 1,2,-1
 545 0 l 1,3,-1
 137 0 l 1,0,-1
137 1208 m 1,4,-1
 137 1485 l 1,5,-1
 545 1485 l 1,6,-1
 545 1208 l 1,7,-1
 137 1208 l 1,4,-1
EndSplineSet
Validated: 1
EndChar

StartChar: dotlessi
Encoding: 305 305 173
Width: 681
Flags: MW
LayerCount: 2
Back
Fore
SplineSet
137 0 m 1,0,-1
 137 1081 l 1,1,-1
 545 1081 l 1,2,-1
 545 0 l 1,3,-1
 137 0 l 1,0,-1
EndSplineSet
Validated: 1
EndChar

StartChar: iacute
Encoding: 237 237 174
Width: 681
Flags: MW
LayerCount: 2
Back
Fore
SplineSet
137 1081 m 1,0,-1
 545 1081 l 1,1,-1
 545 0 l 1,2,-1
 137 0 l 1,3,-1
 137 1081 l 1,0,-1
143 1212 m 1,4,-1
 334 1485 l 1,5,-1
 727 1485 l 1,6,-1
 731 1477 l 1,7,-1
 406 1212 l 1,8,-1
 143 1212 l 1,4,-1
EndSplineSet
Validated: 1
EndChar

StartChar: ibreve
Encoding: 301 301 175
Width: 681
Flags: MW
LayerCount: 2
Back
Fore
SplineSet
137 0 m 1,0,-1
 137 1081 l 1,1,-1
 545 1081 l 1,2,-1
 545 0 l 1,3,-1
 137 0 l 1,0,-1
719 1485 m 1,4,5
 719 1374 719 1374 612 1282 c 128,-1,6
 505 1190 505 1190 340 1190 c 0,7,8
 173 1190 173 1190 68 1282 c 128,-1,9
 -37 1374 -37 1374 -37 1485 c 1,10,-1
 160 1485 l 1,11,12
 167 1448 167 1448 215 1417 c 1,13,14
 273 1382 273 1382 340 1382 c 0,15,16
 411 1382 411 1382 464 1415.5 c 128,-1,17
 517 1449 517 1449 524 1485 c 1,18,-1
 719 1485 l 1,4,5
EndSplineSet
Validated: 1
EndChar

StartChar: icircumflex
Encoding: 238 238 176
Width: 681
Flags: MW
LayerCount: 2
Back
Fore
SplineSet
137 0 m 1,0,-1
 137 1081 l 1,1,-1
 545 1081 l 1,2,-1
 545 0 l 1,3,-1
 137 0 l 1,0,-1
492 1188 m 1,4,-1
 340 1346 l 1,5,-1
 186 1188 l 1,6,-1
 -76 1188 l 1,7,-1
 211 1485 l 1,8,-1
 471 1485 l 1,9,-1
 758 1188 l 1,10,-1
 492 1188 l 1,4,-1
EndSplineSet
Validated: 1
EndChar

StartChar: idieresis
Encoding: 239 239 177
Width: 681
Flags: MW
LayerCount: 2
Back
Fore
SplineSet
137 0 m 1,0,-1
 137 1081 l 1,1,-1
 545 1081 l 1,2,-1
 545 0 l 1,3,-1
 137 0 l 1,0,-1
412 1200 m 1,4,-1
 412 1485 l 1,5,-1
 723 1485 l 1,6,-1
 723 1200 l 1,7,-1
 412 1200 l 1,4,-1
-41 1200 m 1,8,-1
 -41 1485 l 1,9,-1
 270 1485 l 1,10,-1
 270 1200 l 1,11,-1
 -41 1200 l 1,8,-1
EndSplineSet
Validated: 1
EndChar

StartChar: igrave
Encoding: 236 236 178
Width: 681
Flags: MW
LayerCount: 2
Back
Fore
SplineSet
137 1081 m 1,0,-1
 545 1081 l 1,1,-1
 545 0 l 1,2,-1
 137 0 l 1,3,-1
 137 1081 l 1,0,-1
-49 1477 m 1,4,-1
 -45 1485 l 1,5,-1
 348 1485 l 1,6,-1
 539 1212 l 1,7,-1
 279 1212 l 1,8,-1
 -49 1477 l 1,4,-1
EndSplineSet
Validated: 1
EndChar

StartChar: ij
Encoding: 307 307 179
Width: 1368
Flags: MW
LayerCount: 2
Back
Fore
SplineSet
1231 -59 m 2,0,1
 1231 -255 1231 -255 1142 -342.5 c 128,-1,2
 1053 -430 1053 -430 856 -430 c 0,3,4
 801 -430 801 -430 723.5 -419.5 c 128,-1,5
 646 -409 646 -409 602 -393 c 1,6,-1
 602 -150 l 1,7,-1
 709 -150 l 2,8,9
 823 -150 823 -150 823 -18 c 2,10,-1
 823 1081 l 1,11,-1
 1231 1081 l 1,12,-1
 1231 -59 l 2,0,1
137 0 m 1,13,-1
 137 1081 l 1,14,-1
 545 1081 l 1,15,-1
 545 0 l 1,16,-1
 137 0 l 1,13,-1
823 1208 m 1,17,-1
 823 1485 l 1,18,-1
 1231 1485 l 1,19,-1
 1231 1208 l 1,20,-1
 823 1208 l 1,17,-1
137 1208 m 1,21,-1
 137 1485 l 1,22,-1
 545 1485 l 1,23,-1
 545 1208 l 1,24,-1
 137 1208 l 1,21,-1
EndSplineSet
Validated: 1
EndChar

StartChar: imacron
Encoding: 299 299 180
Width: 681
Flags: MW
LayerCount: 2
Back
Fore
SplineSet
137 0 m 1,0,-1
 137 1081 l 1,1,-1
 545 1081 l 1,2,-1
 545 0 l 1,3,-1
 137 0 l 1,0,-1
16 1239 m 1,4,-1
 16 1444 l 1,5,-1
 666 1444 l 1,6,-1
 666 1239 l 1,7,-1
 16 1239 l 1,4,-1
EndSplineSet
Validated: 1
EndChar

StartChar: iogonek
Encoding: 303 303 181
Width: 681
Flags: MW
LayerCount: 2
Back
Fore
SplineSet
498 0 m 1,0,1
 465 -68 465 -68 465 -141 c 0,2,3
 465 -186 465 -186 494.5 -216 c 128,-1,4
 524 -246 524 -246 588 -246 c 2,5,-1
 674 -246 l 1,6,-1
 674 -401 l 1,7,8
 576 -432 576 -432 477 -432 c 0,9,10
 367 -432 367 -432 292 -374.5 c 128,-1,11
 217 -317 217 -317 217 -199 c 0,12,13
 217 -102 217 -102 299 0 c 1,14,-1
 137 0 l 1,15,-1
 137 1081 l 1,16,-1
 545 1081 l 1,17,-1
 545 0 l 1,18,-1
 498 0 l 1,0,1
184 1200 m 1,19,-1
 184 1485 l 1,20,-1
 498 1485 l 1,21,-1
 498 1200 l 1,22,-1
 184 1200 l 1,19,-1
EndSplineSet
Validated: 1
EndChar

StartChar: itilde
Encoding: 297 297 182
Width: 681
Flags: MW
LayerCount: 2
Back
Fore
SplineSet
137 0 m 1,0,-1
 137 1081 l 1,1,-1
 545 1081 l 1,2,-1
 545 0 l 1,3,-1
 137 0 l 1,0,-1
797 1485 m 1,4,5
 797 1370 797 1370 715.5 1281 c 128,-1,6
 634 1192 634 1192 510 1192 c 0,7,8
 442 1192 442 1192 325 1233 c 128,-1,9
 208 1274 208 1274 156 1274 c 0,10,11
 118 1274 118 1274 91 1251.5 c 128,-1,12
 64 1229 64 1229 51 1192 c 1,13,-1
 -115 1192 l 1,14,15
 -115 1307 -115 1307 -33.5 1396 c 128,-1,16
 48 1485 48 1485 172 1485 c 0,17,18
 240 1485 240 1485 357 1444 c 128,-1,19
 474 1403 474 1403 526 1403 c 0,20,21
 564 1403 564 1403 591 1425.5 c 128,-1,22
 618 1448 618 1448 631 1485 c 1,23,-1
 797 1485 l 1,4,5
EndSplineSet
Validated: 1
EndChar

StartChar: j
Encoding: 106 106 183
Width: 681
Flags: MW
LayerCount: 2
Back
Fore
SplineSet
545 -59 m 2,0,1
 545 -255 545 -255 456 -342.5 c 128,-1,2
 367 -430 367 -430 170 -430 c 0,3,4
 115 -430 115 -430 37.5 -419.5 c 128,-1,5
 -40 -409 -40 -409 -84 -393 c 1,6,-1
 -84 -150 l 1,7,-1
 23 -150 l 2,8,9
 137 -150 137 -150 137 -18 c 2,10,-1
 137 1081 l 1,11,-1
 545 1081 l 1,12,-1
 545 -59 l 2,0,1
137 1208 m 1,13,-1
 137 1485 l 1,14,-1
 545 1485 l 1,15,-1
 545 1208 l 1,16,-1
 137 1208 l 1,13,-1
EndSplineSet
Validated: 1
EndChar

StartChar: jcircumflex
Encoding: 309 309 184
Width: 681
Flags: MW
LayerCount: 2
Back
Fore
SplineSet
545 -59 m 2,0,1
 545 -255 545 -255 456 -342.5 c 128,-1,2
 367 -430 367 -430 170 -430 c 0,3,4
 115 -430 115 -430 37.5 -419.5 c 128,-1,5
 -40 -409 -40 -409 -84 -393 c 1,6,-1
 -84 -150 l 1,7,-1
 23 -150 l 2,8,9
 137 -150 137 -150 137 -18 c 2,10,-1
 137 1081 l 1,11,-1
 545 1081 l 1,12,-1
 545 -59 l 2,0,1
494 1188 m 1,13,-1
 342 1346 l 1,14,-1
 190 1188 l 1,15,-1
 -72 1188 l 1,16,-1
 213 1485 l 1,17,-1
 475 1485 l 1,18,-1
 760 1188 l 1,19,-1
 494 1188 l 1,13,-1
EndSplineSet
Validated: 1
EndChar

StartChar: k
Encoding: 107 107 185
Width: 1366
Flags: MW
LayerCount: 2
Back
Fore
SplineSet
877 1081 m 1,0,-1
 1352 1081 l 1,1,-1
 952 645 l 1,2,-1
 1362 0 l 1,3,-1
 899 0 l 1,4,-1
 672 371 l 1,5,-1
 530 233 l 1,6,-1
 530 0 l 1,7,-1
 123 0 l 1,8,-1
 123 1487 l 1,9,-1
 530 1487 l 1,10,-1
 530 668 l 1,11,-1
 877 1081 l 1,0,-1
EndSplineSet
Validated: 1
EndChar

StartChar: kcommaaccent
Encoding: 311 311 186
Width: 1366
Flags: MW
LayerCount: 2
Back
Fore
SplineSet
705 -547 m 1,0,-1
 567 -547 l 1,1,-1
 651 -358 l 1,2,-1
 551 -358 l 1,3,-1
 551 -121 l 1,4,-1
 815 -121 l 1,5,-1
 815 -344 l 1,6,-1
 705 -547 l 1,0,-1
877 1081 m 1,7,-1
 1352 1081 l 1,8,-1
 952 645 l 1,9,-1
 1362 0 l 1,10,-1
 899 0 l 1,11,-1
 672 371 l 1,12,-1
 530 233 l 1,13,-1
 530 0 l 1,14,-1
 123 0 l 1,15,-1
 123 1487 l 1,16,-1
 530 1487 l 1,17,-1
 530 668 l 1,18,-1
 877 1081 l 1,7,-1
EndSplineSet
Validated: 1
EndChar

StartChar: kgreenlandic
Encoding: 312 312 187
Width: 1366
Flags: MW
LayerCount: 2
Back
Fore
SplineSet
1362 0 m 1,0,-1
 899 0 l 1,1,-1
 672 371 l 1,2,-1
 530 233 l 1,3,-1
 530 0 l 1,4,-1
 123 0 l 1,5,-1
 123 1081 l 1,6,-1
 530 1081 l 1,7,-1
 530 668 l 1,8,-1
 877 1081 l 1,9,-1
 1352 1081 l 1,10,-1
 952 645 l 1,11,-1
 1362 0 l 1,0,-1
EndSplineSet
Validated: 1
EndChar

StartChar: l
Encoding: 108 108 188
Width: 681
Flags: MW
LayerCount: 2
Back
Fore
SplineSet
137 0 m 1,0,-1
 137 1485 l 1,1,-1
 545 1485 l 1,2,-1
 545 0 l 1,3,-1
 137 0 l 1,0,-1
EndSplineSet
Validated: 1
EndChar

StartChar: lacute
Encoding: 314 314 189
Width: 681
Flags: MW
LayerCount: 2
Back
Fore
SplineSet
137 1485 m 1,0,-1
 545 1485 l 1,1,-1
 545 0 l 1,2,-1
 137 0 l 1,3,-1
 137 1485 l 1,0,-1
143 1540 m 1,4,-1
 334 1812 l 1,5,-1
 727 1812 l 1,6,-1
 731 1804 l 1,7,-1
 406 1540 l 1,8,-1
 143 1540 l 1,4,-1
EndSplineSet
Validated: 1
EndChar

StartChar: lcaron
Encoding: 318 318 190
Width: 1024
Flags: MW
LayerCount: 2
Back
Fore
SplineSet
815 678 m 1,0,-1
 621 678 l 1,1,-1
 766 1051 l 1,2,-1
 621 1051 l 1,3,-1
 621 1409 l 1,4,-1
 1001 1409 l 1,5,-1
 1001 1071 l 1,6,-1
 815 678 l 1,0,-1
137 0 m 1,7,-1
 137 1485 l 1,8,-1
 545 1485 l 1,9,-1
 545 0 l 1,10,-1
 137 0 l 1,7,-1
EndSplineSet
Validated: 1
EndChar

StartChar: lcommaaccent
Encoding: 316 316 191
Width: 681
Flags: MW
LayerCount: 2
Back
Fore
SplineSet
362 -547 m 1,0,-1
 225 -547 l 1,1,-1
 309 -358 l 1,2,-1
 209 -358 l 1,3,-1
 209 -121 l 1,4,-1
 473 -121 l 1,5,-1
 473 -344 l 1,6,-1
 362 -547 l 1,0,-1
137 0 m 1,7,-1
 137 1485 l 1,8,-1
 545 1485 l 1,9,-1
 545 0 l 1,10,-1
 137 0 l 1,7,-1
EndSplineSet
Validated: 1
EndChar

StartChar: ldot
Encoding: 320 320 192
Width: 1093
Flags: MW
LayerCount: 2
Back
Fore
SplineSet
735 797 m 1,0,-1
 735 1081 l 1,1,-1
 1049 1081 l 1,2,-1
 1049 797 l 1,3,-1
 735 797 l 1,0,-1
137 0 m 1,4,-1
 137 1485 l 1,5,-1
 545 1485 l 1,6,-1
 545 0 l 1,7,-1
 137 0 l 1,4,-1
EndSplineSet
Validated: 1
EndChar

StartChar: lslash
Encoding: 322 322 193
Width: 681
Flags: MW
LayerCount: 2
Back
Fore
SplineSet
741 1042 m 1,0,-1
 741 838 l 1,1,-1
 545 719 l 1,2,-1
 545 0 l 1,3,-1
 137 0 l 1,4,-1
 137 479 l 1,5,-1
 -31 379 l 1,6,-1
 -31 580 l 1,7,-1
 137 682 l 1,8,-1
 137 1485 l 1,9,-1
 545 1485 l 1,10,-1
 545 922 l 1,11,-1
 741 1042 l 1,0,-1
EndSplineSet
Validated: 1
EndChar

StartChar: m
Encoding: 109 109 194
Width: 2048
Flags: MW
LayerCount: 2
Back
Fore
SplineSet
483 920 m 1,0,1
 544 1006 544 1006 645.5 1056 c 128,-1,2
 747 1106 747 1106 860 1106 c 0,3,4
 1105 1106 1105 1106 1188 920 c 1,5,6
 1251 1005 1251 1005 1351 1055.5 c 128,-1,7
 1451 1106 1451 1106 1559 1106 c 0,8,9
 1743 1106 1743 1106 1835 1001 c 128,-1,10
 1927 896 1927 896 1927 700 c 2,11,-1
 1927 0 l 1,12,-1
 1520 0 l 1,13,-1
 1520 651 l 2,14,15
 1520 720 1520 720 1486 762.5 c 128,-1,16
 1452 805 1452 805 1391 805 c 0,17,18
 1319 805 1319 805 1274 755.5 c 128,-1,19
 1229 706 1229 706 1229 635 c 2,20,-1
 1229 0 l 1,21,-1
 821 0 l 1,22,-1
 821 651 l 2,23,24
 821 720 821 720 787 762.5 c 128,-1,25
 753 805 753 805 692 805 c 0,26,27
 620 805 620 805 575 755.5 c 128,-1,28
 530 706 530 706 530 635 c 2,29,-1
 530 0 l 1,30,-1
 123 0 l 1,31,-1
 123 1081 l 1,32,-1
 457 1081 l 1,33,-1
 483 920 l 1,0,1
EndSplineSet
Validated: 1
EndChar

StartChar: n
Encoding: 110 110 195
Width: 1366
Flags: MW
LayerCount: 2
Back
Fore
SplineSet
483 918 m 1,0,1
 546 1005 546 1005 649.5 1055.5 c 128,-1,2
 753 1106 753 1106 868 1106 c 0,3,4
 1057 1106 1057 1106 1151 1001 c 128,-1,5
 1245 896 1245 896 1245 700 c 2,6,-1
 1245 0 l 1,7,-1
 838 0 l 1,8,-1
 838 651 l 2,9,10
 838 720 838 720 802 762.5 c 128,-1,11
 766 805 766 805 700 805 c 0,12,13
 625 805 625 805 577.5 755.5 c 128,-1,14
 530 706 530 706 530 635 c 2,15,-1
 530 0 l 1,16,-1
 123 0 l 1,17,-1
 123 1081 l 1,18,-1
 457 1081 l 1,19,-1
 483 918 l 1,0,1
EndSplineSet
Validated: 1
EndChar

StartChar: nacute
Encoding: 324 324 196
Width: 1366
Flags: MW
LayerCount: 2
Back
Fore
SplineSet
483 918 m 1,0,1
 546 1005 546 1005 649.5 1055.5 c 128,-1,2
 753 1106 753 1106 868 1106 c 0,3,4
 1057 1106 1057 1106 1151 1001 c 128,-1,5
 1245 896 1245 896 1245 700 c 2,6,-1
 1245 0 l 1,7,-1
 838 0 l 1,8,-1
 838 651 l 2,9,10
 838 720 838 720 802 762.5 c 128,-1,11
 766 805 766 805 700 805 c 0,12,13
 625 805 625 805 577.5 755.5 c 128,-1,14
 530 706 530 706 530 635 c 2,15,-1
 530 0 l 1,16,-1
 123 0 l 1,17,-1
 123 1081 l 1,18,-1
 457 1081 l 1,19,-1
 483 918 l 1,0,1
485 1212 m 1,20,-1
 676 1485 l 1,21,-1
 1069 1485 l 1,22,-1
 1073 1477 l 1,23,-1
 748 1212 l 1,24,-1
 485 1212 l 1,20,-1
EndSplineSet
Validated: 1
EndChar

StartChar: napostrophe
Encoding: 329 329 197
Width: 1757
Flags: MW
LayerCount: 2
Back
Fore
SplineSet
874 918 m 1,0,1
 937 1005 937 1005 1041 1055.5 c 128,-1,2
 1145 1106 1145 1106 1260 1106 c 0,3,4
 1449 1106 1449 1106 1542.5 1001 c 128,-1,5
 1636 896 1636 896 1636 700 c 2,6,-1
 1636 0 l 1,7,-1
 1229 0 l 1,8,-1
 1229 651 l 2,9,10
 1229 721 1229 721 1193.5 763 c 128,-1,11
 1158 805 1158 805 1092 805 c 0,12,13
 1017 805 1017 805 969.5 755.5 c 128,-1,14
 922 706 922 706 922 635 c 2,15,-1
 922 0 l 1,16,-1
 514 0 l 1,17,-1
 514 1081 l 1,18,-1
 848 1081 l 1,19,-1
 874 918 l 1,0,1
319 983 m 1,20,-1
 182 983 l 1,21,-1
 266 1171 l 1,22,-1
 166 1171 l 1,23,-1
 166 1409 l 1,24,-1
 430 1409 l 1,25,-1
 430 1186 l 1,26,-1
 319 983 l 1,20,-1
EndSplineSet
Validated: 1
EndChar

StartChar: ncaron
Encoding: 328 328 198
Width: 1366
Flags: MW
LayerCount: 2
Back
Fore
SplineSet
483 918 m 1,0,1
 546 1005 546 1005 649.5 1055.5 c 128,-1,2
 753 1106 753 1106 868 1106 c 0,3,4
 1057 1106 1057 1106 1151 1001 c 128,-1,5
 1245 896 1245 896 1245 700 c 2,6,-1
 1245 0 l 1,7,-1
 838 0 l 1,8,-1
 838 651 l 2,9,10
 838 720 838 720 802 762.5 c 128,-1,11
 766 805 766 805 700 805 c 0,12,13
 625 805 625 805 577.5 755.5 c 128,-1,14
 530 706 530 706 530 635 c 2,15,-1
 530 0 l 1,16,-1
 123 0 l 1,17,-1
 123 1081 l 1,18,-1
 457 1081 l 1,19,-1
 483 918 l 1,0,1
553 1188 m 1,20,-1
 266 1485 l 1,21,-1
 528 1485 l 1,22,-1
 682 1327 l 1,23,-1
 834 1485 l 1,24,-1
 1100 1485 l 1,25,-1
 813 1188 l 1,26,-1
 553 1188 l 1,20,-1
EndSplineSet
Validated: 1
EndChar

StartChar: ncommaaccent
Encoding: 326 326 199
Width: 1366
Flags: MW
LayerCount: 2
Back
Fore
SplineSet
705 -547 m 1,0,-1
 567 -547 l 1,1,-1
 651 -358 l 1,2,-1
 551 -358 l 1,3,-1
 551 -121 l 1,4,-1
 815 -121 l 1,5,-1
 815 -344 l 1,6,-1
 705 -547 l 1,0,-1
483 918 m 1,7,8
 546 1005 546 1005 649.5 1055.5 c 128,-1,9
 753 1106 753 1106 868 1106 c 0,10,11
 1057 1106 1057 1106 1151 1001 c 128,-1,12
 1245 896 1245 896 1245 700 c 2,13,-1
 1245 0 l 1,14,-1
 838 0 l 1,15,-1
 838 651 l 2,16,17
 838 720 838 720 802 762.5 c 128,-1,18
 766 805 766 805 700 805 c 0,19,20
 625 805 625 805 577.5 755.5 c 128,-1,21
 530 706 530 706 530 635 c 2,22,-1
 530 0 l 1,23,-1
 123 0 l 1,24,-1
 123 1081 l 1,25,-1
 457 1081 l 1,26,-1
 483 918 l 1,7,8
EndSplineSet
Validated: 1
EndChar

StartChar: eng
Encoding: 331 331 200
Width: 1394
Flags: MW
LayerCount: 2
Back
Fore
SplineSet
498 918 m 1,0,1
 561 1005 561 1005 664.5 1055.5 c 128,-1,2
 768 1106 768 1106 883 1106 c 0,3,4
 1072 1106 1072 1106 1166 1001 c 128,-1,5
 1260 896 1260 896 1260 700 c 2,6,-1
 1260 -59 l 2,7,8
 1260 -255 1260 -255 1171 -342.5 c 128,-1,9
 1082 -430 1082 -430 885 -430 c 0,10,11
 830 -430 830 -430 752.5 -419.5 c 128,-1,12
 675 -409 675 -409 631 -393 c 1,13,-1
 631 -150 l 1,14,-1
 737 -150 l 2,15,16
 852 -150 852 -150 852 -18 c 2,17,-1
 852 651 l 2,18,19
 852 721 852 721 816.5 763 c 128,-1,20
 781 805 781 805 715 805 c 0,21,22
 640 805 640 805 592.5 755.5 c 128,-1,23
 545 706 545 706 545 635 c 2,24,-1
 545 0 l 1,25,-1
 137 0 l 1,26,-1
 137 1081 l 1,27,-1
 471 1081 l 1,28,-1
 498 918 l 1,0,1
EndSplineSet
Validated: 1
EndChar

StartChar: ntilde
Encoding: 241 241 201
Width: 1366
Flags: MW
LayerCount: 2
Back
Fore
SplineSet
483 918 m 1,0,1
 546 1005 546 1005 649.5 1055.5 c 128,-1,2
 753 1106 753 1106 868 1106 c 0,3,4
 1057 1106 1057 1106 1151 1001 c 128,-1,5
 1245 896 1245 896 1245 700 c 2,6,-1
 1245 0 l 1,7,-1
 838 0 l 1,8,-1
 838 651 l 2,9,10
 838 720 838 720 802 762.5 c 128,-1,11
 766 805 766 805 700 805 c 0,12,13
 625 805 625 805 577.5 755.5 c 128,-1,14
 530 706 530 706 530 635 c 2,15,-1
 530 0 l 1,16,-1
 123 0 l 1,17,-1
 123 1081 l 1,18,-1
 457 1081 l 1,19,-1
 483 918 l 1,0,1
1139 1485 m 1,20,21
 1139 1370 1139 1370 1057.5 1281 c 128,-1,22
 976 1192 976 1192 852 1192 c 0,23,24
 784 1192 784 1192 667 1233 c 128,-1,25
 550 1274 550 1274 498 1274 c 0,26,27
 460 1274 460 1274 433 1251.5 c 128,-1,28
 406 1229 406 1229 393 1192 c 1,29,-1
 227 1192 l 1,30,31
 227 1307 227 1307 308.5 1396 c 128,-1,32
 390 1485 390 1485 514 1485 c 0,33,34
 582 1485 582 1485 699 1444 c 128,-1,35
 816 1403 816 1403 868 1403 c 0,36,37
 906 1403 906 1403 933 1425.5 c 128,-1,38
 960 1448 960 1448 973 1485 c 1,39,-1
 1139 1485 l 1,20,21
EndSplineSet
Validated: 1
EndChar

StartChar: o
Encoding: 111 111 202
Width: 1366
Flags: MW
LayerCount: 2
Back
Fore
SplineSet
885 598 m 2,0,1
 885 829 885 829 682 829 c 0,2,3
 481 829 481 829 481 598 c 2,4,-1
 481 481 l 2,5,6
 481 252 481 252 682 252 c 0,7,8
 885 252 885 252 885 481 c 2,9,-1
 885 598 l 2,0,1
682 1106 m 128,-1,11
 966 1106 966 1106 1129 962.5 c 128,-1,12
 1292 819 1292 819 1292 541 c 128,-1,13
 1292 263 1292 263 1129 119 c 128,-1,14
 966 -25 966 -25 682 -25 c 128,-1,15
 398 -25 398 -25 236 119 c 128,-1,16
 74 263 74 263 74 541 c 128,-1,17
 74 819 74 819 236 962.5 c 128,-1,10
 398 1106 398 1106 682 1106 c 128,-1,11
EndSplineSet
Validated: 1
EndChar

StartChar: oacute
Encoding: 243 243 203
Width: 1366
Flags: MW
LayerCount: 2
Back
Fore
SplineSet
885 598 m 2,0,1
 885 829 885 829 682 829 c 0,2,3
 481 829 481 829 481 598 c 2,4,-1
 481 481 l 2,5,6
 481 252 481 252 682 252 c 0,7,8
 885 252 885 252 885 481 c 2,9,-1
 885 598 l 2,0,1
682 1106 m 128,-1,11
 966 1106 966 1106 1129 962.5 c 128,-1,12
 1292 819 1292 819 1292 541 c 128,-1,13
 1292 263 1292 263 1129 119 c 128,-1,14
 966 -25 966 -25 682 -25 c 128,-1,15
 398 -25 398 -25 236 119 c 128,-1,16
 74 263 74 263 74 541 c 128,-1,17
 74 819 74 819 236 962.5 c 128,-1,10
 398 1106 398 1106 682 1106 c 128,-1,11
485 1212 m 1,18,-1
 676 1485 l 1,19,-1
 1069 1485 l 1,20,-1
 1073 1477 l 1,21,-1
 748 1212 l 1,22,-1
 485 1212 l 1,18,-1
EndSplineSet
Validated: 1
EndChar

StartChar: obreve
Encoding: 335 335 204
Width: 1366
Flags: MW
LayerCount: 2
Back
Fore
SplineSet
885 598 m 2,0,1
 885 829 885 829 682 829 c 0,2,3
 481 829 481 829 481 598 c 2,4,-1
 481 481 l 2,5,6
 481 252 481 252 682 252 c 0,7,8
 885 252 885 252 885 481 c 2,9,-1
 885 598 l 2,0,1
682 1106 m 128,-1,11
 966 1106 966 1106 1129 962.5 c 128,-1,12
 1292 819 1292 819 1292 541 c 128,-1,13
 1292 263 1292 263 1129 119 c 128,-1,14
 966 -25 966 -25 682 -25 c 128,-1,15
 398 -25 398 -25 236 119 c 128,-1,16
 74 263 74 263 74 541 c 128,-1,17
 74 819 74 819 236 962.5 c 128,-1,10
 398 1106 398 1106 682 1106 c 128,-1,11
1061 1485 m 1,18,19
 1061 1374 1061 1374 954 1282 c 128,-1,20
 847 1190 847 1190 682 1190 c 0,21,22
 515 1190 515 1190 410 1282 c 128,-1,23
 305 1374 305 1374 305 1485 c 1,24,-1
 502 1485 l 1,25,26
 509 1448 509 1448 557 1417 c 1,27,28
 615 1382 615 1382 682 1382 c 0,29,30
 753 1382 753 1382 806 1415.5 c 128,-1,31
 859 1449 859 1449 866 1485 c 1,32,-1
 1061 1485 l 1,18,19
EndSplineSet
Validated: 1
EndChar

StartChar: ocircumflex
Encoding: 244 244 205
Width: 1366
Flags: MW
LayerCount: 2
Back
Fore
SplineSet
885 598 m 2,0,1
 885 829 885 829 682 829 c 0,2,3
 481 829 481 829 481 598 c 2,4,-1
 481 481 l 2,5,6
 481 252 481 252 682 252 c 0,7,8
 885 252 885 252 885 481 c 2,9,-1
 885 598 l 2,0,1
682 1106 m 128,-1,11
 966 1106 966 1106 1129 962.5 c 128,-1,12
 1292 819 1292 819 1292 541 c 128,-1,13
 1292 263 1292 263 1129 119 c 128,-1,14
 966 -25 966 -25 682 -25 c 128,-1,15
 398 -25 398 -25 236 119 c 128,-1,16
 74 263 74 263 74 541 c 128,-1,17
 74 819 74 819 236 962.5 c 128,-1,10
 398 1106 398 1106 682 1106 c 128,-1,11
834 1188 m 1,18,-1
 682 1346 l 1,19,-1
 528 1188 l 1,20,-1
 266 1188 l 1,21,-1
 553 1485 l 1,22,-1
 813 1485 l 1,23,-1
 1100 1188 l 1,24,-1
 834 1188 l 1,18,-1
EndSplineSet
Validated: 1
EndChar

StartChar: odieresis
Encoding: 246 246 206
Width: 1366
Flags: MW
LayerCount: 2
Back
Fore
SplineSet
885 598 m 2,0,1
 885 829 885 829 682 829 c 0,2,3
 481 829 481 829 481 598 c 2,4,-1
 481 481 l 2,5,6
 481 252 481 252 682 252 c 0,7,8
 885 252 885 252 885 481 c 2,9,-1
 885 598 l 2,0,1
682 1106 m 128,-1,11
 966 1106 966 1106 1129 962.5 c 128,-1,12
 1292 819 1292 819 1292 541 c 128,-1,13
 1292 263 1292 263 1129 119 c 128,-1,14
 966 -25 966 -25 682 -25 c 128,-1,15
 398 -25 398 -25 236 119 c 128,-1,16
 74 263 74 263 74 541 c 128,-1,17
 74 819 74 819 236 962.5 c 128,-1,10
 398 1106 398 1106 682 1106 c 128,-1,11
754 1200 m 1,18,-1
 754 1485 l 1,19,-1
 1065 1485 l 1,20,-1
 1065 1200 l 1,21,-1
 754 1200 l 1,18,-1
301 1200 m 1,22,-1
 301 1485 l 1,23,-1
 612 1485 l 1,24,-1
 612 1200 l 1,25,-1
 301 1200 l 1,22,-1
EndSplineSet
Validated: 1
EndChar

StartChar: ograve
Encoding: 242 242 207
Width: 1366
Flags: MW
LayerCount: 2
Back
Fore
SplineSet
885 598 m 2,0,1
 885 829 885 829 682 829 c 0,2,3
 481 829 481 829 481 598 c 2,4,-1
 481 481 l 2,5,6
 481 252 481 252 682 252 c 0,7,8
 885 252 885 252 885 481 c 2,9,-1
 885 598 l 2,0,1
682 1106 m 128,-1,11
 966 1106 966 1106 1129 962.5 c 128,-1,12
 1292 819 1292 819 1292 541 c 128,-1,13
 1292 263 1292 263 1129 119 c 128,-1,14
 966 -25 966 -25 682 -25 c 128,-1,15
 398 -25 398 -25 236 119 c 128,-1,16
 74 263 74 263 74 541 c 128,-1,17
 74 819 74 819 236 962.5 c 128,-1,10
 398 1106 398 1106 682 1106 c 128,-1,11
293 1477 m 1,18,-1
 297 1485 l 1,19,-1
 690 1485 l 1,20,-1
 881 1212 l 1,21,-1
 621 1212 l 1,22,-1
 293 1477 l 1,18,-1
EndSplineSet
Validated: 1
EndChar

StartChar: ohungarumlaut
Encoding: 337 337 208
Width: 1366
Flags: MW
LayerCount: 2
Back
Fore
SplineSet
885 598 m 2,0,1
 885 829 885 829 682 829 c 0,2,3
 481 829 481 829 481 598 c 2,4,-1
 481 481 l 2,5,6
 481 252 481 252 682 252 c 0,7,8
 885 252 885 252 885 481 c 2,9,-1
 885 598 l 2,0,1
682 1106 m 128,-1,11
 966 1106 966 1106 1129 962.5 c 128,-1,12
 1292 819 1292 819 1292 541 c 128,-1,13
 1292 263 1292 263 1129 119 c 128,-1,14
 966 -25 966 -25 682 -25 c 128,-1,15
 398 -25 398 -25 236 119 c 128,-1,16
 74 263 74 263 74 541 c 128,-1,17
 74 819 74 819 236 962.5 c 128,-1,10
 398 1106 398 1106 682 1106 c 128,-1,11
999 1210 m 1,18,-1
 760 1210 l 1,19,-1
 915 1485 l 1,20,-1
 1280 1485 l 1,21,-1
 1284 1477 l 1,22,-1
 999 1210 l 1,18,-1
567 1210 m 1,23,-1
 328 1210 l 1,24,-1
 483 1485 l 1,25,-1
 848 1485 l 1,26,-1
 852 1477 l 1,27,-1
 567 1210 l 1,23,-1
EndSplineSet
Validated: 1
EndChar

StartChar: omacron
Encoding: 333 333 209
Width: 1366
Flags: MW
LayerCount: 2
Back
Fore
SplineSet
885 598 m 2,0,1
 885 829 885 829 682 829 c 0,2,3
 481 829 481 829 481 598 c 2,4,-1
 481 481 l 2,5,6
 481 252 481 252 682 252 c 0,7,8
 885 252 885 252 885 481 c 2,9,-1
 885 598 l 2,0,1
682 1106 m 128,-1,11
 966 1106 966 1106 1129 962.5 c 128,-1,12
 1292 819 1292 819 1292 541 c 128,-1,13
 1292 263 1292 263 1129 119 c 128,-1,14
 966 -25 966 -25 682 -25 c 128,-1,15
 398 -25 398 -25 236 119 c 128,-1,16
 74 263 74 263 74 541 c 128,-1,17
 74 819 74 819 236 962.5 c 128,-1,10
 398 1106 398 1106 682 1106 c 128,-1,11
358 1239 m 1,18,-1
 358 1444 l 1,19,-1
 1008 1444 l 1,20,-1
 1008 1239 l 1,21,-1
 358 1239 l 1,18,-1
EndSplineSet
Validated: 1
EndChar

StartChar: oslash
Encoding: 248 248 210
Width: 1366
Flags: MW
LayerCount: 2
Back
Fore
SplineSet
575 274 m 1,0,1
 621 252 621 252 682 252 c 0,2,3
 885 252 885 252 885 481 c 2,4,-1
 885 598 l 2,5,6
 885 619 885 619 881 655 c 1,7,-1
 575 274 l 1,0,1
805 797 m 1,8,9
 755 829 755 829 682 829 c 0,10,11
 481 829 481 829 481 598 c 2,12,-1
 481 481 l 2,13,14
 481 436 481 436 487 399 c 1,15,-1
 805 797 l 1,8,9
1128 963 m 1,16,17
 1292 815 1292 815 1292 541 c 0,18,19
 1292 263 1292 263 1129 119 c 128,-1,20
 966 -25 966 -25 682 -25 c 0,21,22
 512 -25 512 -25 379 29 c 1,23,-1
 283 -92 l 1,24,-1
 94 -92 l 1,25,-1
 252 104 l 1,26,27
 74 252 74 252 74 541 c 0,28,29
 74 819 74 819 236 962.5 c 128,-1,30
 398 1106 398 1106 682 1106 c 0,31,32
 870 1106 870 1106 1004 1042 c 1,33,-1
 1085 1145 l 1,34,-1
 1274 1145 l 1,35,-1
 1128 963 l 1,16,17
EndSplineSet
Validated: 1
EndChar

StartChar: oslashacute
Encoding: 511 511 211
Width: 1366
Flags: MW
LayerCount: 2
Back
Fore
SplineSet
575 274 m 1,0,1
 621 252 621 252 682 252 c 0,2,3
 885 252 885 252 885 481 c 2,4,-1
 885 598 l 2,5,6
 885 619 885 619 881 655 c 1,7,-1
 575 274 l 1,0,1
805 797 m 1,8,9
 755 829 755 829 682 829 c 0,10,11
 481 829 481 829 481 598 c 2,12,-1
 481 481 l 2,13,14
 481 436 481 436 487 399 c 1,15,-1
 805 797 l 1,8,9
1128 963 m 1,16,17
 1292 815 1292 815 1292 541 c 0,18,19
 1292 263 1292 263 1129 119 c 128,-1,20
 966 -25 966 -25 682 -25 c 0,21,22
 512 -25 512 -25 379 29 c 1,23,-1
 283 -92 l 1,24,-1
 94 -92 l 1,25,-1
 252 104 l 1,26,27
 74 252 74 252 74 541 c 0,28,29
 74 819 74 819 236 962.5 c 128,-1,30
 398 1106 398 1106 682 1106 c 0,31,32
 870 1106 870 1106 1004 1042 c 1,33,-1
 1085 1145 l 1,34,-1
 1274 1145 l 1,35,-1
 1128 963 l 1,16,17
487 1212 m 1,36,-1
 676 1485 l 1,37,-1
 1071 1485 l 1,38,-1
 1075 1477 l 1,39,-1
 748 1212 l 1,40,-1
 487 1212 l 1,36,-1
EndSplineSet
Validated: 1
EndChar

StartChar: otilde
Encoding: 245 245 212
Width: 1366
Flags: MW
LayerCount: 2
Back
Fore
SplineSet
885 598 m 2,0,1
 885 829 885 829 682 829 c 0,2,3
 481 829 481 829 481 598 c 2,4,-1
 481 481 l 2,5,6
 481 252 481 252 682 252 c 0,7,8
 885 252 885 252 885 481 c 2,9,-1
 885 598 l 2,0,1
682 1106 m 128,-1,11
 966 1106 966 1106 1129 962.5 c 128,-1,12
 1292 819 1292 819 1292 541 c 128,-1,13
 1292 263 1292 263 1129 119 c 128,-1,14
 966 -25 966 -25 682 -25 c 128,-1,15
 398 -25 398 -25 236 119 c 128,-1,16
 74 263 74 263 74 541 c 128,-1,17
 74 819 74 819 236 962.5 c 128,-1,10
 398 1106 398 1106 682 1106 c 128,-1,11
1139 1485 m 1,18,19
 1139 1370 1139 1370 1057.5 1281 c 128,-1,20
 976 1192 976 1192 852 1192 c 0,21,22
 784 1192 784 1192 667 1233 c 128,-1,23
 550 1274 550 1274 498 1274 c 0,24,25
 460 1274 460 1274 433 1251.5 c 128,-1,26
 406 1229 406 1229 393 1192 c 1,27,-1
 227 1192 l 1,28,29
 227 1307 227 1307 308.5 1396 c 128,-1,30
 390 1485 390 1485 514 1485 c 0,31,32
 582 1485 582 1485 699 1444 c 128,-1,33
 816 1403 816 1403 868 1403 c 0,34,35
 906 1403 906 1403 933 1425.5 c 128,-1,36
 960 1448 960 1448 973 1485 c 1,37,-1
 1139 1485 l 1,18,19
EndSplineSet
Validated: 1
EndChar

StartChar: oe
Encoding: 339 339 213
Width: 2048
Flags: MW
LayerCount: 2
Back
Fore
SplineSet
829 598 m 2,0,1
 829 829 829 829 647 829 c 0,2,3
 467 829 467 829 467 598 c 2,4,-1
 467 481 l 2,5,6
 467 252 467 252 647 252 c 0,7,8
 829 252 829 252 829 481 c 2,9,-1
 829 598 l 2,0,1
1583 664 m 1,10,11
 1583 749 1583 749 1540 797.5 c 128,-1,12
 1497 846 1497 846 1421 846 c 0,13,14
 1246 846 1246 846 1227 664 c 1,15,-1
 1583 664 l 1,10,11
1995 393 m 1,16,17
 1995 196 1995 196 1851 85.5 c 128,-1,18
 1707 -25 1707 -25 1430 -25 c 0,19,20
 1178 -25 1178 -25 1028 78 c 1,21,22
 881 -25 881 -25 647 -25 c 0,23,24
 373 -25 373 -25 216 119 c 128,-1,25
 59 263 59 263 59 541 c 128,-1,26
 59 819 59 819 216 962.5 c 128,-1,27
 373 1106 373 1106 647 1106 c 0,28,29
 881 1106 881 1106 1028 1004 c 1,30,31
 1175 1106 1175 1106 1405 1106 c 0,32,33
 1995 1106 1995 1106 1995 541 c 2,34,-1
 1995 471 l 1,35,-1
 1225 471 l 1,36,37
 1225 355 1225 355 1271.5 295.5 c 128,-1,38
 1318 236 1318 236 1421 236 c 0,39,40
 1514 236 1514 236 1556.5 279 c 128,-1,41
 1599 322 1599 322 1599 393 c 1,42,-1
 1995 393 l 1,16,17
EndSplineSet
Validated: 1
EndChar

StartChar: p
Encoding: 112 112 214
Width: 1366
Flags: MW
LayerCount: 2
Back
Fore
SplineSet
885 596 m 2,0,1
 885 805 885 805 709 805 c 0,2,3
 618 805 618 805 573 741 c 128,-1,4
 528 677 528 677 528 575 c 2,5,-1
 528 508 l 2,6,7
 528 406 528 406 573.5 341 c 128,-1,8
 619 276 619 276 709 276 c 0,9,10
 885 276 885 276 885 487 c 2,11,-1
 885 596 l 2,0,1
492 928 m 1,12,13
 610 1106 610 1106 836 1106 c 0,14,15
 1055 1106 1055 1106 1173.5 963 c 128,-1,16
 1292 820 1292 820 1292 539 c 0,17,18
 1292 260 1292 260 1173.5 117.5 c 128,-1,19
 1055 -25 1055 -25 836 -25 c 0,20,21
 646 -25 646 -25 532 98 c 1,22,-1
 532 -403 l 1,23,-1
 125 -403 l 1,24,-1
 125 1081 l 1,25,-1
 457 1081 l 1,26,-1
 492 928 l 1,12,13
EndSplineSet
Validated: 1
EndChar

StartChar: thorn
Encoding: 254 254 215
Width: 1366
Flags: MW
LayerCount: 2
Back
Fore
SplineSet
885 596 m 2,0,1
 885 805 885 805 709 805 c 0,2,3
 618 805 618 805 573 741 c 128,-1,4
 528 677 528 677 528 575 c 2,5,-1
 528 508 l 2,6,7
 528 406 528 406 573.5 341 c 128,-1,8
 619 276 619 276 709 276 c 0,9,10
 885 276 885 276 885 487 c 2,11,-1
 885 596 l 2,0,1
532 979 m 1,12,13
 647 1106 647 1106 836 1106 c 0,14,15
 1055 1106 1055 1106 1173.5 963 c 128,-1,16
 1292 820 1292 820 1292 539 c 0,17,18
 1292 260 1292 260 1173.5 117.5 c 128,-1,19
 1055 -25 1055 -25 836 -25 c 0,20,21
 646 -25 646 -25 532 98 c 1,22,-1
 532 -403 l 1,23,-1
 125 -403 l 1,24,-1
 125 1485 l 1,25,-1
 532 1485 l 1,26,-1
 532 979 l 1,12,13
EndSplineSet
Validated: 1
EndChar

StartChar: q
Encoding: 113 113 216
Width: 1366
Flags: MW
LayerCount: 2
Back
Fore
SplineSet
838 575 m 2,0,1
 838 677 838 677 793 741 c 128,-1,2
 748 805 748 805 657 805 c 0,3,4
 481 805 481 805 481 596 c 2,5,-1
 481 487 l 2,6,7
 481 276 481 276 657 276 c 0,8,9
 747 276 747 276 792.5 341 c 128,-1,10
 838 406 838 406 838 508 c 2,11,-1
 838 575 l 2,0,1
834 98 m 1,12,13
 720 -25 720 -25 530 -25 c 0,14,15
 311 -25 311 -25 192.5 117.5 c 128,-1,16
 74 260 74 260 74 539 c 0,17,18
 74 820 74 820 192.5 963 c 128,-1,19
 311 1106 311 1106 530 1106 c 0,20,21
 756 1106 756 1106 874 928 c 1,22,-1
 909 1081 l 1,23,-1
 1241 1081 l 1,24,-1
 1241 -403 l 1,25,-1
 834 -403 l 1,26,-1
 834 98 l 1,12,13
EndSplineSet
Validated: 1
EndChar

StartChar: r
Encoding: 114 114 217
Width: 909
Flags: MW
LayerCount: 2
Back
Fore
SplineSet
483 918 m 1,0,1
 520 1011 520 1011 599.5 1059.5 c 128,-1,2
 679 1108 679 1108 780 1108 c 0,3,4
 814 1108 814 1108 844 1102 c 128,-1,5
 874 1096 874 1096 888 1090 c 2,6,-1
 901 1083 l 1,7,-1
 901 741 l 1,8,-1
 770 741 l 2,9,10
 642 741 642 741 586 675 c 128,-1,11
 530 609 530 609 530 481 c 2,12,-1
 530 0 l 1,13,-1
 123 0 l 1,14,-1
 123 1081 l 1,15,-1
 457 1081 l 1,16,-1
 483 918 l 1,0,1
EndSplineSet
Validated: 1
EndChar

StartChar: racute
Encoding: 341 341 218
Width: 909
Flags: MW
LayerCount: 2
Back
Fore
SplineSet
483 918 m 1,0,1
 520 1011 520 1011 599.5 1059.5 c 128,-1,2
 679 1108 679 1108 780 1108 c 0,3,4
 814 1108 814 1108 844 1102 c 128,-1,5
 874 1096 874 1096 888 1090 c 2,6,-1
 901 1083 l 1,7,-1
 901 741 l 1,8,-1
 770 741 l 2,9,10
 642 741 642 741 586 675 c 128,-1,11
 530 609 530 609 530 481 c 2,12,-1
 530 0 l 1,13,-1
 123 0 l 1,14,-1
 123 1081 l 1,15,-1
 457 1081 l 1,16,-1
 483 918 l 1,0,1
109 1212 m 1,17,-1
 299 1485 l 1,18,-1
 692 1485 l 1,19,-1
 696 1477 l 1,20,-1
 371 1212 l 1,21,-1
 109 1212 l 1,17,-1
EndSplineSet
Validated: 1
EndChar

StartChar: rcaron
Encoding: 345 345 219
Width: 909
Flags: MW
LayerCount: 2
Back
Fore
SplineSet
483 918 m 1,0,1
 520 1011 520 1011 599.5 1059.5 c 128,-1,2
 679 1108 679 1108 780 1108 c 0,3,4
 814 1108 814 1108 844 1102 c 128,-1,5
 874 1096 874 1096 888 1090 c 2,6,-1
 901 1083 l 1,7,-1
 901 741 l 1,8,-1
 770 741 l 2,9,10
 642 741 642 741 586 675 c 128,-1,11
 530 609 530 609 530 481 c 2,12,-1
 530 0 l 1,13,-1
 123 0 l 1,14,-1
 123 1081 l 1,15,-1
 457 1081 l 1,16,-1
 483 918 l 1,0,1
324 1188 m 1,17,-1
 39 1485 l 1,18,-1
 301 1485 l 1,19,-1
 453 1327 l 1,20,-1
 604 1485 l 1,21,-1
 870 1485 l 1,22,-1
 586 1188 l 1,23,-1
 324 1188 l 1,17,-1
EndSplineSet
Validated: 1
EndChar

StartChar: rcommaaccent
Encoding: 343 343 220
Width: 909
Flags: MW
LayerCount: 2
Back
Fore
SplineSet
477 -547 m 1,0,-1
 340 -547 l 1,1,-1
 424 -358 l 1,2,-1
 322 -358 l 1,3,-1
 322 -121 l 1,4,-1
 588 -121 l 1,5,-1
 588 -344 l 1,6,-1
 477 -547 l 1,0,-1
483 918 m 1,7,8
 520 1011 520 1011 599.5 1059.5 c 128,-1,9
 679 1108 679 1108 780 1108 c 0,10,11
 814 1108 814 1108 844 1102 c 128,-1,12
 874 1096 874 1096 888 1090 c 2,13,-1
 901 1083 l 1,14,-1
 901 741 l 1,15,-1
 770 741 l 2,16,17
 642 741 642 741 586 675 c 128,-1,18
 530 609 530 609 530 481 c 2,19,-1
 530 0 l 1,20,-1
 123 0 l 1,21,-1
 123 1081 l 1,22,-1
 457 1081 l 1,23,-1
 483 918 l 1,7,8
EndSplineSet
Validated: 1
EndChar

StartChar: s
Encoding: 115 115 221
Width: 1251
Flags: MW
LayerCount: 2
Back
Fore
SplineSet
444 344 m 1,0,1
 445 307 445 307 464 281 c 128,-1,2
 483 255 483 255 513 242.5 c 128,-1,3
 543 230 543 230 570 224.5 c 128,-1,4
 597 219 597 219 623 219 c 0,5,6
 793 219 793 219 793 299 c 0,7,8
 793 331 793 331 754.5 351.5 c 128,-1,9
 716 372 716 372 654.5 383 c 128,-1,10
 593 394 593 394 518.5 405.5 c 128,-1,11
 444 417 444 417 369 438.5 c 128,-1,12
 294 460 294 460 232.5 493.5 c 128,-1,13
 171 527 171 527 132.5 589.5 c 128,-1,14
 94 652 94 652 94 739 c 0,15,16
 94 822 94 822 123.5 886.5 c 128,-1,17
 153 951 153 951 202.5 991.5 c 128,-1,18
 252 1032 252 1032 323 1058.5 c 128,-1,19
 394 1085 394 1085 470.5 1095.5 c 128,-1,20
 547 1106 547 1106 637 1106 c 0,21,22
 738 1106 738 1106 827 1087 c 128,-1,23
 916 1068 916 1068 991.5 1028.5 c 128,-1,24
 1067 989 1067 989 1111 919.5 c 128,-1,25
 1155 850 1155 850 1155 758 c 1,26,-1
 776 758 l 1,27,28
 776 818 776 818 723 842 c 1,29,30
 687 862 687 862 631 862 c 0,31,32
 483 862 483 862 483 793 c 0,33,34
 483 762 483 762 521.5 743.5 c 128,-1,35
 560 725 560 725 621.5 715 c 128,-1,36
 683 705 683 705 757.5 695 c 128,-1,37
 832 685 832 685 907 664 c 128,-1,38
 982 643 982 643 1043.5 609.5 c 128,-1,39
 1105 576 1105 576 1143.5 512 c 128,-1,40
 1182 448 1182 448 1182 358 c 0,41,42
 1182 271 1182 271 1152 204 c 128,-1,43
 1122 137 1122 137 1071.5 94.5 c 128,-1,44
 1021 52 1021 52 948 24.5 c 128,-1,45
 875 -3 875 -3 795.5 -14 c 128,-1,46
 716 -25 716 -25 623 -25 c 0,47,48
 517 -25 517 -25 421 -3.5 c 128,-1,49
 325 18 325 18 244 61.5 c 128,-1,50
 163 105 163 105 114.5 180 c 128,-1,51
 66 255 66 255 66 352 c 1,52,-1
 444 352 l 1,53,-1
 444 344 l 1,0,1
EndSplineSet
Validated: 1
EndChar

StartChar: sacute
Encoding: 347 347 222
Width: 1251
Flags: MW
LayerCount: 2
Back
Fore
SplineSet
444 344 m 1,0,1
 445 307 445 307 464 281 c 128,-1,2
 483 255 483 255 513 242.5 c 128,-1,3
 543 230 543 230 570 224.5 c 128,-1,4
 597 219 597 219 623 219 c 0,5,6
 793 219 793 219 793 299 c 0,7,8
 793 331 793 331 754.5 351.5 c 128,-1,9
 716 372 716 372 654.5 383 c 128,-1,10
 593 394 593 394 518.5 405.5 c 128,-1,11
 444 417 444 417 369 438.5 c 128,-1,12
 294 460 294 460 232.5 493.5 c 128,-1,13
 171 527 171 527 132.5 589.5 c 128,-1,14
 94 652 94 652 94 739 c 0,15,16
 94 822 94 822 123.5 886.5 c 128,-1,17
 153 951 153 951 202.5 991.5 c 128,-1,18
 252 1032 252 1032 323 1058.5 c 128,-1,19
 394 1085 394 1085 470.5 1095.5 c 128,-1,20
 547 1106 547 1106 637 1106 c 0,21,22
 738 1106 738 1106 827 1087 c 128,-1,23
 916 1068 916 1068 991.5 1028.5 c 128,-1,24
 1067 989 1067 989 1111 919.5 c 128,-1,25
 1155 850 1155 850 1155 758 c 1,26,-1
 776 758 l 1,27,28
 776 818 776 818 723 842 c 1,29,30
 687 862 687 862 631 862 c 0,31,32
 483 862 483 862 483 793 c 0,33,34
 483 762 483 762 521.5 743.5 c 128,-1,35
 560 725 560 725 621.5 715 c 128,-1,36
 683 705 683 705 757.5 695 c 128,-1,37
 832 685 832 685 907 664 c 128,-1,38
 982 643 982 643 1043.5 609.5 c 128,-1,39
 1105 576 1105 576 1143.5 512 c 128,-1,40
 1182 448 1182 448 1182 358 c 0,41,42
 1182 271 1182 271 1152 204 c 128,-1,43
 1122 137 1122 137 1071.5 94.5 c 128,-1,44
 1021 52 1021 52 948 24.5 c 128,-1,45
 875 -3 875 -3 795.5 -14 c 128,-1,46
 716 -25 716 -25 623 -25 c 0,47,48
 517 -25 517 -25 421 -3.5 c 128,-1,49
 325 18 325 18 244 61.5 c 128,-1,50
 163 105 163 105 114.5 180 c 128,-1,51
 66 255 66 255 66 352 c 1,52,-1
 444 352 l 1,53,-1
 444 344 l 1,0,1
428 1212 m 1,54,-1
 618 1485 l 1,55,-1
 1014 1485 l 1,56,-1
 1018 1477 l 1,57,-1
 690 1212 l 1,58,-1
 428 1212 l 1,54,-1
EndSplineSet
Validated: 1
EndChar

StartChar: scaron
Encoding: 353 353 223
Width: 1251
Flags: MW
LayerCount: 2
Back
Fore
SplineSet
444 344 m 1,0,1
 445 307 445 307 464 281 c 128,-1,2
 483 255 483 255 513 242.5 c 128,-1,3
 543 230 543 230 570 224.5 c 128,-1,4
 597 219 597 219 623 219 c 0,5,6
 793 219 793 219 793 299 c 0,7,8
 793 331 793 331 754.5 351.5 c 128,-1,9
 716 372 716 372 654.5 383 c 128,-1,10
 593 394 593 394 518.5 405.5 c 128,-1,11
 444 417 444 417 369 438.5 c 128,-1,12
 294 460 294 460 232.5 493.5 c 128,-1,13
 171 527 171 527 132.5 589.5 c 128,-1,14
 94 652 94 652 94 739 c 0,15,16
 94 822 94 822 123.5 886.5 c 128,-1,17
 153 951 153 951 202.5 991.5 c 128,-1,18
 252 1032 252 1032 323 1058.5 c 128,-1,19
 394 1085 394 1085 470.5 1095.5 c 128,-1,20
 547 1106 547 1106 637 1106 c 0,21,22
 738 1106 738 1106 827 1087 c 128,-1,23
 916 1068 916 1068 991.5 1028.5 c 128,-1,24
 1067 989 1067 989 1111 919.5 c 128,-1,25
 1155 850 1155 850 1155 758 c 1,26,-1
 776 758 l 1,27,28
 776 818 776 818 723 842 c 1,29,30
 687 862 687 862 631 862 c 0,31,32
 483 862 483 862 483 793 c 0,33,34
 483 762 483 762 521.5 743.5 c 128,-1,35
 560 725 560 725 621.5 715 c 128,-1,36
 683 705 683 705 757.5 695 c 128,-1,37
 832 685 832 685 907 664 c 128,-1,38
 982 643 982 643 1043.5 609.5 c 128,-1,39
 1105 576 1105 576 1143.5 512 c 128,-1,40
 1182 448 1182 448 1182 358 c 0,41,42
 1182 271 1182 271 1152 204 c 128,-1,43
 1122 137 1122 137 1071.5 94.5 c 128,-1,44
 1021 52 1021 52 948 24.5 c 128,-1,45
 875 -3 875 -3 795.5 -14 c 128,-1,46
 716 -25 716 -25 623 -25 c 0,47,48
 517 -25 517 -25 421 -3.5 c 128,-1,49
 325 18 325 18 244 61.5 c 128,-1,50
 163 105 163 105 114.5 180 c 128,-1,51
 66 255 66 255 66 352 c 1,52,-1
 444 352 l 1,53,-1
 444 344 l 1,0,1
496 1188 m 1,54,-1
 211 1485 l 1,55,-1
 471 1485 l 1,56,-1
 625 1327 l 1,57,-1
 776 1485 l 1,58,-1
 1042 1485 l 1,59,-1
 758 1188 l 1,60,-1
 496 1188 l 1,54,-1
EndSplineSet
Validated: 1
EndChar

StartChar: scedilla
Encoding: 351 351 224
Width: 1251
Flags: MW
LayerCount: 2
Back
Fore
SplineSet
444 344 m 1,0,1
 445 307 445 307 464 281 c 128,-1,2
 483 255 483 255 513 242.5 c 128,-1,3
 543 230 543 230 570 224.5 c 128,-1,4
 597 219 597 219 623 219 c 0,5,6
 793 219 793 219 793 299 c 0,7,8
 793 331 793 331 754.5 351.5 c 128,-1,9
 716 372 716 372 654.5 383 c 128,-1,10
 593 394 593 394 518.5 405.5 c 128,-1,11
 444 417 444 417 369 438.5 c 128,-1,12
 294 460 294 460 232.5 493.5 c 128,-1,13
 171 527 171 527 132.5 589.5 c 128,-1,14
 94 652 94 652 94 739 c 0,15,16
 94 822 94 822 123.5 886.5 c 128,-1,17
 153 951 153 951 202.5 991.5 c 128,-1,18
 252 1032 252 1032 323 1058.5 c 128,-1,19
 394 1085 394 1085 470.5 1095.5 c 128,-1,20
 547 1106 547 1106 637 1106 c 0,21,22
 738 1106 738 1106 827 1087 c 128,-1,23
 916 1068 916 1068 991.5 1028.5 c 128,-1,24
 1067 989 1067 989 1111 919.5 c 128,-1,25
 1155 850 1155 850 1155 758 c 1,26,-1
 776 758 l 1,27,28
 776 818 776 818 723 842 c 1,29,30
 687 862 687 862 631 862 c 0,31,32
 483 862 483 862 483 793 c 0,33,34
 483 762 483 762 521.5 743.5 c 128,-1,35
 560 725 560 725 621.5 715 c 128,-1,36
 683 705 683 705 757.5 695 c 128,-1,37
 832 685 832 685 907 664 c 128,-1,38
 982 643 982 643 1043.5 609.5 c 128,-1,39
 1105 576 1105 576 1143.5 512 c 128,-1,40
 1182 448 1182 448 1182 358 c 0,41,42
 1182 259 1182 259 1143.5 185.5 c 128,-1,43
 1105 112 1105 112 1035.5 69 c 128,-1,44
 966 26 966 26 881 4 c 128,-1,45
 796 -18 796 -18 690 -23 c 1,46,-1
 686 -59 l 1,47,48
 771 -67 771 -67 824 -110.5 c 128,-1,49
 877 -154 877 -154 877 -242 c 0,50,51
 877 -297 877 -297 853 -337 c 128,-1,52
 829 -377 829 -377 790 -396 c 128,-1,53
 751 -415 751 -415 713 -423.5 c 128,-1,54
 675 -432 675 -432 635 -432 c 0,55,56
 474 -432 474 -432 377 -399 c 1,57,-1
 377 -289 l 1,58,59
 510 -305 510 -305 616 -305 c 0,60,61
 698 -305 698 -305 698 -242 c 0,62,63
 698 -209 698 -209 680.5 -192.5 c 128,-1,64
 663 -176 663 -176 621 -176 c 2,65,-1
 543 -176 l 1,66,-1
 565 -23 l 1,67,68
 466 -18 466 -18 380 6.5 c 128,-1,69
 294 31 294 31 222 74.5 c 128,-1,70
 150 118 150 118 108 189.5 c 128,-1,71
 66 261 66 261 66 352 c 1,72,-1
 444 352 l 1,73,-1
 444 344 l 1,0,1
EndSplineSet
Validated: 1
EndChar

StartChar: scircumflex
Encoding: 349 349 225
Width: 1251
Flags: MW
LayerCount: 2
Back
Fore
SplineSet
444 344 m 1,0,1
 445 307 445 307 464 281 c 128,-1,2
 483 255 483 255 513 242.5 c 128,-1,3
 543 230 543 230 570 224.5 c 128,-1,4
 597 219 597 219 623 219 c 0,5,6
 793 219 793 219 793 299 c 0,7,8
 793 331 793 331 754.5 351.5 c 128,-1,9
 716 372 716 372 654.5 383 c 128,-1,10
 593 394 593 394 518.5 405.5 c 128,-1,11
 444 417 444 417 369 438.5 c 128,-1,12
 294 460 294 460 232.5 493.5 c 128,-1,13
 171 527 171 527 132.5 589.5 c 128,-1,14
 94 652 94 652 94 739 c 0,15,16
 94 822 94 822 123.5 886.5 c 128,-1,17
 153 951 153 951 202.5 991.5 c 128,-1,18
 252 1032 252 1032 323 1058.5 c 128,-1,19
 394 1085 394 1085 470.5 1095.5 c 128,-1,20
 547 1106 547 1106 637 1106 c 0,21,22
 738 1106 738 1106 827 1087 c 128,-1,23
 916 1068 916 1068 991.5 1028.5 c 128,-1,24
 1067 989 1067 989 1111 919.5 c 128,-1,25
 1155 850 1155 850 1155 758 c 1,26,-1
 776 758 l 1,27,28
 776 818 776 818 723 842 c 1,29,30
 687 862 687 862 631 862 c 0,31,32
 483 862 483 862 483 793 c 0,33,34
 483 762 483 762 521.5 743.5 c 128,-1,35
 560 725 560 725 621.5 715 c 128,-1,36
 683 705 683 705 757.5 695 c 128,-1,37
 832 685 832 685 907 664 c 128,-1,38
 982 643 982 643 1043.5 609.5 c 128,-1,39
 1105 576 1105 576 1143.5 512 c 128,-1,40
 1182 448 1182 448 1182 358 c 0,41,42
 1182 271 1182 271 1152 204 c 128,-1,43
 1122 137 1122 137 1071.5 94.5 c 128,-1,44
 1021 52 1021 52 948 24.5 c 128,-1,45
 875 -3 875 -3 795.5 -14 c 128,-1,46
 716 -25 716 -25 623 -25 c 0,47,48
 517 -25 517 -25 421 -3.5 c 128,-1,49
 325 18 325 18 244 61.5 c 128,-1,50
 163 105 163 105 114.5 180 c 128,-1,51
 66 255 66 255 66 352 c 1,52,-1
 444 352 l 1,53,-1
 444 344 l 1,0,1
776 1188 m 1,54,-1
 625 1346 l 1,55,-1
 471 1188 l 1,56,-1
 211 1188 l 1,57,-1
 496 1485 l 1,58,-1
 758 1485 l 1,59,-1
 1042 1188 l 1,60,-1
 776 1188 l 1,54,-1
EndSplineSet
Validated: 1
EndChar

StartChar: scommaaccent
Encoding: 537 537 226
Width: 1251
Flags: MW
LayerCount: 2
Back
Fore
SplineSet
649 -547 m 1,0,-1
 512 -547 l 1,1,-1
 596 -358 l 1,2,-1
 494 -358 l 1,3,-1
 494 -121 l 1,4,-1
 760 -121 l 1,5,-1
 760 -344 l 1,6,-1
 649 -547 l 1,0,-1
444 344 m 1,7,8
 445 307 445 307 464 281 c 128,-1,9
 483 255 483 255 513 242.5 c 128,-1,10
 543 230 543 230 570 224.5 c 128,-1,11
 597 219 597 219 623 219 c 0,12,13
 793 219 793 219 793 299 c 0,14,15
 793 331 793 331 754.5 351.5 c 128,-1,16
 716 372 716 372 654.5 383 c 128,-1,17
 593 394 593 394 518.5 405.5 c 128,-1,18
 444 417 444 417 369 438.5 c 128,-1,19
 294 460 294 460 232.5 493.5 c 128,-1,20
 171 527 171 527 132.5 589.5 c 128,-1,21
 94 652 94 652 94 739 c 0,22,23
 94 822 94 822 123.5 886.5 c 128,-1,24
 153 951 153 951 202.5 991.5 c 128,-1,25
 252 1032 252 1032 323 1058.5 c 128,-1,26
 394 1085 394 1085 470.5 1095.5 c 128,-1,27
 547 1106 547 1106 637 1106 c 0,28,29
 738 1106 738 1106 827 1087 c 128,-1,30
 916 1068 916 1068 991.5 1028.5 c 128,-1,31
 1067 989 1067 989 1111 919.5 c 128,-1,32
 1155 850 1155 850 1155 758 c 1,33,-1
 776 758 l 1,34,35
 776 818 776 818 723 842 c 1,36,37
 687 862 687 862 631 862 c 0,38,39
 483 862 483 862 483 793 c 0,40,41
 483 762 483 762 521.5 743.5 c 128,-1,42
 560 725 560 725 621.5 715 c 128,-1,43
 683 705 683 705 757.5 695 c 128,-1,44
 832 685 832 685 907 664 c 128,-1,45
 982 643 982 643 1043.5 609.5 c 128,-1,46
 1105 576 1105 576 1143.5 512 c 128,-1,47
 1182 448 1182 448 1182 358 c 0,48,49
 1182 271 1182 271 1152 204 c 128,-1,50
 1122 137 1122 137 1071.5 94.5 c 128,-1,51
 1021 52 1021 52 948 24.5 c 128,-1,52
 875 -3 875 -3 795.5 -14 c 128,-1,53
 716 -25 716 -25 623 -25 c 0,54,55
 517 -25 517 -25 421 -3.5 c 128,-1,56
 325 18 325 18 244 61.5 c 128,-1,57
 163 105 163 105 114.5 180 c 128,-1,58
 66 255 66 255 66 352 c 1,59,-1
 444 352 l 1,60,-1
 444 344 l 1,7,8
EndSplineSet
Validated: 1
EndChar

StartChar: germandbls
Encoding: 223 223 227
Width: 1366
Flags: MW
LayerCount: 2
Back
Fore
SplineSet
137 1059 m 2,0,1
 137 1153 137 1153 169 1230 c 128,-1,2
 201 1307 201 1307 254 1358 c 128,-1,3
 307 1409 307 1409 379 1443.5 c 128,-1,4
 451 1478 451 1478 528.5 1493.5 c 128,-1,5
 606 1509 606 1509 688 1509 c 0,6,7
 767 1509 767 1509 840 1498 c 128,-1,8
 913 1487 913 1487 984 1458.5 c 128,-1,9
 1055 1430 1055 1430 1107 1387.5 c 128,-1,10
 1159 1345 1159 1345 1191 1276.5 c 128,-1,11
 1223 1208 1223 1208 1223 1122 c 0,12,13
 1223 1023 1223 1023 1170.5 939 c 128,-1,14
 1118 855 1118 855 1030 819 c 1,15,-1
 1030 809 l 1,16,17
 1139 769 1139 769 1208.5 665 c 128,-1,18
 1278 561 1278 561 1278 438 c 0,19,20
 1278 224 1278 224 1139.5 112 c 128,-1,21
 1001 0 1001 0 774 0 c 2,22,-1
 643 0 l 1,23,-1
 643 279 l 1,24,-1
 700 279 l 2,25,26
 770 279 770 279 820 335.5 c 128,-1,27
 870 392 870 392 870 469 c 0,28,29
 870 550 870 550 819.5 608 c 128,-1,30
 769 666 769 666 700 666 c 2,31,-1
 643 666 l 1,32,-1
 643 954 l 1,33,-1
 698 954 l 2,34,35
 755 954 755 954 793 994.5 c 128,-1,36
 831 1035 831 1035 831 1094 c 0,37,38
 831 1156 831 1156 792.5 1195.5 c 128,-1,39
 754 1235 754 1235 688 1235 c 0,40,41
 623 1235 623 1235 584 1195 c 128,-1,42
 545 1155 545 1155 545 1094 c 2,43,-1
 545 0 l 1,44,-1
 137 0 l 1,45,-1
 137 1059 l 2,0,1
EndSplineSet
Validated: 1
EndChar

StartChar: longs
Encoding: 383 383 228
Width: 798
Flags: MW
LayerCount: 2
Back
Fore
SplineSet
168 1126 m 2,0,1
 168 1234 168 1234 196.5 1310 c 128,-1,2
 225 1386 225 1386 279 1428.5 c 128,-1,3
 333 1471 333 1471 402 1490 c 128,-1,4
 471 1509 471 1509 563 1509 c 0,5,6
 609 1509 609 1509 676.5 1498.5 c 128,-1,7
 744 1488 744 1488 784 1473 c 1,8,-1
 784 1233 l 1,9,-1
 690 1233 l 2,10,11
 624 1233 624 1233 599.5 1208 c 128,-1,12
 575 1183 575 1183 575 1124 c 2,13,-1
 575 0 l 1,14,-1
 168 0 l 1,15,-1
 168 805 l 1,16,-1
 16 805 l 1,17,-1
 16 1081 l 1,18,-1
 168 1081 l 1,19,-1
 168 1126 l 2,0,1
EndSplineSet
Validated: 1
EndChar

StartChar: t
Encoding: 116 116 229
Width: 909
Flags: MW
LayerCount: 2
Back
Fore
SplineSet
844 1081 m 1,0,-1
 844 805 l 1,1,-1
 614 805 l 1,2,-1
 614 393 l 2,3,4
 614 320 614 320 638.5 286 c 128,-1,5
 663 252 663 252 729 252 c 2,6,-1
 844 252 l 1,7,-1
 844 12 l 1,8,9
 796 -4 796 -4 718 -14.5 c 128,-1,10
 640 -25 640 -25 582 -25 c 0,11,12
 495 -25 495 -25 429.5 -10.5 c 128,-1,13
 364 4 364 4 312.5 36.5 c 128,-1,14
 261 69 261 69 234 126 c 128,-1,15
 207 183 207 183 207 264 c 2,16,-1
 207 805 l 1,17,-1
 55 805 l 1,18,-1
 55 1081 l 1,19,-1
 223 1081 l 1,20,-1
 311 1409 l 1,21,-1
 614 1409 l 1,22,-1
 614 1081 l 1,23,-1
 844 1081 l 1,0,-1
EndSplineSet
Validated: 1
EndChar

StartChar: tbar
Encoding: 359 359 230
Width: 909
Flags: MW
LayerCount: 2
Back
Fore
SplineSet
844 1081 m 1,0,-1
 844 805 l 1,1,-1
 614 805 l 1,2,-1
 614 635 l 1,3,-1
 801 635 l 1,4,-1
 801 428 l 1,5,-1
 614 428 l 1,6,-1
 614 393 l 2,7,8
 614 320 614 320 638.5 286 c 128,-1,9
 663 252 663 252 729 252 c 2,10,-1
 844 252 l 1,11,-1
 844 12 l 1,12,13
 796 -4 796 -4 718 -14.5 c 128,-1,14
 640 -25 640 -25 582 -25 c 0,15,16
 495 -25 495 -25 429.5 -10.5 c 128,-1,17
 364 4 364 4 312.5 36.5 c 128,-1,18
 261 69 261 69 234 126 c 128,-1,19
 207 183 207 183 207 264 c 2,20,-1
 207 428 l 1,21,-1
 63 428 l 1,22,-1
 63 635 l 1,23,-1
 207 635 l 1,24,-1
 207 805 l 1,25,-1
 55 805 l 1,26,-1
 55 1081 l 1,27,-1
 223 1081 l 1,28,-1
 311 1409 l 1,29,-1
 614 1409 l 1,30,-1
 614 1081 l 1,31,-1
 844 1081 l 1,0,-1
EndSplineSet
Validated: 1
EndChar

